<?xml version="1.0" encoding="UTF-8" standalone="no"?>
<svg
   xmlns:dc="http://purl.org/dc/elements/1.1/"
   xmlns:cc="http://creativecommons.org/ns#"
   xmlns:rdf="http://www.w3.org/1999/02/22-rdf-syntax-ns#"
   xmlns:svg="http://www.w3.org/2000/svg"
   xmlns="http://www.w3.org/2000/svg"
   version="1.1"
   id="svg2"
   viewBox="0 0 732.95077 731.10969"
   height="206.3354mm"
   width="206.855mm">
  <defs
     id="defs4" />
  <metadata
     id="metadata7">
    <rdf:RDF>
      <cc:Work
         rdf:about="">
        <dc:format>image/svg+xml</dc:format>
        <dc:type
           rdf:resource="http://purl.org/dc/dcmitype/StillImage" />
        <dc:title></dc:title>
      </cc:Work>
    </rdf:RDF>
  </metadata>
  <g
     transform="translate(-7.6015534,-152.3417)"
     id="layer1">
    <ellipse
       ry="285.13278"
       rx="289.6785"
       cy="496.77832"
       cx="372.24121"
       id="path4158-2"
       style="fill:none;fill-opacity:1;fill-rule:nonzero;stroke:#000000;stroke-width:7.49084234;stroke-linecap:round;stroke-linejoin:round;stroke-miterlimit:4;stroke-dasharray:none;stroke-opacity:1" />
    <ellipse
       ry="352.3988"
       rx="360.98511"
       cy="509.40521"
       cx="373.25137"
       id="path4158-2-2"
       style="fill:none;fill-opacity:1;fill-rule:nonzero;stroke:#000000;stroke-width:9.32942486;stroke-linecap:round;stroke-linejoin:round;stroke-miterlimit:4;stroke-dasharray:none;stroke-opacity:1" />
    <ellipse
       ry="79.232368"
       rx="81.25267"
       cy="447.78592"
       cx="363.14987"
       id="path4158-22"
       style="fill:none;fill-opacity:1;fill-rule:nonzero;stroke:#000000;stroke-width:5;stroke-linecap:round;stroke-linejoin:round;stroke-miterlimit:4;stroke-dasharray:none;stroke-opacity:1" />
    <path
       id="path4240"
       d="m 272.74119,728.10324 20.45559,-73.4886 c 5.44933,2.3003 11.06725,4.2011 16.79378,5.68211 5.67978,1.46892 11.46633,2.52485 17.29886,3.15672 l -7.82867,80.30713 16.66751,2.27285 6.31345,-80.55967 c 6.06798,0.82791 12.18558,1.29201 18.30902,1.38896 5.51975,0.0874 11.04422,-0.12346 16.54125,-0.63134 l 9.59644,82.8325 14.64722,-2.02031 -9.59645,-82.57996 c 6.23536,-0.5532 12.43743,-1.4814 18.56155,-2.77792 5.93699,-1.2569 11.80069,-2.85993 17.5514,-4.79823 l 24.24366,79.54952 14.89975,-4.79823 -25.50635,-79.04443 c 5.80971,-1.95765 11.48729,-4.30732 16.98133,-7.02774 5.25305,-2.60109 10.33827,-5.54104 15.21357,-8.79551 l 38.76832,73.40194 13.38452,-7.82868 -41.16372,-73.23606 c 5.72848,-3.20997 11.21995,-6.84279 16.41498,-10.85914 4.90963,-3.7957 9.55447,-7.93383 13.8896,-12.37437 l 51.51778,61.11423 9.68311,-9.93565 -53.11967,-61.28011 11.11168,-13.13198 11.87673,7.42296 c 4.80147,2.99997 10.68548,4.22395 16.28498,3.38759 3.70831,-0.55389 7.28175,-1.99064 10.34138,-4.1579 l 32.68203,27.91444 7.85931,-13.10134 -33.58757,-27.52666 c 0.89727,-3.27929 1.24029,-6.7095 1.01015,-10.10153 -0.26167,-3.8567 -1.26962,-7.67044 -3.03045,-11.11168 -1.51405,-2.95896 -3.58044,-5.63415 -6.06092,-7.84662 l -13.13198,-10.33612 6.06091,-15.15229 67.93276,34.59773 3.53553,-14.39468 -67.42768,-35.35534 c 1.44699,-5.07358 2.53056,-10.25077 3.23967,-15.47879 0.79734,-5.87854 1.12101,-11.82127 0.96682,-17.75164 l 69.28211,15.30022 0.50508,-12.12183 -68.77704,-15.19561 c 0.13206,-6.61261 -0.19123,-13.23428 -0.96682,-19.80258 -0.70699,-5.98734 -1.78971,-11.93029 -3.23966,-17.78228 l 65.15483,2.27285 -4.54568,-13.38453 -63.63961,-3.03045 c -1.06276,-5.64212 -2.49796,-11.21406 -4.29315,-16.66752 -1.70203,-5.17045 -3.7276,-10.23436 -6.06092,-15.15229 l 56.82108,-10.10153 -8.08122,-11.61675 -55.30585,8.58629 c -2.79355,-5.43407 -5.82797,-10.74431 -9.09137,-15.9099 -3.2313,-5.11478 -6.68708,-10.08773 -10.35406,-14.89975 l 48.48732,-18.18274 -12.12183,-12.12183 -43.43656,21.2132 c -4.26882,-4.2468 -8.73686,-8.29333 -13.38452,-12.12183 -5.25247,-4.32671 -10.73437,-8.37489 -16.41498,-12.12183 l 37.88072,-28.28427 -11.61676,-7.07106 -35.35533,29.7995 c -5.40889,-3.75969 -10.97086,-7.29913 -16.66752,-10.60661 -5.27703,-3.06385 -10.66961,-5.92866 -16.16244,-8.5863 l 22.22335,-34.85026 -11.11167,-4.04061 -21.71829,35.86041 c -6.25885,-2.42904 -12.67414,-4.45492 -19.1929,-6.06091 -6.48166,-1.59685 -13.06555,-2.77858 -19.69796,-3.53553 l 9.09137,-36.36549 -11.61676,-1.51523 -9.59645,36.80929 c -6.37457,-0.66258 -12.784,-0.98968 -19.1929,-0.9795 -6.40998,0.0102 -12.8194,0.35775 -19.19289,1.0408 l -2.02031,-41.41625 -12.12183,0 2.02031,42.42641 c -5.77482,0.42915 -11.51871,1.27384 -17.17259,2.52538 -6.19414,1.37113 -12.2801,3.23073 -18.18275,5.55584 l -18.18275,-35.35534 -11.61676,3.53553 17.67768,35.86042 c -6.06903,2.08377 -11.9832,4.61841 -17.67767,7.57614 -5.43689,2.82394 -10.67346,6.03345 -15.65737,9.59645 l -30.30457,-32.32488 -12.12184,7.07107 32.32489,31.31473 c -5.84341,3.62408 -11.41935,7.67931 -16.66753,12.12183 -4.45618,3.77211 -8.67613,7.82326 -12.6269,12.12183 l -38.2685,-21.83557 -9.32596,8.99945 38.56437,21.27448 -10.16281,12.77484 -12.12183,-2.08158 c -3.39499,-0.25435 -6.83542,0.11056 -10.10152,1.07143 -4.07665,1.19933 -7.86295,3.32171 -11.11168,6.06091 -1.45797,1.2293 -2.81131,2.58264 -4.04061,4.04061 l -21.68765,-2.96918 -6.59662,11.0504 21.45305,3.97934 c -0.74217,3.02638 -0.46725,6.29289 0.7703,9.15265 1.62956,3.76561 4.77962,6.65525 8.08122,9.09137 2.55862,1.88791 5.26304,3.57817 8.08123,5.05076 l -5.82632,16.87673 -53.77268,0.29587 -2.02031,13.13198 52.52793,0 c -1.44165,5.79828 -2.63187,11.65906 -3.56617,17.56037 -0.94801,5.98787 -1.63254,12.01745 -2.05095,18.06545 l -56.25472,14.62926 0.25254,12.37437 55.55839,-15.15228 c 6.7e-4,6.24139 0.33804,12.48273 1.01015,18.68782 0.58741,5.42315 1.43045,10.81859 2.52538,16.16244 l -56.06346,29.04189 3.28299,13.13198 54.80077,-28.53681 c 1.65048,6.34123 3.67547,12.58496 6.06092,18.68782 2.08573,5.33607 4.44693,10.56445 7.07107,15.65736 l -51.26524,41.92133 5.55584,14.14214 51.26524,-42.93148 c 2.48976,5.66865 5.53985,11.09103 9.09137,16.16244 3.02065,4.31335 6.4036,8.37289 10.10153,12.12183 l -44.44672,53.53809 10.10153,12.12183 42.42641,-55.55839 c 4.0859,4.20976 8.34156,8.25474 12.75317,12.12183 4.43519,3.88776 9.02799,7.59571 13.76334,11.11168 l -32.82996,66.41753 14.64721,10.60659 31.06219,-67.93275 c 4.93931,3.4229 10.0869,6.54521 15.40482,9.34391 4.83591,2.54503 9.81261,4.8225 14.89975,6.81853 l -19.95051,73.4886 13.8896,5.30327 z"
       style="fill:none;fill-rule:evenodd;stroke:#000000;stroke-width:5;stroke-linecap:butt;stroke-linejoin:miter;stroke-miterlimit:4;stroke-dasharray:none;stroke-opacity:1" />
    <path
       id="path4246"
       d="m 176.25,346.64792 c -2.51857,0.15985 -4.8937,1.36566 -6.78571,3.03571 -1.63071,1.43941 -2.96528,3.2682 -3.57143,5.35714 -0.62947,2.16931 -0.43217,4.56623 0.53571,6.60715 0.91964,1.9392 2.52508,3.54464 4.46429,4.46428 L 202.5,382.54077 c 2.58692,1.06079 5.42892,1.49327 8.21429,1.25 1.76415,-0.15408 3.54693,-0.59494 5,-1.60714 1.04358,-0.72695 1.88201,-1.72764 2.49618,-2.84133 0.61417,-1.11369 1.00968,-2.33908 1.25382,-3.58724 0.47096,-2.40773 0.35158,-5.02855 -0.89286,-7.14286 -0.55518,-0.94326 -1.31976,-1.75455 -2.18803,-2.42092 -0.86828,-0.66638 -1.83965,-1.18367 -2.81197,-1.68622 l -31.78571,-16.42857 c -1.63299,-1.04322 -3.60184,-1.55131 -5.53572,-1.42857 z"
       style="fill:#ff0000;fill-opacity:1;fill-rule:evenodd;stroke:#ff0000;stroke-width:1px;stroke-linecap:butt;stroke-linejoin:miter;stroke-opacity:1" />
    <path
       id="path4246-8"
       d="m 519.33951,532.69538 c -2.51857,0.15985 -4.8937,1.36566 -6.78571,3.03571 -1.63071,1.43941 -2.96528,3.2682 -3.57143,5.35714 -0.62947,2.16931 -0.43217,4.56623 0.53571,6.60715 0.91964,1.9392 2.52508,3.54464 4.46429,4.46428 l 31.60714,16.42857 c 2.58692,1.06079 5.42892,1.49327 8.21429,1.25 1.76415,-0.15408 3.54693,-0.59494 5,-1.60714 1.04358,-0.72695 1.88201,-1.72764 2.49618,-2.84133 0.61417,-1.11369 1.00968,-2.33908 1.25382,-3.58724 0.47096,-2.40773 0.35158,-5.02855 -0.89286,-7.14286 -0.55518,-0.94326 -1.31976,-1.75455 -2.18803,-2.42092 -0.86828,-0.66638 -1.83965,-1.18367 -2.81197,-1.68622 l -31.78571,-16.42857 c -1.63299,-1.04322 -3.60184,-1.55131 -5.53572,-1.42857 z"
       style="fill:#00ff00;fill-opacity:1;fill-rule:evenodd;stroke:#00ff00;stroke-width:1px;stroke-linecap:butt;stroke-linejoin:miter;stroke-opacity:1" />
    <path
       id="path4268"
       d="m 533.27556,581.8138 -27.20413,-19.80874 c -3.72029,-3.75356 -6.45441,-8.47612 -7.85714,-13.57143 -1.47115,-5.34381 -1.47115,-11.08476 0,-16.42857 l -66.23731,-41.38525 5.22716,-10 66.72444,42.09954 c 4.04565,-2.63992 8.75651,-4.25153 13.57142,-4.64286 5.93557,-0.48241 12.00969,0.90957 17.14286,3.92857 l 23.92857,15"
       style="fill:none;fill-rule:evenodd;stroke:#000000;stroke-width:5;stroke-linecap:butt;stroke-linejoin:miter;stroke-miterlimit:4;stroke-dasharray:none;stroke-opacity:1" />
    <path
       id="path4272"
       d="m 408.12036,515.77262 76.0663,112.79888 10.74971,-7.11344 -77.85197,-111.52862"
       style="fill:none;fill-rule:evenodd;stroke:#000000;stroke-width:5.05035448;stroke-linecap:butt;stroke-linejoin:miter;stroke-miterlimit:4;stroke-dasharray:none;stroke-opacity:1" />
    <path
       id="path4276"
       d="m 483.86307,627.59305 -38.3858,-42.93147 c -7.28299,4.85317 -15.08655,8.92459 -23.23351,12.12182 -8.4571,3.31894 -17.28369,5.69533 -26.26396,7.07107 l -15.15229,-76.77159 26.26397,-10.6066 38.38579,68.1853"
       style="fill:none;fill-rule:evenodd;stroke:#000000;stroke-width:5;stroke-linecap:butt;stroke-linejoin:miter;stroke-miterlimit:4;stroke-dasharray:none;stroke-opacity:1" />
    <path
       id="path4304"
       d="m 461.13464,572.03467 c 8.045,-4.67765 15.26084,-10.77675 21.2132,-17.93021 4.19897,-5.04626 7.77134,-10.61339 10.60912,-16.53312 l -60.61167,-46.85395"
       style="fill:none;fill-rule:evenodd;stroke:#000000;stroke-width:5;stroke-linecap:butt;stroke-linejoin:miter;stroke-miterlimit:4;stroke-dasharray:none;stroke-opacity:1" />
    <path
       id="path4308"
       d="m 494.21713,537.68948 c -0.43278,2.24199 -0.51829,4.55067 -0.25254,6.81853 0.72875,6.21897 4.21655,12.06339 9.34392,15.65737 l 29.54697,21.71827"
       style="fill:none;fill-rule:evenodd;stroke:#000000;stroke-width:5;stroke-linecap:butt;stroke-linejoin:miter;stroke-miterlimit:4;stroke-dasharray:none;stroke-opacity:1" />
    <path
       id="path4312"
       d="m 501.78572,521.29078 c 3.93902,-6.66099 7.17688,-13.73633 9.64285,-21.07143 2.79662,-8.31862 4.59919,-16.97094 5.35715,-25.71428 l -72.14286,-18.75001 1.25,-7.94643 69.46429,7.05358 c 0.44807,-8.90672 -0.64435,-17.8889 -3.21429,-26.42857 -1.80174,-5.98702 -4.3258,-11.7563 -7.5,-17.14287 l -63.21429,12.14286 -5,-12.14285 61.42857,-17.5 c -3.10935,-6.8837 -7.07841,-13.37854 -11.78571,-19.28572 -5.05232,-6.34015 -10.95493,-12.00184 -17.5,-16.78572 l -46.78571,34.28572 -8.92858,-8.21428 42.85715,-37.5 c -7.16873,-5.23051 -14.8332,-9.78129 -22.85715,-13.57143 -6.68425,-3.15733 -13.61757,-5.78721 -20.71428,-7.85715 l -19.28572,48.21429 -12.14285,-2.85714 17.85714,-49.28572 c -8.19556,-1.91551 -16.58644,-2.99434 -25,-3.21428 -8.85231,-0.23141 -17.72917,0.48833 -26.42857,2.14285 l 7.5,48.21429 -9.28572,1.78571 -8.92857,-48.57143 c -9.29014,1.99577 -18.3914,4.86985 -27.14286,8.57143 -7.16675,3.0313 -14.09895,6.61692 -20.71428,10.71429 l 31.78571,39.64286 -8.21428,6.07143 -35.71429,-37.14286 c -5.81273,4.0945 -11.31044,8.63609 -16.42857,13.57143 -6.33011,6.10404 -12.07877,12.8108 -17.14286,20 l 51.42857,23.21428 -5.35714,10 -55.35714,-18.57143 c -2.55791,5.59112 -4.82392,11.31578 -6.78572,17.14286 -2.74787,8.16195 -4.89836,16.52495 -6.42857,25.00001 l 61.07143,-10e-6 0,11.78572 -63.21428,7.5 c -1.20967,7.06606 -1.57022,14.27708 -1.07143,21.42856 0.56871,8.15396 2.25606,16.22914 4.99999,23.92858 l 63.57144,-30 4.64285,8.92857 -60.35714,40 c 3.19556,7.2205 7.02454,14.16053 11.42857,20.71429 4.63166,6.89249 9.89935,13.35738 15.71429,19.28571 L 305,503.79078 l 8.57143,7.5 -45,62.85714 c 6.06616,4.90483 12.52164,9.32802 19.28571,13.21428 8.60882,4.94615 17.71781,9.02122 27.14286,12.14286 l 20.35714,-76.07143 10.71429,2.5 -18.36222,77.5 c 9.27136,2.40677 18.79367,3.84565 28.36222,4.28572 9.06524,0.41692 18.17147,-0.0624 27.14286,-1.42858 L 371.78571,528.07649 380,526.64792"
       style="fill:none;fill-rule:evenodd;stroke:#000000;stroke-width:5;stroke-linecap:butt;stroke-linejoin:miter;stroke-miterlimit:4;stroke-dasharray:none;stroke-opacity:1" />
    <path
       id="path4320"
       d="m 516.42857,474.86221 56.07143,2.14285 0,0"
       style="fill:none;fill-rule:evenodd;stroke:#000000;stroke-width:5;stroke-linecap:butt;stroke-linejoin:miter;stroke-miterlimit:4;stroke-dasharray:none;stroke-opacity:1" />
    <path
       id="path4324"
       d="m 444.28571,454.8622 129.64287,18.92858"
       style="fill:none;fill-rule:evenodd;stroke:#000000;stroke-width:5;stroke-linecap:butt;stroke-linejoin:miter;stroke-miterlimit:4;stroke-dasharray:none;stroke-opacity:1" />
    <path
       id="path4332"
       d="m 172.85715,389.14792 c 6.47567,2.41749 13.18296,4.21408 19.99999,5.35714 4.36451,0.73183 8.81519,1.19641 13.21429,0.71429 7.12813,-0.78121 13.94799,-4.1268 18.92857,-9.28572 l 64.28571,28.92857 4.64286,-8.57142 -63.21429,-28.92858 c 1.26064,-4.17573 1.13336,-8.75783 -0.35714,-12.85714 -1.47316,-4.0516 -4.26911,-7.61009 -7.85714,-10 L 200,343.79078"
       style="fill:none;fill-rule:evenodd;stroke:#000000;stroke-width:5;stroke-linecap:butt;stroke-linejoin:miter;stroke-miterlimit:4;stroke-dasharray:none;stroke-opacity:1" />
    <path
       id="path4336"
       d="m 174.28571,390.93363 27.85715,10.35715 c 5.68767,0.34519 11.44548,-0.51236 16.78571,-2.5 2.74954,-1.02338 5.38871,-2.34297 7.85714,-3.92857 l 5.71429,2.14285"
       style="fill:none;fill-rule:evenodd;stroke:#000000;stroke-width:5;stroke-linecap:butt;stroke-linejoin:miter;stroke-miterlimit:4;stroke-dasharray:none;stroke-opacity:1" />
    <ellipse
       ry="264.6759"
       rx="270.65018"
       cy="484.50507"
       cx="372.14288"
       id="path4158-2-20"
       style="fill:none;fill-opacity:1;fill-rule:nonzero;stroke:#000000;stroke-width:6.97606134;stroke-linecap:round;stroke-linejoin:round;stroke-miterlimit:4;stroke-dasharray:none;stroke-opacity:1" />
    <path
       id="path4355"
       d="M 407.09148,660.92809 396.48487,605.3697"
       style="fill:none;fill-rule:evenodd;stroke:#000000;stroke-width:5;stroke-linecap:butt;stroke-linejoin:miter;stroke-miterlimit:4;stroke-dasharray:none;stroke-opacity:1" />
    <path
       id="path4359"
       d="m 383.35289,605.87478 11.11168,58.08377 -16.16244,-56.56854"
       style="fill:none;fill-rule:evenodd;stroke:#000000;stroke-width:5;stroke-linecap:butt;stroke-linejoin:miter;stroke-miterlimit:4;stroke-dasharray:none;stroke-opacity:1" />
    <path
       id="path4363"
       d="m 311.12698,659.91794 16.66752,-53.53808 0.50508,-5.05076 -17.1726,58.58884 z"
       style="fill:none;fill-rule:evenodd;stroke:#000000;stroke-width:5;stroke-linecap:butt;stroke-linejoin:miter;stroke-miterlimit:4;stroke-dasharray:none;stroke-opacity:1" />
    <path
       id="path4367"
       d="m 300.52038,655.87733 14.14214,-55.55839"
       style="fill:none;fill-rule:evenodd;stroke:#000000;stroke-width:5;stroke-linecap:butt;stroke-linejoin:miter;stroke-miterlimit:4;stroke-dasharray:none;stroke-opacity:1" />
    <path
       id="path4371"
       d="m 268.70058,574.56005 -40.4061,42.42641 82.8325,-105.56094"
       style="fill:none;fill-rule:evenodd;stroke:#000000;stroke-width:5;stroke-linecap:butt;stroke-linejoin:miter;stroke-miterlimit:4;stroke-dasharray:none;stroke-opacity:1" />
    <path
       id="path4375"
       d="m 220.21325,610.92554 35.86042,-46.46701"
       style="fill:none;fill-rule:evenodd;stroke:#000000;stroke-width:5;stroke-linecap:butt;stroke-linejoin:miter;stroke-miterlimit:4;stroke-dasharray:none;stroke-opacity:1" />
    <path
       id="path4379"
       d="M 230.81986,522.5372 174.25131,544.25547 287.3884,482.13109"
       style="fill:none;fill-rule:evenodd;stroke:#000000;stroke-width:5;stroke-linecap:butt;stroke-linejoin:miter;stroke-miterlimit:4;stroke-dasharray:none;stroke-opacity:1" />
    <path
       id="path4383"
       d="m 170.2107,534.15395 54.54824,-31.31473"
       style="fill:none;fill-rule:evenodd;stroke:#000000;stroke-width:5;stroke-linecap:butt;stroke-linejoin:miter;stroke-miterlimit:4;stroke-dasharray:none;stroke-opacity:1" />
    <path
       id="path4387"
       d="m 280.31734,449.30113 -121.97593,5.55585 58.84139,4.04061"
       style="fill:none;fill-rule:evenodd;stroke:#000000;stroke-width:5;stroke-linecap:butt;stroke-linejoin:miter;stroke-miterlimit:4;stroke-dasharray:none;stroke-opacity:1" />
    <path
       id="path4395"
       d="m 280.82241,442.23007 -120.71323,4.04061"
       style="fill:none;fill-rule:evenodd;stroke:#000000;stroke-width:5;stroke-linecap:butt;stroke-linejoin:miter;stroke-miterlimit:4;stroke-dasharray:none;stroke-opacity:1" />
    <path
       id="path4401"
       d="m 441.42857,420.93363 117.85714,-35 L 505,411.64792"
       style="fill:none;fill-rule:evenodd;stroke:#000000;stroke-width:5;stroke-linecap:butt;stroke-linejoin:miter;stroke-miterlimit:4;stroke-dasharray:none;stroke-opacity:1" />
    <path
       id="path4405"
       d="m 420,389.50506 89.28571,-77.14286 -40.71428,45"
       style="fill:none;fill-rule:evenodd;stroke:#000000;stroke-width:5;stroke-linecap:butt;stroke-linejoin:miter;stroke-miterlimit:4;stroke-dasharray:none;stroke-opacity:1" />
    <path
       id="path4409"
       d="M 497.85714,393.79078 555,378.32903"
       style="fill:none;fill-rule:evenodd;stroke:#000000;stroke-width:5;stroke-linecap:butt;stroke-linejoin:miter;stroke-miterlimit:4;stroke-dasharray:none;stroke-opacity:1" />
    <path
       id="path4413"
       d="M 455.71429,345.93363 502.14286,307.3622"
       style="fill:none;fill-rule:evenodd;stroke:#000000;stroke-width:5;stroke-linecap:butt;stroke-linejoin:miter;stroke-miterlimit:4;stroke-dasharray:none;stroke-opacity:1" />
    <path
       id="path4417"
       d="m 390.71429,373.79078 36.42857,-104.28572 -15.29587,55.12998"
       style="fill:none;fill-rule:evenodd;stroke:#000000;stroke-width:5;stroke-linecap:butt;stroke-linejoin:miter;stroke-miterlimit:4;stroke-dasharray:none;stroke-opacity:1" />
    <path
       id="path4421"
       d="M 381.42857,370.21935 418.57143,267.3622"
       style="fill:none;fill-rule:evenodd;stroke:#000000;stroke-width:5;stroke-linecap:butt;stroke-linejoin:miter;stroke-miterlimit:4;stroke-dasharray:none;stroke-opacity:1" />
    <path
       id="path4425"
       d="m 346.89032,319.12997 -7.6046,-54.6249"
       style="fill:none;fill-rule:evenodd;stroke:#000000;stroke-width:5;stroke-linecap:butt;stroke-linejoin:miter;stroke-miterlimit:4;stroke-dasharray:none;stroke-opacity:1" />
    <path
       id="path4429"
       d="m 336.42858,320.21936 -8.57143,-54.28573"
       style="fill:none;fill-rule:evenodd;stroke:#000000;stroke-width:5;stroke-linecap:butt;stroke-linejoin:miter;stroke-miterlimit:4;stroke-dasharray:none;stroke-opacity:1" />
    <path
       id="path4433"
       d="M 288.57143,340.21935 247.85715,298.07649"
       style="fill:none;fill-rule:evenodd;stroke:#000000;stroke-width:5;stroke-linecap:butt;stroke-linejoin:miter;stroke-miterlimit:4;stroke-dasharray:none;stroke-opacity:1" />
    <path
       id="path4437"
       d="m 313.57143,385.21935 -70.71429,-80.71428 31.42857,43.57142"
       style="fill:none;fill-rule:evenodd;stroke:#000000;stroke-width:5;stroke-linecap:butt;stroke-linejoin:miter;stroke-miterlimit:4;stroke-dasharray:none;stroke-opacity:1" />
    <path
       id="path4471"
       d="m 55,676.64792 c 28.943376,67.13746 80.48692,124.29466 144.28571,160 59.54,33.32189 129.04734,47.85624 197.14286,43.57143 96.8274,-6.09272 190.71498,-50.76786 256.42857,-122.14286 45.99976,-49.96277 78.60005,-113.7534 84.28572,-181.42857 1.71933,-20.46473 0.99833,-41.13339 -2.14286,-61.42857"
       style="fill:none;fill-rule:evenodd;stroke:#000000;stroke-width:5;stroke-linecap:butt;stroke-linejoin:miter;stroke-miterlimit:4;stroke-dasharray:none;stroke-opacity:1" />
    <path
       id="path4485"
       d="m 735.37134,559.57411 c -2.61357,10.04225 -3.68585,20.72924 -6.42289,30.85515 -15.89277,66.21222 -51.23813,127.72286 -100.9655,174.32063 -54.42865,52.58161 -126.09214,86.63745 -200.85659,97.39956 -78.54381,11.45596 -160.6957,-2.51332 -230.46042,-40.55269 -32.02905,-17.18595 -61.35101,-39.29915 -86.73848,-65.2939 -3.53349,-3.25777 -14.379234,-16.03793 -18.206483,-18.90466 0.276766,2.47945 10.978333,13.76893 12.351533,16.00543 37.93952,46.78064 88.50489,83.3015 145.23716,103.70955 34.75927,12.76413 71.61823,19.68872 108.57405,21.3466 25.6924,-0.0668 51.56031,-0.078 76.89424,-4.92688 101.32468,-17.24474 195.66367,-76.48232 252.1473,-162.78796 29.23375,-44.73741 48.31863,-97.34211 48.64558,-151.10805 -0.0492,-0.0507 -0.13008,-0.0764 -0.1995,-0.0628 z"
       style="fill:#000000;fill-opacity:1;fill-rule:nonzero;stroke:none;stroke-width:5;stroke-linecap:round;stroke-linejoin:round;stroke-miterlimit:4;stroke-dasharray:none;stroke-opacity:1" />
    <path
       id="path4487"
       d="m 314.28457,514.037 c -13.94653,19.80938 -30.68427,38.89219 -43.90648,59.17268 2.72552,4.31394 10.15922,6.61883 14.23014,9.53268 9.23515,5.26275 18.65763,10.79954 28.89369,13.71791 6.12454,-21.95381 13.57693,-43.77173 19.10452,-66.00161 0.24096,-2.11754 1.74166,-5.46697 1.40069,-7.53081 -6.15785,-2.74592 -14.02375,-5.56066 -19.72256,-8.89085 z"
       style="fill:#000000;fill-opacity:1;fill-rule:nonzero;stroke:none;stroke-width:5;stroke-linecap:round;stroke-linejoin:round;stroke-miterlimit:4;stroke-dasharray:none;stroke-opacity:1" />
    <path
       id="path4489"
       d="m 347.95784,527.81769 c -4.70485,18.03441 -8.71232,36.68125 -13.14642,54.94434 -1.19728,6.24785 -3.46238,12.70353 -4.07736,18.86426 15.62048,4.47363 32.28078,4.7523 48.37054,3.125 3.21821,-0.25791 0.14168,-4.6809 0.69037,-6.52359 -3.25563,-22.95076 -6.4268,-46.07151 -10.11559,-68.86146 -7.21504,-0.52232 -14.60178,-0.26569 -21.72154,-1.54855 z"
       style="fill:#000000;fill-opacity:1;fill-rule:nonzero;stroke:none;stroke-width:5;stroke-linecap:round;stroke-linejoin:round;stroke-miterlimit:4;stroke-dasharray:none;stroke-opacity:1" />
    <path
       id="path4491"
       d="m 380.61792,529.06496 c 4.01802,24.32825 11.98094,48.06071 17.06229,72.19163 15.38472,-2.17274 31.84025,-9.25899 45.32665,-16.95179 0.88042,-3.26246 -2.05846,-6.63693 -3.04273,-9.6313 -6.53455,-11.81368 -23.47235,-45.25285 -31.75072,-57.07468 -8.74222,3.12397 -23.31931,9.19153 -27.59549,11.46614 z"
       style="fill:#000000;fill-opacity:1;fill-rule:nonzero;stroke:none;stroke-width:5;stroke-linecap:round;stroke-linejoin:round;stroke-miterlimit:4;stroke-dasharray:none;stroke-opacity:1" />
    <path
       id="path4493"
       d="m 433.64153,491.8395 c -7.17603,7.68258 -6.80021,9.84538 -15.26699,16.82029 12.95329,18.56656 29.78244,42.30487 43.00266,60.68134 10.89757,-6.70236 20.42914,-16.45561 26.86658,-27.65525 4.52952,-4.3123 0.40333,-11.53457 -2.22587,-14.25046 -16.88109,-12.82633 -35.21025,-23.26979 -52.37638,-35.59592 z"
       style="fill:#000000;fill-opacity:1;fill-rule:nonzero;stroke:none;stroke-width:5;stroke-linecap:round;stroke-linejoin:round;stroke-miterlimit:4;stroke-dasharray:none;stroke-opacity:1" />
    <path
       id="path4495"
       d="m 445.73954,456.79769 c -2.5672,6.84537 -3.8142,16.25052 -5.59839,23.12938 20.28173,12.61145 40.32286,25.89003 60.81613,37.99665 7.03335,-12.19371 12.83058,-28.80908 14.43791,-42.83791 -16.77276,-6.27699 -56.4147,-14.88451 -69.65565,-18.28812 z"
       style="fill:#000000;fill-opacity:1;fill-rule:nonzero;stroke:none;stroke-width:5;stroke-linecap:round;stroke-linejoin:round;stroke-miterlimit:4;stroke-dasharray:none;stroke-opacity:1" />
    <path
       id="path4497"
       d="m 442.16673,423.8935 c 1.35897,7.32544 3.26345,12.63972 4.49367,21.48139 22.06441,2.75495 46.50888,5.60743 66.42578,6.89035 0.31872,-12.3861 -3.07926,-29.57727 -8.89932,-40.63941 -18.02605,2.25466 -43.05521,8.37944 -62.02013,12.26767 z"
       style="fill:#000000;fill-opacity:1;fill-rule:nonzero;stroke:none;stroke-width:5;stroke-linecap:round;stroke-linejoin:round;stroke-miterlimit:4;stroke-dasharray:none;stroke-opacity:1" />
    <path
       id="path4499"
       d="m 467.59076,359.65486 c -14.4351,10.37932 -31.92959,20.86588 -43.63417,32.16806 3.1489,4.90749 8.1691,12.20959 13.41643,18.70989 18.17402,-5.15447 40.87269,-13.26339 58.82161,-18.92753 -6.3459,-11.70523 -17.70901,-25.6423 -28.60387,-31.95042 z"
       style="fill:#000000;fill-opacity:1;fill-rule:nonzero;stroke:none;stroke-width:5;stroke-linecap:round;stroke-linejoin:round;stroke-miterlimit:4;stroke-dasharray:none;stroke-opacity:1" />
    <path
       id="path4501"
       d="m 392.4985,372.34333 c 5.58991,2.55837 15.24729,8.08317 20.98402,10.18993 13.29326,-12.57794 26.88035,-23.49625 40.12424,-36.33806 -11.39073,-7.88322 -27.00386,-16.60885 -40.45511,-20.18995 -6.31599,12.62228 -12.17448,19.7224 -20.65315,46.33808 z"
       style="fill:#000000;fill-opacity:1;fill-rule:nonzero;stroke:none;stroke-width:5;stroke-linecap:round;stroke-linejoin:round;stroke-miterlimit:4;stroke-dasharray:none;stroke-opacity:1" />
    <path
       id="path4503"
       d="m 349.65982,320.43754 c 1.47961,15.51152 2.78396,32.55475 5.00541,47.18782 9.83746,-0.13932 19.7327,1.10945 26.61543,1.15543 4.51516,-10.22519 13.43433,-37.47478 15.78038,-47.52715 -14.79132,-2.76762 -32.06394,-2.75991 -47.40122,-0.8161 z"
       style="fill:#000000;fill-opacity:1;fill-rule:nonzero;stroke:none;stroke-width:5;stroke-linecap:round;stroke-linejoin:round;stroke-miterlimit:4;stroke-dasharray:none;stroke-opacity:1" />
    <path
       id="path4505"
       d="m 291.11317,340.70845 c 7.65423,13.05053 27.5443,34.79802 30.40357,38.06365 6.84336,-3.63512 16.13107,-7.24686 23.19494,-10.13546 -2.34785,-14.70389 -5.81507,-30.81551 -8.84076,-45.28055 -14.29912,2.8197 -33.48368,11.68485 -44.75775,17.35236 z"
       style="fill:#000000;fill-opacity:1;fill-rule:nonzero;stroke:none;stroke-width:5;stroke-linecap:round;stroke-linejoin:round;stroke-miterlimit:4;stroke-dasharray:none;stroke-opacity:1" />
    <path
       id="path4507"
       d="m 275.14104,350.90065 c -14.2898,11.19379 -21.42576,18.62652 -29.41961,32.17568 11.93965,5.28412 35.38577,14.93117 47.42614,19.80693 5.00779,-5.72382 11.92845,-13.57028 17.71648,-18.59673 -16.31681,-17.17969 -27.27433,-26.37214 -35.72301,-33.38588 z"
       style="fill:#000000;fill-opacity:1;fill-rule:nonzero;stroke:none;stroke-width:5;stroke-linecap:round;stroke-linejoin:round;stroke-miterlimit:4;stroke-dasharray:none;stroke-opacity:1" />
    <path
       id="path4509"
       d="m 233.99007,398.91826 c -5.11238,10.1932 -11.09877,28.70955 -12.7024,41.45148 19.84329,-0.12511 41.32485,-0.53526 58.66927,-1.0967 1.03728,-6.72429 4.48918,-17.37624 6.40778,-23.75322 -16.78327,-5.52259 -35.46803,-11.49988 -52.37465,-16.60156 z"
       style="fill:#000000;fill-opacity:1;fill-rule:nonzero;stroke:none;stroke-width:5;stroke-linecap:round;stroke-linejoin:round;stroke-miterlimit:4;stroke-dasharray:none;stroke-opacity:1" />
    <path
       id="path4511"
       d="m 281.33991,453.00872 c -19.22952,2.01023 -42.06632,3.90277 -62.88282,5.54668 -0.94325,7.16082 0.54514,31.915 5.75211,44.6197 19.72396,-9.28663 41.69767,-20.23291 61.1721,-29.8258 -1.82676,-6.70416 -2.04093,-11.273 -4.04139,-20.34058 z"
       style="fill:#000000;fill-opacity:1;fill-rule:nonzero;stroke:none;stroke-width:5;stroke-linecap:round;stroke-linejoin:round;stroke-miterlimit:4;stroke-dasharray:none;stroke-opacity:1" />
    <path
       id="path4513"
       d="m 288.7181,485.36217 c -19.07397,12.00875 -38.03116,24.82357 -56.57784,37.44004 6.57539,12.66653 14.56276,26.55734 24.82846,36.55845 15.86545,-19.34882 31.2026,-37.12805 45.20926,-55.74079 -7.19764,-9.73867 -7.11004,-10.28922 -13.45988,-18.2577 z"
       style="fill:#000000;fill-opacity:1;fill-rule:nonzero;stroke:none;stroke-width:5;stroke-linecap:round;stroke-linejoin:round;stroke-miterlimit:4;stroke-dasharray:none;stroke-opacity:1" />
    <path
       id="path4515"
       d="m 294.50631,656.96376 c -6.78822,21.35133 -16.23342,51.30396 -20.6098,70.75917 10.17171,5.35395 22.99453,11.06749 43.53075,14.1578 3.63542,-24.78422 5.60333,-54.21629 7.34838,-76.48491 -13.20904,-3.95816 -21.36574,-5.84624 -30.26933,-8.43206 z"
       style="fill:#000000;fill-opacity:1;fill-rule:nonzero;stroke:none;stroke-width:5;stroke-linecap:round;stroke-linejoin:round;stroke-miterlimit:4;stroke-dasharray:none;stroke-opacity:1" />
    <path
       id="path4517"
       d="m 343.54372,667.92755 c -1.57004,24.1649 -3.92589,53.0892 -4.81582,77.28149 15.85774,1.51366 30.98084,1.97316 45.745,0.39464 -3.47915,-25.26759 -5.00487,-53.32905 -8.64531,-78.53123 -8.36303,0.58028 -20.34614,0.5715 -32.28387,0.8551 z"
       style="fill:#000000;fill-opacity:1;fill-rule:nonzero;stroke:none;stroke-width:5;stroke-linecap:round;stroke-linejoin:round;stroke-miterlimit:4;stroke-dasharray:none;stroke-opacity:1" />
    <path
       id="path4519"
       d="m 428.07114,658.71178 c -10.14752,2.71847 -23.4223,6.0577 -33.60103,8.09866 2.85645,25.53397 5.80682,53.90131 9.27179,79.34739 14.85612,-2.50911 38.59145,-8.66061 47.44021,-11.53074 -4.29606,-8.07849 -18.42545,-63.5036 -23.11097,-75.91531 z"
       style="fill:#000000;fill-opacity:1;fill-rule:nonzero;stroke:none;stroke-width:5;stroke-linecap:round;stroke-linejoin:round;stroke-miterlimit:4;stroke-dasharray:none;stroke-opacity:1" />
    <path
       id="path4521"
       d="m 472.93133,639.20009 c -9.98258,5.30863 -18.51521,10.05047 -28.95903,14.83413 7.32717,22.72839 16.96658,52.0947 24.72214,74.52426 13.9876,-5.56795 25.42876,-9.9581 42.22394,-20.82742 -8.04222,-15.61172 -28.00003,-54.75019 -37.98705,-68.53097 z"
       style="fill:#000000;fill-opacity:1;fill-rule:nonzero;stroke:none;stroke-width:5;stroke-linecap:round;stroke-linejoin:round;stroke-miterlimit:4;stroke-dasharray:none;stroke-opacity:1" />
    <path
       id="path4523"
       d="m 514.8635,607.65841 c -9.08208,6.51281 -16.96306,16.79577 -26.91543,22.13054 12.36067,22.74261 25.22794,45.60604 38.33705,68.07478 13.49241,-9.34077 27.42468,-19.64917 37.32701,-31.28348 -14.85,-19.65774 -40.18725,-50.64184 -48.74863,-58.92184 z"
       style="fill:#000000;fill-opacity:1;fill-rule:nonzero;stroke:none;stroke-width:5;stroke-linecap:round;stroke-linejoin:round;stroke-miterlimit:4;stroke-dasharray:none;stroke-opacity:1" />
    <path
       id="path4525"
       d="m 534.71704,585.60787 c -2.79338,3.43653 -6.09679,6.68801 -8.59514,10.23159 16.86574,18.88218 32.58106,40.64826 49.99578,59.00412 9.149,-10.37114 20.38478,-26.07336 28.10853,-37.00209 -9.6737,-8.4625 -21.8093,-17.70468 -31.70643,-25.84411 -9.1956,5.54294 -21.26021,4.42516 -29.90235,-1.69782 -2.66309,-1.47684 -5.19857,-3.4868 -7.90039,-4.69169 z"
       style="fill:#000000;fill-opacity:1;fill-rule:nonzero;stroke:none;stroke-width:5;stroke-linecap:round;stroke-linejoin:round;stroke-miterlimit:4;stroke-dasharray:none;stroke-opacity:1" />
    <path
       id="path4527"
       d="m 565.71174,524.39677 c -1.77412,3.37628 -3.55181,8.70715 -4.2313,12.40948 7.69057,6.14667 16.96773,11.8012 19.9414,21.83734 1.68157,5.65006 0.73729,11.71472 1.28488,17.50558 9.88922,7.72364 19.88304,19.08934 30.38512,25.89173 3.24446,-7.34369 15.57549,-34.56452 18.79792,-44.13376 -21.39039,-8.98292 -47.58868,-23.99548 -66.17802,-33.51037 z"
       style="fill:#000000;fill-opacity:1;fill-rule:nonzero;stroke:none;stroke-width:5;stroke-linecap:round;stroke-linejoin:round;stroke-miterlimit:4;stroke-dasharray:none;stroke-opacity:1" />
    <path
       id="path4529"
       d="m 573.97183,475.11242 c -1.34313,11.74432 -2.18778,21.84682 -3.8504,30.72564 20.31902,10.99051 44.04072,22.79724 64.80085,32.8628 4.51014,-15.33234 6.70705,-33.18111 6.90577,-47.92973 -21.06238,-4.70878 -46.69444,-11.48628 -67.85622,-15.65871 z"
       style="fill:#000000;fill-opacity:1;fill-rule:nonzero;stroke:none;stroke-width:5;stroke-linecap:round;stroke-linejoin:round;stroke-miterlimit:4;stroke-dasharray:none;stroke-opacity:1" />
    <path
       id="path4531"
       d="m 571.16632,425.4571 c 2.2929,11.77565 3.34934,24.76918 4.49928,34.82854 20.72124,4.41841 44.68678,9.88087 65.44398,13.77793 -1.25374,-15.21538 -4.61141,-32.43366 -7.66486,-45.76876 -20.09185,-0.33383 -42.18527,-2.5484 -62.2784,-2.83771 z"
       style="fill:#000000;fill-opacity:1;fill-rule:nonzero;stroke:none;stroke-width:5;stroke-linecap:round;stroke-linejoin:round;stroke-miterlimit:4;stroke-dasharray:none;stroke-opacity:1" />
    <path
       id="path4533"
       d="m 614.03643,370.15997 c -17.29503,2.43111 -38.44918,5.82997 -55.47056,9.64154 3.10789,9.87495 6.88383,19.17888 10.25274,28.17801 19.97396,0.38909 42.50722,2.83298 62.43051,3.13204 -4.66629,-16.54464 -10.85385,-29.88849 -17.21269,-40.95159 z"
       style="fill:#000000;fill-opacity:1;fill-rule:nonzero;stroke:none;stroke-width:5;stroke-linecap:round;stroke-linejoin:round;stroke-miterlimit:4;stroke-dasharray:none;stroke-opacity:1" />
    <path
       id="path4535"
       d="m 579.06707,317.61388 c -14.52695,5.26531 -31.98751,11.73115 -46.24193,17.54198 5.04237,8.62231 13.1502,19.88889 18.09176,28.60663 16.70779,-1.92258 44.25329,-5.89511 55.46478,-8.28699 -6.06354,-11.27308 -17.90806,-27.95855 -27.31461,-37.86162 z"
       style="fill:#000000;fill-opacity:1;fill-rule:nonzero;stroke:none;stroke-width:5;stroke-linecap:round;stroke-linejoin:round;stroke-miterlimit:4;stroke-dasharray:none;stroke-opacity:1" />
    <path
       id="path4537"
       d="m 533.26623,273.30296 c -15.21457,10.25755 -25.67198,18.13955 -36.71757,27.15145 8.56364,8.15618 18.17679,14.97364 26.83323,22.72332 13.49917,-6.22203 28.79648,-14.93799 42.17656,-21.41204 -13.2298,-12.63732 -19.0215,-18.87151 -32.29222,-28.46273 z"
       style="fill:#000000;fill-opacity:1;fill-rule:nonzero;stroke:none;stroke-width:5;stroke-linecap:round;stroke-linejoin:round;stroke-miterlimit:4;stroke-dasharray:none;stroke-opacity:1" />
    <path
       id="path4539"
       d="m 474.9457,241.06098 c -6.74652,10.89784 -16.78766,24.31671 -21.90438,34.85108 10.12793,4.94515 21.00554,13.08601 30.87628,18.42652 10.92221,-8.71615 24.89396,-20.54637 35.1217,-30.00169 -13.16345,-7.84042 -30.31549,-17.2175 -44.0936,-23.27591 z"
       style="fill:#000000;fill-opacity:1;fill-rule:nonzero;stroke:none;stroke-width:5;stroke-linecap:round;stroke-linejoin:round;stroke-miterlimit:4;stroke-dasharray:none;stroke-opacity:1" />
    <path
       id="path4541"
       d="m 413.16002,223.92794 c -3.26901,11.25153 -6.71782,26.39541 -8.85469,37.38727 10.4314,2.76301 27.12896,7.96629 37.25761,10.21082 6.98184,-10.40038 14.04352,-24.37583 19.95678,-35.38261 -14.98264,-5.02732 -33.72538,-10.78676 -48.3597,-12.21548 z"
       style="fill:#000000;fill-opacity:1;fill-rule:nonzero;stroke:none;stroke-width:5;stroke-linecap:round;stroke-linejoin:round;stroke-miterlimit:4;stroke-dasharray:none;stroke-opacity:1" />
    <path
       id="path4543"
       d="m 349.99866,222.82459 c 0.69458,12.03377 1.42678,26.5702 2.51959,38.45588 11.53355,-0.16358 25.7306,0.57788 37.1794,0.16886 2.7677,-11.71632 5.95302,-26.67241 7.7901,-38.49087 -16.01984,-0.37395 -32.79449,-2.03967 -47.48909,-0.13387 z"
       style="fill:#000000;fill-opacity:1;fill-rule:nonzero;stroke:none;stroke-width:5;stroke-linecap:round;stroke-linejoin:round;stroke-miterlimit:4;stroke-dasharray:none;stroke-opacity:1" />
    <path
       id="path4545"
       d="m 286.07051,233.3843 c 2.32051,8.99719 13.70491,29.74776 18.42882,36.50529 10.22145,-2.53813 23.95785,-5.67528 33.7753,-7.46936 -0.99555,-11.75301 -0.11564,-27.52636 -1.78427,-39.15638 -18.55613,1.90487 -38.90551,6.35762 -50.41985,10.12045 z"
       style="fill:#000000;fill-opacity:1;fill-rule:nonzero;stroke:none;stroke-width:5;stroke-linecap:round;stroke-linejoin:round;stroke-miterlimit:4;stroke-dasharray:none;stroke-opacity:1" />
    <path
       id="path4547"
       d="m 231.38962,260.90492 c 8.80912,9.06639 18.23404,21.84644 27.60198,30.21096 9.67749,-5.38845 21.31949,-11.83626 31.51107,-15.89434 -5.34493,-10.57794 -11.25507,-25.74124 -17.13741,-35.94909 -11.77489,4.45808 -26.32766,10.21742 -41.97564,21.63247 z"
       style="fill:#000000;fill-opacity:1;fill-rule:nonzero;stroke:none;stroke-width:5;stroke-linecap:round;stroke-linejoin:round;stroke-miterlimit:4;stroke-dasharray:none;stroke-opacity:1" />
    <path
       id="path4549"
       d="m 215.99766,269.11483 c -6.91464,3.34636 -27.20904,22.01306 -35.56135,30.90555 10.88475,6.12936 27.46511,16.3874 38.49254,22.03582 8.03097,-7.43603 18.8664,-18.55568 27.72487,-24.87207 -9.6888,-9.69166 -21.41431,-20.98322 -30.65606,-28.0693 z"
       style="fill:#000000;fill-opacity:1;fill-rule:nonzero;stroke:none;stroke-width:5;stroke-linecap:round;stroke-linejoin:round;stroke-miterlimit:4;stroke-dasharray:none;stroke-opacity:1" />
    <path
       id="path4551"
       d="m 169.45879,311.0946 c -8.51207,7.88343 -22.11429,26.45889 -28.63721,38.50337 5.607,1.02704 16.05917,3.98762 21.77085,2.94374 6.42842,-5.76747 12.32793,-9.09463 20.88155,-12.03462 5.29203,-0.13266 10.62013,0.39029 15.81338,1.11222 1.97208,-3.23443 6.3291,-5.7799 9.76734,-9.80469 -11.55354,-6.57527 -27.73975,-14.83142 -39.59591,-20.72002 z"
       style="fill:#000000;fill-opacity:1;fill-rule:nonzero;stroke:none;stroke-width:5;stroke-linecap:round;stroke-linejoin:round;stroke-miterlimit:4;stroke-dasharray:none;stroke-opacity:1" />
    <path
       id="path4553"
       d="m 133.54913,361.48651 c -10.3484,18.22287 -15.82449,30.95661 -19.62632,44.75221 15.78679,-0.21448 37.24283,-2.35064 52.95957,-2.78205 1.49102,-4.49775 3.43646,-8.99362 4.65123,-13.49191 -8.10225,-4.743 -16.55811,-13.46765 -16.72268,-23.75009 -5.6515,-2.18718 -12.83063,-2.70923 -21.2618,-4.72816 z"
       style="fill:#000000;fill-opacity:1;fill-rule:nonzero;stroke:none;stroke-width:5;stroke-linecap:round;stroke-linejoin:round;stroke-miterlimit:4;stroke-dasharray:none;stroke-opacity:1" />
    <path
       id="path4555"
       d="m 111.10223,421.66256 c -3.23065,14.2222 -7.43023,29.93262 -8.02608,44.52859 15.33,-2.13857 43.6641,-9.26149 54.42573,-12.61864 1.37263,-11.57233 2.10301,-19.62268 3.46656,-32.19594 -16.63286,0.007 -34.37469,-0.47877 -49.86621,0.28599 z"
       style="fill:#000000;fill-opacity:1;fill-rule:nonzero;stroke:none;stroke-width:5;stroke-linecap:round;stroke-linejoin:round;stroke-miterlimit:4;stroke-dasharray:none;stroke-opacity:1" />
    <path
       id="path4557"
       d="m 156.87409,468.17883 c -16.77823,3.81681 -38.03777,10.29246 -54.50801,14.96531 0.56278,14.16283 1.67703,31.66703 4.4044,45.52767 17.48298,-7.68839 37.93513,-20.41017 53.22298,-29.15356 -1.29827,-10.90405 -2.36321,-20.25019 -3.11937,-31.33942 z"
       style="fill:#000000;fill-opacity:1;fill-rule:nonzero;stroke:none;stroke-width:5;stroke-linecap:round;stroke-linejoin:round;stroke-miterlimit:4;stroke-dasharray:none;stroke-opacity:1" />
    <path
       id="path4559"
       d="m 161.93537,517.34599 c -16.22869,8.22275 -35.90494,18.46216 -51.63959,27.47371 3.33251,13.77317 9.16941,31.892 14.93592,44.54678 15.77674,-12.5117 34.26947,-27.86292 49.36553,-41.13447 -4.23285,-12.08016 -9.11966,-25.45877 -12.66186,-30.88602 z"
       style="fill:#000000;fill-opacity:1;fill-rule:nonzero;stroke:none;stroke-width:5;stroke-linecap:round;stroke-linejoin:round;stroke-miterlimit:4;stroke-dasharray:none;stroke-opacity:1" />
    <path
       id="path4561"
       d="m 132.94085,605.55636 c 7.41816,12.94646 14.13483,26.7943 23.26183,36.64503 13.85299,-15.7572 30.34053,-35.87037 43.49363,-52.09164 -6.70467,-7.48936 -12.68256,-16.51329 -17.61306,-25.02933 -14.72534,13.0927 -36.06654,28.15077 -49.1424,40.47594 z"
       style="fill:#000000;fill-opacity:1;fill-rule:nonzero;stroke:none;stroke-width:5;stroke-linecap:round;stroke-linejoin:round;stroke-miterlimit:4;stroke-dasharray:none;stroke-opacity:1" />
    <path
       id="path4563"
       d="m 209.42276,603.12021 c -13.15167,16.45327 -28.09633,34.96666 -40.38389,52.11093 9.9324,12.55378 20.56086,21.80332 34.52739,32.01612 10.74191,-19.84824 20.55342,-42.39907 30.04182,-62.88109 -8.54173,-8.35849 -16.79782,-14.63004 -24.18532,-21.24596 z"
       style="fill:#000000;fill-opacity:1;fill-rule:nonzero;stroke:none;stroke-width:5;stroke-linecap:round;stroke-linejoin:round;stroke-miterlimit:4;stroke-dasharray:none;stroke-opacity:1" />
    <path
       id="path4573"
       d="m 248.85063,636.05277 c -9.29829,22.56625 -20.40255,42.97654 -29.38626,63.29526 11.15895,7.54204 25.43385,16.99778 37.73185,22.52677 7.25496,-21.94385 14.49406,-51.5501 19.52009,-72.00373 -9.51646,-4.30291 -19.41852,-9.27176 -27.86568,-13.8183 z"
       style="fill:#000000;fill-opacity:1;fill-rule:nonzero;stroke:none;stroke-width:5;stroke-linecap:round;stroke-linejoin:round;stroke-miterlimit:4;stroke-dasharray:none;stroke-opacity:1" />
    <path
       id="path4575"
       d="m 433.62615,558.62603 c 4.36772,8.47798 9.1617,16.78659 13.9262,25.04142 3.71345,3.96294 5.34284,9.07768 9.32486,12.74116 0.366,-1.08717 4.4172,1.80619 4.08953,0.72419 -7.55345,-11.36358 -19.11086,-27.56878 -27.02321,-38.68046 l 0.94939,-1.34378 -3.79207,-2.77592 z"
       style="fill:#000000;fill-opacity:1;fill-rule:nonzero;stroke:none;stroke-width:5;stroke-linecap:round;stroke-linejoin:round;stroke-miterlimit:4;stroke-dasharray:none;stroke-opacity:1" />
    <path
       id="path4577"
       d="m 475.53812,521.07302 c 6.21547,5.25479 12.74032,10.2063 19.29966,15.03836 0.91946,-0.29867 1.70136,-2.82429 1.9721,-3.59525 -3.96339,-3.50261 -10.08899,-4.89885 -14.49268,-7.82573 -2.19104,-1.29168 -4.3065,-2.75581 -6.57889,-3.88943 z"
       style="fill:#000000;fill-opacity:1;fill-rule:nonzero;stroke:none;stroke-width:5;stroke-linecap:round;stroke-linejoin:round;stroke-miterlimit:4;stroke-dasharray:none;stroke-opacity:1" />
    <path
       id="path4579"
       d="m 476.34233,460.89841 c -0.20065,0.95043 6.47431,3.22009 6.47431,3.22009 10.79937,2.92528 24.90137,5.87066 35.7506,8.55365 12.48795,0.41111 28.01668,2.08223 40.50845,1.93261 0.27585,-0.96527 -5.73065,-1.6114 -5.73065,-1.6114 -23.31288,-3.33612 -53.6694,-8.92351 -77.00271,-12.09495 z"
       style="fill:#000000;fill-opacity:1;fill-rule:nonzero;stroke:none;stroke-width:5;stroke-linecap:round;stroke-linejoin:round;stroke-miterlimit:4;stroke-dasharray:none;stroke-opacity:1" />
    <path
       id="path4581"
       d="m 528.04649,397.64598 c -19.82449,5.72876 -44.68963,11.79164 -64.36159,18.01203 0.47468,0.94943 4.35799,0.63076 5.35803,0.7953 11.15316,-2.09271 26.14403,-4.09299 37.2321,-6.42425 7.49897,-3.61992 14.67423,-8.18944 22.02537,-12.08174 0.12334,-0.20911 -0.0984,-0.34377 -0.25391,-0.30134 z"
       style="fill:#000000;fill-opacity:1;fill-rule:nonzero;stroke:none;stroke-width:5;stroke-linecap:round;stroke-linejoin:round;stroke-miterlimit:4;stroke-dasharray:none;stroke-opacity:1" />
    <path
       id="path4583"
       d="m 479.14373,341.55432 c -12.33492,10.38186 -29.61012,23.94068 -41.66976,34.6397 0.0593,1.21264 0,0 5.03751,-0.63901 7.4188,-5.46085 17.04823,-13.76186 24.25689,-19.46849 4.21791,-4.78555 8.70782,-9.3718 12.69692,-14.33758 -0.7844,-0.57234 1.66707,0.44087 1.9834,0.54625 l 0.72552,-3.77137 z"
       style="fill:#000000;fill-opacity:1;fill-rule:nonzero;stroke:none;stroke-width:5;stroke-linecap:round;stroke-linejoin:round;stroke-miterlimit:4;stroke-dasharray:none;stroke-opacity:1" />
    <path
       id="path4585"
       d="m 225.43465,388.67974 c -5.84807,5.00356 -15.01433,7.3717 -22.82315,7.49219 -1.1548,0.33539 -4.56662,-0.32853 -5.39219,0.61454 1.67055,1.33162 5.25956,3.03611 7.28646,3.17159 7.07866,-0.0742 16.00825,-3.95813 22.03728,-7.44671 8.29766,2.71386 19.72957,8.00558 28.14977,10.2918 0.62192,-0.74379 4.54568,0.50507 -0.57992,-2.86893 -8.04998,-3.54349 -20.60165,-7.89634 -28.67825,-11.25448 z"
       style="fill:#000000;fill-opacity:1;fill-rule:nonzero;stroke:none;stroke-width:5;stroke-linecap:round;stroke-linejoin:round;stroke-miterlimit:4;stroke-dasharray:none;stroke-opacity:1" />
    <path
       id="path4589"
       d="m 240.91177,453.31562 c -12.94662,0.47176 -25.90228,1.00543 -38.82533,1.88895 -0.41198,0.889 1.48716,0.50771 2.00835,0.65425 6.38743,0.36794 12.81524,1.40964 19.18096,0.20304 6.12401,-0.75631 12.27795,-1.37665 18.36635,-2.35701 0.26095,-0.61903 -0.49484,-0.3047 -0.73033,-0.38923 z"
       style="fill:#000000;fill-opacity:1;fill-rule:nonzero;stroke:none;stroke-width:5;stroke-linecap:round;stroke-linejoin:round;stroke-miterlimit:4;stroke-dasharray:none;stroke-opacity:1" />
    <path
       id="path4591"
       d="m 259.7316,499.24671 c -16.67007,8.84933 -37.80293,20.65649 -54.25062,29.91101 -0.67825,1.06511 -2.27285,1.76777 3.25992,0.34504 6.36882,-2.44146 15.13969,-6.44277 21.35597,-9.20326 9.70488,-6.53632 21.73483,-13.21673 31.1911,-20.06989 2.48425,-2.75069 0.5811,-2.30633 0.46394,-2.24561 z"
       style="fill:#000000;fill-opacity:1;fill-rule:nonzero;stroke:none;stroke-width:5;stroke-linecap:round;stroke-linejoin:round;stroke-miterlimit:4;stroke-dasharray:none;stroke-opacity:1" />
    <path
       id="path4603"
       d="m 269.55637,568.15715 c -0.12583,0.11033 -0.21294,0.2581 -0.32205,0.38448 -2.27235,2.88838 -4.54308,5.77805 -6.80685,8.67315 -0.0805,0.0801 -0.10328,0.21628 -0.0203,0.30311 0.0866,0.0951 0.24408,0.0746 0.32049,-0.0233 0.72565,-0.74843 1.44129,-1.50658 2.15782,-2.26375 0.15372,-0.16832 0.31725,-0.32859 0.46085,-0.50565 0.0134,-0.0272 0.0192,-0.0337 0.0421,-0.0695 0.44432,-0.64112 0.90707,-1.26932 1.35848,-1.90547 1.02801,-1.43857 2.06079,-2.87383 3.08197,-4.31722 0.0751,-0.12115 -0.0152,-0.30037 -0.16009,-0.29973 -0.0407,-0.008 -0.0751,0.0113 -0.11248,0.0238 z"
       style="fill:#000000;fill-opacity:1;fill-rule:nonzero;stroke:none;stroke-width:5;stroke-linecap:round;stroke-linejoin:round;stroke-miterlimit:4;stroke-dasharray:none;stroke-opacity:1" />
  </g>
</svg>
