<?xml version="1.0" encoding="UTF-8" standalone="no"?>
<svg
   xmlns:dc="http://purl.org/dc/elements/1.1/"
   xmlns:cc="http://creativecommons.org/ns#"
   xmlns:rdf="http://www.w3.org/1999/02/22-rdf-syntax-ns#"
   xmlns:svg="http://www.w3.org/2000/svg"
   xmlns="http://www.w3.org/2000/svg"
   version="1.1"
   id="svg2"
   viewBox="0 0 764.0603 716.28789"
   height="202.15236mm"
   width="215.6348mm">
  <defs
     id="defs4" />
  <metadata
     id="metadata7">
    <rdf:RDF>
      <cc:Work
         rdf:about="">
        <dc:format>image/svg+xml</dc:format>
        <dc:type
           rdf:resource="http://purl.org/dc/dcmitype/StillImage" />
        <dc:title></dc:title>
      </cc:Work>
    </rdf:RDF>
  </metadata>
  <g
     transform="translate(39.761544,-128.47974)"
     id="layer1">
    <path
       id="path4161"
       d="m 76.008341,131.37145 331.330039,39.90103 c 15.84517,0.34501 31.39055,7.92813 41.41625,20.20305 9.12884,11.17686 13.59076,26.04992 12.12183,40.40611 l -78.7919,565.68542 c -2.53915,13.48394 -10.75323,25.80508 -22.22335,33.33504 -12.09424,7.93969 -26.9661,10.40289 -41.41626,11.11167 -26.34886,1.29241 -52.63753,-2.61397 -78.7919,-6.06091 -26.2521,-3.45982 -52.56348,-6.46654 -78.79189,-10.10153 -38.21039,-5.29557 -76.299158,-11.93786 -113.525774,-22.05004 -25.324974,-6.87924 -50.2156328,-15.35692 -74.474644,-25.36585 -5.411683,-2.67265 -9.303939,-8.2068 -9.989486,-14.20341 -0.441813,-3.86462 0.327156,-7.75502 1.086204,-11.57004 0.759049,-3.81501 1.436869,-7.64617 1.963241,-11.50019 L -1.773405,504.62282 c 0.2422017,-1.77337 0.5066045,-3.55259 1.0443667,-5.25972 0.53776222,-1.70713 1.34536092,-3.3334 2.4263879,-4.75989 2.1620539,-2.85297 5.3529842,-4.75123 8.6510754,-6.14283 9.494245,-4.006 20.001657,-4.85438 30.304576,-5.05076 60.393769,-1.15114 119.069829,18.25208 178.796999,27.27412 26.60866,4.01935 53.47885,5.97902 80.30713,8.08122 5.72086,0.44827 11.50538,0.90102 17.1726,0 1.57534,-0.25046 3.14592,-0.60873 4.6019,-1.26031 1.45597,-0.65159 2.79962,-1.61221 3.73186,-2.90657 1.14833,-1.59438 1.60538,-3.58741 1.78073,-5.54443 0.22148,-2.47183 0.002,-5.08129 -1.27567,-7.20875 -1.29092,-2.1492 -3.50756,-3.56574 -5.74927,-4.68836 -7.69446,-3.85329 -16.39024,-5.09489 -24.9073,-6.3246 -25.78523,-3.72291 -51.51573,-7.81727 -77.21475,-12.09491 -57.2059,-9.52201 -114.45893,-20.00183 -169.668084,-37.75382 -5.547557,-1.78377 -11.097611,-3.65094 -16.274817,-6.32559 -5.177205,-2.67465 -10.002569,-6.2046 -13.524684,-10.847 -4.135764,-5.45124 -6.315931,-12.3551 -6.060915,-19.1929 l 34.345187,-249.0026 c 0.04703,-6.58295 2.841612,-13.10365 7.576144,-17.67767 5.648944,-5.45744 13.991996,-7.97976 21.71828,-6.566 z"
       style="fill:none;fill-rule:evenodd;stroke:#000000;stroke-width:5;stroke-linecap:butt;stroke-linejoin:miter;stroke-miterlimit:4;stroke-dasharray:none;stroke-opacity:1" />
    <path
       id="path4168"
       d="M 152.48205,466.14284 148.7014,497.153"
       style="fill:none;fill-rule:evenodd;stroke:#000000;stroke-width:1px;stroke-linecap:butt;stroke-linejoin:miter;stroke-opacity:1" />
    <path
       id="path4172"
       d="m -33.842828,738.67235 c -1.443502,4.28894 -1.721074,8.96406 -0.79521,13.39367 0.925864,4.42962 3.052747,8.60217 6.093272,11.95387 4.938384,5.44379 11.931608,8.48647 18.7721682,11.1752 52.9484848,20.81179 109.7562618,29.66165 166.2194278,36.63183 18.72436,2.31146 37.62304,4.43532 56.42103,2.82905 18.79799,-1.60627 37.69421,-7.19992 52.49699,-18.89702 13.04005,-10.30421 22.40614,-25.16475 26.07674,-41.3742 15.22099,-80.01136 28.21915,-160.44556 38.97444,-241.17857 9.21397,-69.16331 16.78197,-138.54346 26.60683,-207.62263 2.39416,-16.83346 4.92903,-33.81458 3.66142,-50.77012 -1.26761,-16.95555 -6.7024,-34.1482 -18.34351,-46.54102 -7.87776,-8.38645 -18.2007,-14.17102 -29.00017,-18.14132 -10.79946,-3.9703 -22.13928,-6.22945 -33.43266,-8.43203 -70.12607,-13.67686 -140.56417,-25.75377 -211.241035,-36.21814 -3.18652,-0.24451 -6.42747,0.25016 -9.395958,1.43413 -3.634151,1.44946 -6.847645,3.93675 -9.161915,7.09145 -2.314271,3.1547 -3.721929,6.96675 -4.013341,10.86842"
       style="fill:none;fill-rule:evenodd;stroke:#000000;stroke-width:4.84845161;stroke-linecap:butt;stroke-linejoin:miter;stroke-miterlimit:4;stroke-dasharray:none;stroke-opacity:1" />
    <path
       transform="translate(39.642849,137.71935)"
       id="path4176"
       d="m 249.01403,379.3554 c -34.04376,-2.94182 -59.12184,-5.76579 -76.20854,-8.58161 -15.93171,-2.62549 -61.64071,-11.72985 -62.32476,-12.4139 -0.25354,-0.25354 2.84522,-28.1656 3.18986,-28.73265 0.0849,-0.13974 6.70709,1.13513 14.71591,2.83305 24.79047,5.25571 62.45603,11.84336 100.92955,17.65241 20.27881,3.06186 39.90866,6.47116 43.62188,7.57622 11.15336,3.31925 15.32816,8.41294 12.9073,15.74822 -2.26523,6.86369 -10.52718,8.19127 -36.8312,5.91826 z"
       style="fill:#000000;fill-opacity:1;fill-rule:nonzero;stroke:#000000;stroke-width:5.05076265;stroke-linecap:round;stroke-linejoin:round;stroke-miterlimit:4;stroke-dasharray:none;stroke-opacity:1" />
    <path
       id="path4178"
       d="m 400.31282,170.4409 c 10.4705,2.51341 20.28352,7.71681 28.23876,14.97372 6.35256,5.79492 11.58159,13.00469 14.14214,21.2132 3.54166,11.35371 1.78558,23.59686 0,35.35534 -12.21835,80.46091 -24.3402,160.93647 -36.3655,241.42646 l 8.08122,2.02031 -9.44851,66.73134 -8.49438,-1.31128 -33.57489,238.63585 c -2.67057,12.71581 -9.189,24.59721 -18.4786,33.68166 -12.18627,11.91715 -29.12641,18.83182 -46.17116,18.84627"
       style="fill:none;fill-rule:evenodd;stroke:#000000;stroke-width:5;stroke-linecap:butt;stroke-linejoin:miter;stroke-miterlimit:4;stroke-dasharray:none;stroke-opacity:1" />
    <path
       id="path4186"
       d="m 396.44836,550.43107 c 3.11402,-22.31058 5.86294,-44.81025 9.45346,-67.04729 l 8.32341,2.0735 -9.46897,66.15082 z"
       style="fill:none;fill-opacity:1;fill-rule:nonzero;stroke:none;stroke-width:5;stroke-linecap:round;stroke-linejoin:miter;stroke-miterlimit:4;stroke-dasharray:none;stroke-opacity:1" />
    <path
       id="path4188"
       d="m 715.71428,282.71935 c -0.10722,-4.3661 -0.21813,-8.7546 -1.02386,-13.04705 -0.80573,-4.29245 -2.3449,-8.52223 -5.04757,-11.95295 -2.42049,-3.07253 -5.69482,-5.39953 -9.2237,-7.0866 -3.52888,-1.68707 -7.31905,-2.76191 -11.13345,-3.62769 -14.35893,-3.25915 -29.20456,-3.64033 -43.92856,-3.57142 -14.48307,0.0678 -28.96032,0.55726 -43.43817,0.95192 -14.40716,0.39273 -28.81687,0.6916 -43.22792,0.89657 l -16.90535,1.00863 c -7.55784,0.86711 -14.7716,4.474 -19.99999,10 -5.51804,5.83214 -8.76654,13.75848 -8.92857,21.78571 l 3.21428,217.5 c -0.34752,7.47305 2.26306,15.04376 7.14285,20.71429 2.21869,2.57822 4.88669,4.77142 7.85715,6.42857 4.36935,2.43755 9.32142,3.68506 14.29243,4.25236 4.97102,0.5673 9.99077,0.47818 14.99328,0.39049 27.97386,-0.49034 55.95592,-0.91151 83.92858,-0.35714 2.00297,0.0397 4.01719,0.0856 5.98428,0.46505 1.96708,0.37949 3.90289,1.11244 5.44429,2.39211 2.10201,1.74508 3.32234,4.42223 3.57143,7.14284 0.12921,1.41125 0.0126,2.8501 -0.39858,4.20631 -0.41114,1.35621 -1.12067,2.62787 -2.10143,3.65083 -1.45852,1.52128 -3.4567,2.43808 -5.50734,2.92436 -2.05064,0.48628 -4.17217,0.57272 -6.27837,0.64707 -27.48513,0.97025 -55.00193,0.23378 -82.49999,0.71429 -7.29053,0.1274 -14.64698,0.34912 -21.72472,2.10231 -7.07774,1.75318 -13.94125,5.17264 -18.63243,10.75483 -3.45304,4.10889 -5.60383,9.29611 -6.07142,14.64287 l 0.71428,219.99999 c 0.16485,7.75293 2.68528,15.44024 7.14285,21.78572 3.11973,4.44103 7.166,8.22297 11.78572,11.07143 6.0973,3.75952 13.19661,5.87685 20.35714,6.07142 l 127.50001,0 c 8.50944,0.2225 17.06851,-2.46019 23.92857,-7.5 4.89389,-3.59534 8.94002,-8.38927 11.42856,-13.92857 1.8116,-4.03249 2.79036,-8.43692 2.85715,-12.85714 0.19647,-172.87363 -1.82757,-345.74977 -6.07143,-518.57141 z"
       style="fill:none;fill-rule:evenodd;stroke:#000000;stroke-width:5;stroke-linecap:butt;stroke-linejoin:miter;stroke-miterlimit:4;stroke-dasharray:none;stroke-opacity:1" />
    <path
       id="path4192"
       d="m 521.99069,521.29034 0,35.86042 c 3.31701,-3.26421 7.29225,-5.85676 11.61675,-7.57615 6.6934,-2.66125 14.01832,-3.19286 21.21321,-3.53553 30.10669,-1.4339 60.28213,-0.0818 90.40865,-1.01016 1.85064,-0.057 3.72034,-0.12545 5.50763,-0.60886 1.7873,-0.48341 3.51027,-1.42538 4.5939,-2.92667 0.67475,-0.93481 1.07775,-2.06135 1.16188,-3.21117 0.0841,-1.14982 -0.14932,-2.31963 -0.65681,-3.35482 -0.54584,-1.11342 -1.40001,-2.06264 -2.40354,-2.79104 -1.00353,-0.72841 -2.15359,-1.24129 -3.34565,-1.58281 -2.38413,-0.68302 -4.90277,-0.68642 -7.38279,-0.67691 -29.63361,0.11368 -59.27137,1.3404 -88.89342,0.50507 -6.64032,-0.18725 -13.37311,-0.49437 -19.69798,-2.52538 -4.40051,-1.41307 -8.53423,-3.65217 -12.12183,-6.56599 z"
       style="fill:none;fill-rule:evenodd;stroke:#000000;stroke-width:5;stroke-linecap:butt;stroke-linejoin:miter;stroke-miterlimit:4;stroke-dasharray:none;stroke-opacity:1" />
    <path
       id="path4196"
       d="m 518.63899,509.06172 3.3517,12.37656"
       style="fill:none;fill-rule:evenodd;stroke:#000000;stroke-width:5;stroke-linecap:butt;stroke-linejoin:miter;stroke-miterlimit:4;stroke-dasharray:none;stroke-opacity:1" />
    <path
       id="path4198"
       d="m 522.02132,557.18139 -4.84154,14.13688"
       style="fill:none;fill-rule:evenodd;stroke:#000000;stroke-width:5;stroke-linecap:butt;stroke-linejoin:miter;stroke-miterlimit:4;stroke-dasharray:none;stroke-opacity:1" />
    <path
       id="path4200"
       d="m 513.39375,291.87021 c -0.63138,-5.02696 0.13204,-10.22188 2.18296,-14.85466 2.05093,-4.63278 5.38356,-8.69031 9.52952,-11.60235 4.43882,-3.11773 9.682,-4.88222 14.94017,-6.21451 19.85891,-5.03174 40.66608,-4.40851 61.12655,-3.37709 11.13351,0.56124 22.47441,1.27837 32.86392,5.31916 5.19476,2.0204 10.10338,4.87696 14.15635,8.70331 4.05297,3.82635 7.22797,8.64965 8.75837,14.00926 2.00062,7.00634 1.5387,14.44875 1.66499,21.73403 l 8.11065,467.88269 c 0.11547,6.66129 -0.002,13.46259 -2.21434,19.74694 -1.90291,5.40614 -5.21778,10.26857 -9.33214,14.25851 -4.11435,3.98993 -9.0145,7.12458 -14.23237,9.4955 -10.43575,4.74185 -21.98001,6.42155 -33.39017,7.51611 -16.89719,1.62093 -33.89632,2.07201 -50.86658,1.68112 -7.18531,-0.16551 -14.54512,-0.51949 -21.17593,-3.29228 -5.79582,-2.42362 -10.80954,-6.67929 -14.14264,-12.00432 -3.33309,-5.32503 -4.9699,-11.69441 -4.61707,-17.96665"
       style="fill:none;fill-rule:evenodd;stroke:#000000;stroke-width:5;stroke-linecap:butt;stroke-linejoin:miter;stroke-miterlimit:4;stroke-dasharray:none;stroke-opacity:1" />
    <path
       style="fill:none;fill-rule:evenodd;stroke:#000000;stroke-width:5;stroke-linecap:butt;stroke-linejoin:miter;stroke-miterlimit:4;stroke-dasharray:none;stroke-opacity:1"
       d="m 521.99069,521.29034 0,35.86042 c 3.31701,-3.26421 7.29225,-5.85676 11.61675,-7.57615 6.6934,-2.66125 14.01832,-3.19286 21.21321,-3.53553 30.10669,-1.4339 60.28213,-0.0818 90.40865,-1.01016 1.85064,-0.057 3.72034,-0.12545 5.50763,-0.60886 1.7873,-0.48341 3.51027,-1.42538 4.5939,-2.92667 0.67475,-0.93481 1.07775,-2.06135 1.16188,-3.21117 0.0841,-1.14982 -0.14932,-2.31963 -0.65681,-3.35482 -0.54584,-1.11342 -1.40001,-2.06264 -2.40354,-2.79104 -1.00353,-0.72841 -2.15359,-1.24129 -3.34565,-1.58281 -2.38413,-0.68302 -4.90277,-0.68642 -7.38279,-0.67691 -29.63361,0.11368 -59.27137,1.3404 -88.89342,0.50507 -6.64032,-0.18725 -13.37311,-0.49437 -19.69798,-2.52538 -4.40051,-1.41307 -8.53423,-3.65217 -12.12183,-6.56599 z"
       id="path4204" />
    <path
       style="fill:none;fill-rule:evenodd;stroke:#000000;stroke-width:5;stroke-linecap:butt;stroke-linejoin:round;stroke-miterlimit:4;stroke-dasharray:none;stroke-opacity:1"
       d="m 16.325034,428.03212 -7.5761442,57.07361 c 5.2349692,-2.00057 10.6521162,-3.52414 16.1624362,-4.54569 16.621966,-3.08151 33.72879,-1.5579 50.507634,0.50507 25.61339,3.14919 51.0749,7.53329 76.26652,13.13198 l 4.54569,-22.72841 C 130.16602,466.39483 104.22793,460.66823 78.44942,454.29606 61.013134,449.986 43.390805,445.27458 27.941788,436.11333 c -4.060875,-2.40809 -7.946717,-5.11129 -11.616754,-8.08121 z"
       id="path4204-5" />
    <path
       id="path4226"
       d="M 16.439978,428.0298 14.185082,415.65326"
       style="fill:none;fill-rule:evenodd;stroke:#000000;stroke-width:1px;stroke-linecap:butt;stroke-linejoin:miter;stroke-opacity:1" />
    <path
       id="path4228"
       d="M 0.57340457,496.30701 8.833196,484.98613"
       style="fill:none;fill-rule:evenodd;stroke:#000000;stroke-width:1px;stroke-linecap:butt;stroke-linejoin:miter;stroke-opacity:1" />
    <path
       transform="translate(-56.999973,103.89793)"
       id="path4167"
       d="m 704.87924,142.66376 c -35.20477,0.57623 -70.49515,0.52753 -105.61224,3.12319 -8.68335,1.13255 -22.66386,12.41659 -26.298,20.39314 13.04586,-9.25095 35.09393,-17.8572 51.3565,-17.1279 21.63701,0.66365 44.0543,-2.08393 65.03054,4.45888 14.89067,4.82239 29.37709,17.54251 28.22903,34.45961 2.9396,93.53082 3.76497,187.11911 5.66756,280.67633 0.99702,71.30596 2.92953,142.61942 2.76484,213.92948 -2.52351,21.17633 -22.80122,34.5055 -42.30014,38.23388 -28.03575,5.73095 -64.7279,2.59675 -92.28367,0.31131 20.73106,10.81683 23.65815,8.08872 41.80352,8.64411 39.01922,0.0604 79.46682,-1.93294 118.48591,-2.00865 10.41079,-4.83954 21.71249,-13.28191 23.2462,-25.25378 1.13994,-172.08333 -0.84994,-344.18548 -5.2928,-516.21215 -0.98348,-12.1645 1.22648,-28.0612 -11.33611,-35.14177 -16.01514,-8.6178 -35.7521,-8.18697 -53.46114,-8.48568 z"
       style="fill:#000000;fill-opacity:1;fill-rule:nonzero;stroke:#000000;stroke-width:5.05076265;stroke-linecap:round;stroke-linejoin:round;stroke-miterlimit:4;stroke-dasharray:none;stroke-opacity:1" />
    <path
       transform="translate(-56.999973,103.89793)"
       id="path4173"
       d="m 477.72237,69.045359 c 7.93838,9.128325 24.03322,24.398609 25.7648,37.129021 3.11861,19.66549 -3.08572,39.23865 -4.92646,58.75063 -10.02311,70.43264 -21.50991,140.69956 -31.03063,211.17515 1.68732,2.91579 8.51691,1.99576 6.60138,6.90579 -3.22197,22.59878 -5.66749,45.46415 -9.91594,67.82774 -2.60968,1.80256 -8.67855,-2.28351 -8.608,3.01665 -11.44224,78.25646 -21.51348,156.73315 -33.49085,234.89798 -4.83144,18.36543 -27.78617,37.67375 -42.9631,48.28803 22.16498,-2.23924 49.44167,-14.62332 57.86434,-43.74845 25.30227,-172.34035 47.5836,-347.42606 71.14766,-520.01193 2.03647,-18.26596 5.71089,-36.45041 6.46879,-54.80416 -1.08393,-18.719925 -20.03421,-41.687114 -36.91199,-49.426451 z"
       style="fill:#000000;fill-opacity:1;fill-rule:nonzero;stroke:#000000;stroke-width:5.05076265;stroke-linecap:round;stroke-linejoin:round;stroke-miterlimit:4;stroke-dasharray:none;stroke-opacity:1" />
    <path
       id="path4169"
       d="m 63.134645,132.13314 c -6.477957,2.79332 -14.071526,14.43282 -15.504793,21.51704 8.807982,-0.42816 16.877378,-14.15436 26.275034,-9.01563 78.601774,13.10392 157.813504,23.98897 235.190764,43.36476 30.74804,8.40079 50.08073,39.76611 49.66656,70.96923 -2.98324,60.95998 -13.86727,121.33439 -20.67621,181.97128 -13.77823,106.52683 -27.37162,213.33222 -49.77813,318.4161 -8.40357,35.14432 -45.23815,56.0643 -79.33779,56.90523 -49.39812,1.08335 -98.4426,-8.58369 -146.748691,-18.10375 -30.540414,-7.90909 -65.5175833,-16.18014 -91.947604,-34.57237 -1.967202,-3.36523 -6.985501,-10.143 -8.330209,0.19728 6.141318,14.05961 21.883993,17.68531 34.3176421,23.61642 C 83.30111,818.26182 180.99868,826.83145 271.99878,838.225 c 20.23114,1.70895 42.56289,4.89092 60.16147,-10.91355 14.12725,-11.56332 20.84761,-26.54342 25.72121,-46.36838 27.74346,-201.75859 54.69973,-370.49582 80.30328,-560.19664 1.48291,-25.52973 -22.31568,-45.12309 -45.79053,-48.32162 C 291.34091,158.36046 189.865,144.55405 88.466229,133.17459 80.702935,132.44263 70.927606,132.43931 63.134645,132.13314 Z"
       style="fill:#000000;fill-opacity:1;fill-rule:nonzero;stroke:none;stroke-width:5;stroke-linecap:round;stroke-linejoin:round;stroke-miterlimit:4;stroke-dasharray:none;stroke-opacity:1" />
  </g>
</svg>
