<?xml version="1.0" encoding="UTF-8" standalone="no"?>
<svg
   xmlns:dc="http://purl.org/dc/elements/1.1/"
   xmlns:cc="http://creativecommons.org/ns#"
   xmlns:rdf="http://www.w3.org/1999/02/22-rdf-syntax-ns#"
   xmlns:svg="http://www.w3.org/2000/svg"
   xmlns="http://www.w3.org/2000/svg"
   version="1.1"
   id="svg2"
   viewBox="0 0 456.9847 640.27634"
   height="180.70021mm"
   width="128.97124mm">
  <defs
     id="defs4" />
  <metadata
     id="metadata7">
    <rdf:RDF>
      <cc:Work
         rdf:about="">
        <dc:format>image/svg+xml</dc:format>
        <dc:type
           rdf:resource="http://purl.org/dc/dcmitype/StillImage" />
        <dc:title></dc:title>
      </cc:Work>
    </rdf:RDF>
  </metadata>
  <g
     transform="translate(-146.14178,-152.25675)"
     id="layer1">
    <path
       id="path4147"
       d="m 244.28571,165.21935 c -27.99591,12.21621 -48.49827,37.32593 -62.85714,64.28571 -14.43605,27.10468 -23.73256,56.81715 -28.57143,87.14286 -8.23346,51.59992 -3.63147,104.5845 7.14286,155.71429 7.63486,36.23135 18.34408,71.79046 31.42857,106.42856 17.90787,47.40686 40.47808,93.44453 71.42857,133.57144 17.59581,22.81274 38.10762,43.82373 62.85715,58.57142 22.3093,13.29361 48.45794,21.28272 74.28571,18.57143 24.86984,-2.61073 47.70276,-14.79378 68.57143,-28.57143 20.36479,-13.44499 39.68376,-28.74408 55.71428,-47.14285 28.20333,-32.36992 45.15273,-73.06102 57.14286,-114.28572 9.75061,-33.52475 16.547,-68.00194 18.57143,-102.85714 1.52437,-26.24545 0.33063,-52.69023 -4.28571,-78.57143 -4.10906,-23.03717 -10.92136,-45.57497 -20,-67.14286 -12.30058,-29.22218 -28.76851,-56.66802 -48.57143,-81.42857 -25.6731,-32.10032 -57.08322,-59.75736 -92.85715,-80 -27.0125,-15.28499 -56.5277,-26.32772 -87.14285,-31.42857 -18.38192,-3.06265 -37.11301,-3.98288 -55.71429,-2.85714 -16.11837,0.97548 -32.34268,3.54184 -47.14286,10 z"
       style="fill:none;fill-rule:evenodd;stroke:#000000;stroke-width:5;stroke-linecap:butt;stroke-linejoin:miter;stroke-miterlimit:4;stroke-dasharray:none;stroke-opacity:1" />
    <path
       id="path4153"
       d="m 277.14286,182.3622 c -17.20635,8.99805 -31.98995,22.4802 -42.85715,38.57143 -10.70928,15.8574 -17.60465,34.10819 -21.42857,52.85715 -4.77818,23.42775 -4.85036,47.60174 -2.85714,71.42857 3.35299,40.08141 12.52626,79.6713 27.14286,117.14285 22.8393,-25.00764 48.82222,-47.14124 77.14285,-65.71428 23.7344,-15.56533 49.12518,-28.64063 75.71429,-38.57143 18.4434,-6.88844 37.55727,-12.28213 57.14286,-14.28571 20.69763,-2.11734 42.01553,-0.34105 61.42857,7.14285 16.13964,6.22198 30.68044,16.28612 42.85714,28.57143 11.11939,11.21857 20.33706,24.31737 27.14286,38.57143 C 572.46411,388.97356 562.84882,360.60846 550,333.79078 539.23893,311.3306 526.1608,289.88327 510,270.93363 c -20.00395,-23.456 -44.44005,-42.76543 -70,-60 -16.29051,-10.98437 -33.1999,-21.2398 -51.42857,-28.57143 -18.81247,-7.56644 -38.90714,-11.93335 -59.16317,-12.85714 -18.11551,0.0105 -36.21244,4.46225 -52.2654,12.85714 z"
       style="fill:none;fill-rule:evenodd;stroke:#000000;stroke-width:5;stroke-linecap:butt;stroke-linejoin:miter;stroke-miterlimit:4;stroke-dasharray:none;stroke-opacity:1" />
    <path
       id="path4157"
       d="m 245.71428,464.32648 c 1.41826,15.28558 4.2926,30.43572 8.57143,45.17858 4.41696,15.21878 10.32131,29.98232 17.14286,44.28572 11.29765,23.68889 25.22035,46.27864 42.85714,65.71428 16.80648,18.52064 37.45036,34.32103 61.42858,41.42857 14.75232,4.37283 30.36366,5.33977 45.71428,4.28572 17.73564,-1.21781 35.40798,-5.15152 51.42857,-12.85715 17.53913,-8.43602 32.73617,-21.21064 45.71429,-35.71428 13.50829,-15.09613 24.75816,-32.12284 34.28571,-50 9.79367,-18.3765 17.85931,-37.88294 21.42857,-58.39811 2.87562,-16.52828 2.78916,-33.45201 1.42858,-50.17332 -1.09298,-13.43258 -3.00243,-26.79869 -5.71429,-40 -5.73082,-12.87931 -14.03742,-24.60627 -24.28571,-34.28571 C 535.38207,374.03207 523.12593,366.38314 510,360.93363 c -13.58911,-5.64181 -28.15681,-8.95363 -42.85714,-9.58158 -15.37829,-0.65691 -30.77057,1.60687 -45.71429,5.29587 -15.04963,3.71514 -29.72543,8.8745 -43.94651,15.04332 -14.20988,6.16396 -27.96809,13.33309 -41.41063,21.0281 -13.76382,7.87892 -27.22033,16.32279 -40,25.71429 -18.33442,13.47356 -35.2443,28.88433 -50.35715,45.89285 z"
       style="fill:none;fill-rule:evenodd;stroke:#000000;stroke-width:5;stroke-linecap:butt;stroke-linejoin:miter;stroke-miterlimit:4;stroke-dasharray:none;stroke-opacity:1" />
    <path
       id="path4161"
       d="m 189.53332,215.57581 c -6.08637,13.16203 -11.05929,26.83873 -14.84822,40.83612 -2.88174,10.64596 -5.07794,21.46963 -6.8499,32.35544 -6.67999,41.03765 -7.31047,83.08833 -1.42282,124.24713 4.50822,31.51563 12.79082,62.37141 22.06244,92.82787 9.9964,32.83731 21.1683,65.32664 33.90989,97.19934 15.46419,38.68321 33.39515,76.71302 58.02768,110.3102 15.3425,20.92618 33.48016,40.22324 55.63547,53.73027 12.92694,7.88094 27.1532,13.71614 42.00793,16.64051 16.40829,3.23021 33.51432,2.86673 49.77059,-1.05756"
       style="fill:none;fill-rule:evenodd;stroke:#000000;stroke-width:5;stroke-linecap:butt;stroke-linejoin:miter;stroke-miterlimit:4;stroke-dasharray:none;stroke-opacity:1" />
    <path
       id="path4165"
       d="m 352.85714,342.3622 c -0.29625,-1.24626 -0.12081,-2.57077 0.31095,-3.77681 0.43176,-1.20604 1.10927,-2.30834 1.83191,-3.36604 4.88755,-7.15371 11.9361,-12.55515 19.28571,-17.14286 8.51295,-5.31388 17.61225,-9.71466 27.14286,-12.85714 9.46968,-3.12239 19.34064,-4.99356 29.28572,-5.71429 9.06406,-0.65688 18.23211,-0.35673 27.14285,1.42857 8.96493,1.79615 17.59501,5.08176 25.71429,9.28572 4.75883,2.464 9.34969,5.24328 13.82397,8.19262 1.33861,0.88238 2.7073,1.82098 3.55264,3.18328 0.42267,0.68115 0.70145,1.46236 0.72697,2.26359 0.0255,0.80123 -0.21468,1.6213 -0.72898,2.23621 -0.35607,0.42574 -0.83721,0.74557 -1.36759,0.9091 -0.53037,0.16353 -1.10808,0.17016 -1.64207,0.0189 -5.13309,-1.95981 -10.41882,-3.51967 -15.79351,-4.66081 -9.37731,-1.99096 -18.98636,-2.70119 -28.57143,-2.85714 -11.01978,-0.1793 -22.11853,0.37727 -32.85714,2.85714 -8.29577,1.91575 -16.2813,4.95557 -24.28572,7.85715 -6.94384,2.51712 -13.92919,4.93902 -20.71428,7.85714 -5.38288,2.31506 -10.63252,4.93988 -15.71429,7.85714 -1.39098,0.60476 -3.04869,0.56038 -4.40532,-0.11793 -1.35663,-0.67832 -2.38676,-1.97786 -2.73754,-3.4535 z"
       style="fill:#000000;fill-opacity:1;fill-rule:evenodd;stroke:#000000;stroke-width:1px;stroke-linecap:butt;stroke-linejoin:miter;stroke-opacity:1" />
    <path
       id="path4169"
       d="m 572.9438,625.37779 c -7.46335,20.16811 -17.08875,39.53534 -28.65808,57.6628 -11.69109,18.31824 -25.63631,35.62232 -43.57144,47.89304 -15.92737,10.89706 -34.55292,17.47551 -53.57142,20.75019 -23.88599,4.11278 -49.1191,3.0088 -71.42858,-6.46447 -23.89238,-10.14542 -42.88499,-29.056 -59.99999,-48.57143 C 293.84436,671.71067 273.92793,644.97996 257.38796,616.22949 235.5604,578.28791 219.77863,537.1281 207.14286,495.21935 194.48119,453.22471 184.88456,410.23701 180,366.64792 c -4.12283,-36.79156 -4.86353,-74.17125 1.07142,-110.71428 2.72755,-16.79424 6.95345,-33.60389 15.40651,-48.36979 4.49868,-7.85834 10.15759,-15.05121 16.73635,-21.27307"
       style="fill:none;fill-rule:evenodd;stroke:#000000;stroke-width:5;stroke-linecap:butt;stroke-linejoin:miter;stroke-miterlimit:4;stroke-dasharray:none;stroke-opacity:1" />
    <path
       id="path4146"
       d="m 236.33931,464.50505 10.26784,2e-5"
       style="fill:none;fill-rule:evenodd;stroke:#000000;stroke-width:5;stroke-linecap:butt;stroke-linejoin:miter;stroke-miterlimit:4;stroke-dasharray:none;stroke-opacity:1" />
    <path
       id="path4150"
       d="m 569.64286,418.6122 9.46429,-3.03571"
       style="fill:none;fill-rule:evenodd;stroke:#000000;stroke-width:5;stroke-linecap:butt;stroke-linejoin:miter;stroke-miterlimit:4;stroke-dasharray:none;stroke-opacity:1" />
    <path
       transform="translate(39.642849,137.71935)"
       id="path4176"
       d="m 132.4513,116.02221 c -8.05033,21.35092 -16.26772,63.28094 -19.07255,85.85704 -2.84402,41.27574 -0.0684,82.85518 8.35436,123.36969 13.6581,67.41644 36.38063,133.28178 69.15996,193.83152 25.24175,44.93073 57.15992,88.91925 102.86192,114.75135 5.3396,2.58661 44.77663,15.29541 50.45151,16.3855 -13.53293,-8.20282 -61.4795,-25.09413 -73.06244,-36.16228 -42.13409,-38.75299 -68.19863,-91.23261 -89.55249,-143.49465 -21.04444,-54.14791 -40.06943,-109.33175 -52.68251,-166.1073 -4.14378,-46.09434 -2.95764,-90.75424 -2.08736,-136.31035 2.7674,-21.52026 4.89514,-40.68546 5.6296,-52.12052 z"
       style="fill:#000000;fill-opacity:1;fill-rule:nonzero;stroke:#000000;stroke-width:5.05076265;stroke-linecap:round;stroke-linejoin:round;stroke-miterlimit:4;stroke-dasharray:none;stroke-opacity:1" />
    <path
       transform="translate(39.642849,137.71935)"
       id="path4178"
       d="m 140.40625,108.15209 c -15.55064,65.09034 -17.41744,153.30425 -0.11842,217.86889 16.79946,63.06655 37.92912,125.19172 65.6639,184.32769 20.63909,42.81404 47.56343,84.29872 86.52194,112.56295 24.33193,16.49284 54.44746,25.56483 83.83608,20.98756 20.7585,-2.85951 38.35536,-15.69025 55.63008,-26.66966 4.95025,-3.7614 25.18964,-15.09537 28.61572,-19.40795 -20.05899,7.69111 -54.27472,20.99539 -75.92099,21.18049 -30.03565,1.38931 -60.10687,-9.40374 -82.42715,-29.55419 C 272.9645,563.52542 248.90107,532.2196 227.25372,499.83677 187.11092,437.87486 164.43736,366.48183 148.30335,294.965 136.76392,241.66494 130.80325,186.74078 136.25184,132.28132 c -0.0544,-1.52431 4.65757,-22.80087 4.15441,-24.12923 z"
       style="fill:#000000;fill-opacity:1;fill-rule:nonzero;stroke:#000000;stroke-width:5.05076265;stroke-linecap:round;stroke-linejoin:round;stroke-miterlimit:4;stroke-dasharray:none;stroke-opacity:1" />
    <path
       transform="translate(39.642849,137.71935)"
       id="path4182"
       d="m 284.98433,30.289456 c -32.45293,0.802309 -63.64338,17.167895 -84.10515,42.174688 -21.0539,24.571567 -30.64981,57.267826 -32.9226,89.103716 -2.98361,56.02615 8.03499,112.38624 28.26849,164.52464 0.93451,3.6955 4.9433,3.42778 7.92733,3.17449 7.11541,53.15486 29.02305,104.35863 62.60973,146.15644 21.47266,25.36628 49.40829,47.68741 83.19302,52.73905 23.01113,3.64748 46.99316,0.99918 69.09501,-6.14299 21.97086,-6.93062 41.10485,-20.57466 56.47814,-37.54612 26.99491,-27.69975 46.32269,-62.58762 57.61816,-99.46056 8.51802,-30.66694 5.94689,-63.22199 1.17587,-94.30326 -0.4709,-3.50973 -3.65574,-9.8888 2.47409,-9.91411 4.06025,-0.0823 4.62261,-3.69322 2.67819,-6.75227 C 527.16628,223.13993 506.28769,173.1894 472.09895,133.01202 442.57314,99.098875 405.96546,71.865141 366.3373,50.869905 341.3878,37.605632 313.3011,30.096 284.98433,30.289456 Z m 5.81233,4.397714 c 44.95765,-0.255914 85.52076,23.405578 120.98165,48.787734 37.34695,26.076876 69.65442,60.049196 90.34936,100.878596 13.17802,24.92176 23.95278,51.50124 30.36968,78.88265 -11.04962,-13.35918 -21.99083,-27.33141 -36.62554,-37.121 -31.47358,-23.46564 -73.54737,-27.29348 -110.84072,-18.18014 -69.29781,16.90192 -131.36521,56.89992 -181.22968,107.22701 -2.61716,2.334 -6.79677,8.36641 -7.34945,1.0444 C 177.67812,263.79293 167.36099,207.38284 172.84948,151.67802 176.85381,110.89498 197.37617,69.800803 233.874,49.029495 251.10231,38.729267 270.68556,33.555874 290.79666,34.68717 Z m 134.30688,172.6769 c 35.81739,-0.66537 70.6572,16.68748 93.06227,44.38752 6.1902,7.95035 12.99582,16.25335 16.57282,25.59908 -4.7887,2.0502 -5.50073,-5.63469 -7.9016,-8.03243 -19.68676,-32.70646 -55.70533,-54.30682 -93.69406,-56.98058 -44.54855,-3.05663 -87.53589,14.31355 -126.19633,34.73339 -34.55448,18.64231 -67.09175,41.39546 -94.37959,69.77619 -3.75224,2.41781 -6.75898,8.34278 -11.53389,8.14041 -1.57158,-2.05439 3.8812,-4.43035 4.69366,-6.37659 47.12452,-48.84682 106.60397,-86.5477 172.12841,-104.97497 15.4077,-4.0166 31.30355,-6.39387 47.24831,-6.27202 z m -1.59809,8.51921 c 42.79556,-0.32555 86.39105,24.15321 104.13844,63.80929 7.66182,28.06648 7.32522,57.60066 5.84271,86.43023 -6.24091,36.32828 -24.0303,69.86402 -45.79054,99.2501 -17.51422,21.36854 -37.90017,41.97713 -64.62072,51.22017 -35.9313,13.07189 -78.818,13.6112 -112.16852,-6.86373 -41.89473,-26.4903 -68.36542,-70.87491 -86.49218,-115.86586 -8.44072,-21.63856 -14.65652,-44.33269 -16.14271,-67.59143 27.42442,-28.93841 59.22636,-53.62775 94.35124,-72.53498 37.05494,-20.45463 77.80654,-38.03174 120.88228,-37.85379 z"
       style="fill:#000000;fill-opacity:1;fill-rule:nonzero;stroke:#000000;stroke-width:5.05076265;stroke-linecap:round;stroke-linejoin:round;stroke-miterlimit:4;stroke-dasharray:none;stroke-opacity:1" />
  </g>
</svg>
