<?xml version="1.0" encoding="UTF-8" standalone="no"?>
<svg
   xmlns:dc="http://purl.org/dc/elements/1.1/"
   xmlns:cc="http://creativecommons.org/ns#"
   xmlns:rdf="http://www.w3.org/1999/02/22-rdf-syntax-ns#"
   xmlns:svg="http://www.w3.org/2000/svg"
   xmlns="http://www.w3.org/2000/svg"
   viewBox="0 0 155 150.40094"
   height="150.40094"
   width="155"
   version="1.1"
   id="svg4136">
  <metadata
     id="metadata4142">
    <rdf:RDF>
      <cc:Work
         rdf:about="">
        <dc:format>image/svg+xml</dc:format>
        <dc:type
           rdf:resource="http://purl.org/dc/dcmitype/StillImage" />
        <dc:title></dc:title>
      </cc:Work>
    </rdf:RDF>
  </metadata>
  <defs
     id="defs4140" />
  <rect
     y="2.4626222"
     x="2.4626222"
     height="145.47569"
     width="150.07475"
     id="rect4146"
     style="fill:none;fill-opacity:1;fill-rule:nonzero;stroke:#000000;stroke-width:4.92524433;stroke-linecap:round;stroke-linejoin:round;stroke-miterlimit:4;stroke-dasharray:none;stroke-opacity:1" />
  <path
     id="path4150"
     d="m 77.5,3.2075471 0,8.1367929 c 13.228596,-0.109071 26.47229,1.868495 39.09198,5.837264 11.18136,3.51643 21.87102,8.592524 31.66274,15.035377 l -7.95991,12.912736 C 131.7704,39.26401 122.38028,34.658663 112.52359,31.509435 101.40374,27.956625 89.703698,26.262327 78.03066,26.379717 67.56672,26.484947 57.119251,28.041493 47.075472,30.978774 35.713913,34.301436 24.871574,39.393142 15.058962,46.014151 l 9.198113,13.79717 c 8.491192,-6.081801 18.059454,-10.655309 28.125,-13.443396 8.335835,-2.308969 16.998947,-3.396069 25.648585,-3.360849 10.634184,0.0433 21.273534,1.788369 31.30896,5.306604 7.63711,2.677428 14.91542,6.376244 21.58019,10.966981 l -8.49056,12.558962 C 117.21707,68.416836 111.63072,65.564237 105.80189,63.349057 97.055086,60.024937 87.74106,58.142055 78.384434,58.042453 69.80441,57.951118 61.217285,59.360164 53.089623,62.110849 45.92115,64.536911 39.106006,68.004265 32.924528,72.370283 l 9.551887,14.327831 c 4.387555,-3.515226 9.375211,-6.279469 14.681604,-8.136793 7.28603,-2.550229 15.107696,-3.374515 22.818396,-3.007075 6.935395,0.330494 13.845059,1.619136 20.341985,4.068396 4.22877,1.594193 8.27348,3.67603 12.0283,6.191038 l -7.95991,12.558962 c -2.82528,-2.053655 -5.928393,-3.724563 -9.198111,-4.95283 -4.904965,-1.842546 -10.15172,-2.678611 -15.389151,-2.830189 -4.879631,-0.141223 -9.794926,0.307998 -14.504717,1.591981 -5.170892,1.409689 -10.065169,3.826616 -14.32783,7.075472 l 9.375,14.504714 c 2.312762,-2.16957 5.114993,-3.81436 8.136793,-4.77594 3.407957,-1.08446 7.044617,-1.29669 10.613207,-1.06132 3.757656,0.24784 7.506251,0.99157 10.966981,2.47641 1.676513,0.71931 3.2795,1.60986 4.775944,2.6533 l -8.31368,12.73585 c -1.310967,-1.21074 -2.894701,-2.12443 -4.599056,-2.6533 -1.538578,-0.47743 -3.168827,-0.64172 -4.775944,-0.53066 -1.706322,0.11791 -3.389274,0.54486 -4.95283,1.23821 -1.486429,0.65915 -2.865895,1.5588 -4.068396,2.6533 l 9.375,12.55896 0,8.13679 75,-0.17688 L 151.96934,3.5613207 77.5,3.0306603"
     style="fill:#000000;fill-opacity:1;fill-rule:evenodd;stroke:none;stroke-width:1px;stroke-linecap:butt;stroke-linejoin:miter;stroke-opacity:1" />
</svg>
