<?xml version="1.0" encoding="UTF-8" standalone="no"?>
<!-- Created with Inkscape (http://www.inkscape.org/) -->

<svg
   xmlns:dc="http://purl.org/dc/elements/1.1/"
   xmlns:cc="http://creativecommons.org/ns#"
   xmlns:rdf="http://www.w3.org/1999/02/22-rdf-syntax-ns#"
   xmlns:svg="http://www.w3.org/2000/svg"
   xmlns="http://www.w3.org/2000/svg"
   xmlns:sodipodi="http://sodipodi.sourceforge.net/DTD/sodipodi-0.dtd"
   xmlns:inkscape="http://www.inkscape.org/namespaces/inkscape"
   width="1000"
   height="1000"
   viewBox="0 0 999.99999 999.99999"
   id="svg4144"
   version="1.1"
   inkscape:version="0.91 r13725"
   sodipodi:docname="alarm.svg">
  <defs
     id="defs4146" />
  <sodipodi:namedview
     id="base"
     pagecolor="#ffffff"
     bordercolor="#666666"
     borderopacity="1.0"
     inkscape:pageopacity="0.0"
     inkscape:pageshadow="2"
     inkscape:zoom="0.35"
     inkscape:cx="-36.475489"
     inkscape:cy="520"
     inkscape:document-units="px"
     inkscape:current-layer="layer1"
     showgrid="false"
     units="px"
     inkscape:window-width="1264"
     inkscape:window-height="640"
     inkscape:window-x="3384"
     inkscape:window-y="477"
     inkscape:window-maximized="0" />
  <metadata
     id="metadata4149">
    <rdf:RDF>
      <cc:Work
         rdf:about="">
        <dc:format>image/svg+xml</dc:format>
        <dc:type
           rdf:resource="http://purl.org/dc/dcmitype/StillImage" />
        <dc:title />
      </cc:Work>
    </rdf:RDF>
  </metadata>
  <g
     inkscape:label="Layer 1"
     inkscape:groupmode="layer"
     id="layer1"
     transform="translate(0,-52.362271)">
    <g
       transform="matrix(1.008,0,0,1.008,-3.9976772,54.071549)"
       id="g6">
      <g
         transform="matrix(0.1,0,0,-0.1,0,511)"
         id="g8">
        <path
           inkscape:connector-curvature="0"
           d="M 2156.5,4517.3 C 1855.9,4398.7 1108.5,3754 744.6,3299.2 455.9,2935.4 100,2358.1 100,2243.3 c 0,-126.5 174,-280.8 316.4,-280.8 150.3,0 174,19.8 510.2,545.8 284.8,446.9 707.9,897.7 1123.2,1206.2 486.4,359.9 502.3,375.7 502.3,506.2 -0.1,201.7 -217.7,367.8 -395.6,296.6 z"
           id="path10" />
        <path
           inkscape:connector-curvature="0"
           d="m 7582.4,4517.3 c -83.1,-31.6 -170,-241.2 -142.4,-348 15.8,-63.3 150.3,-185.9 395.5,-359.9 581.3,-411.3 1135,-1036.1 1487,-1672.9 114.7,-209.6 423.2,-209.6 541.8,0 79.1,142.4 43.5,241.2 -280.8,727.7 -597.1,905.7 -1664.9,1787.6 -2001.1,1653.1 z"
           id="path12" />
        <path
           inkscape:connector-curvature="0"
           d="M 2563.8,3402.1 C 1942.9,3002.7 1155.9,2049.6 1152,1701.6 c 0,-217.5 245.2,-352 446.9,-245.2 39.5,23.7 138.4,158.2 225.4,304.5 193.8,332.2 660.4,834.5 1032.2,1111.3 154.2,114.7 296.6,245.2 308.5,292.6 55.4,170 -122.6,391.5 -312.4,391.5 -27.8,0 -158.3,-71.1 -288.8,-154.2 z"
           id="path14" />
        <path
           inkscape:connector-curvature="0"
           d="m 6910.1,3465.4 c -134.5,-142.4 -114.7,-320.3 43.5,-439 557.6,-431.1 735.6,-589.3 937.3,-842.4 126.6,-158.2 280.8,-375.7 344.1,-482.5 174,-316.4 419.2,-359.9 589.2,-106.8 83.1,126.6 47.5,237.3 -197.7,616.9 -371.7,573.4 -1241.8,1344.6 -1514.7,1344.6 -71.2,0.1 -150.3,-35.5 -201.7,-90.8 z"
           id="path16" />
        <path
           inkscape:connector-curvature="0"
           d="M 4533.3,3002.7 C 3509,2844.5 2627.1,2199.9 2172.3,1282.4 1903.4,736.6 1828.2,368.8 1848,-260 c 15.8,-442.9 35.6,-561.6 138.4,-858.2 146.3,-419.2 379.6,-818.7 644.6,-1111.3 l 197.7,-217.5 0,-834.5 c 0,-838.4 0,-838.4 98.9,-933.3 l 94.9,-98.9 1953.7,0 c 2289.8,0 2131.6,-31.6 2163.3,419.2 l 19.8,265 395.5,126.6 c 1154.8,367.8 1680.8,874 1803.4,1744 23.8,170 31.7,415.3 15.8,541.8 -19.8,193.8 -11.9,245.2 63.3,348 249.2,352 39.6,834.5 -387.6,893.8 -533.9,71.2 -834.5,-613 -427.1,-972.9 l 138.4,-118.6 0,-352 c 0,-439 -71.2,-660.5 -304.5,-917.5 -189.8,-213.6 -703.9,-494.3 -1107.3,-609.1 l -209.6,-59.3 0,280.8 0,276.8 233.3,257.1 c 569.5,616.9 870,1585.8 755.3,2420.3 -102.8,763.3 -399.4,1360.4 -925.4,1882.5 -439,431.1 -862.1,672.3 -1471.1,830.5 -288.8,75.2 -909.7,106.8 -1198.4,59.4 z M 5613,2346.2 c 458.7,-114.7 802.8,-320.3 1170.6,-688.1 383.6,-379.7 581.3,-727.7 696,-1206.2 83.1,-371.8 59.3,-1008.5 -55.3,-1364.4 -253.1,-767.2 -885.9,-1403.9 -1645.2,-1645.2 -1609.6,-510.1 -3238.9,613 -3333.9,2293.8 -27.7,466.7 55.4,850.3 268.9,1289.3 308.5,616.9 980.8,1162.7 1645.2,1320.9 316.4,79 953.1,79 1253.7,-0.1 z m 933.3,-5651.4 0,-415.3 -1542.4,0 -1542.3,0 0,395.5 c 0,217.5 7.9,395.5 15.8,395.5 7.9,0 114.7,-43.5 241.2,-98.9 771.2,-340.1 1748,-344.1 2511.3,-4 162.1,75.2 300.5,134.5 308.5,138.4 3.9,4.1 7.9,-181.8 7.9,-411.2 z"
           id="path18" />
        <path
           inkscape:connector-curvature="0"
           d="m 4798.3,831.5 c -83,-15.8 -233.3,-83.1 -336.2,-146.3 -644.6,-399.4 -573.4,-1376.3 126.6,-1700.6 355.9,-166.1 731.6,-110.7 1036.2,158.2 233.3,205.7 328.2,411.3 328.2,727.7 0,624.8 -549.8,1079.6 -1154.8,961 z m 446.8,-711.9 c 189.9,-189.8 150.3,-458.7 -87,-581.4 -162.2,-83 -324.3,-39.6 -454.8,114.7 -296.6,352.1 213.6,791 541.8,466.7 z"
           id="path20" />
      </g>
    </g>
  </g>
</svg>
