<?xml version="1.0" encoding="UTF-8" standalone="no"?>
<svg
   xmlns:dc="http://purl.org/dc/elements/1.1/"
   xmlns:cc="http://creativecommons.org/ns#"
   xmlns:rdf="http://www.w3.org/1999/02/22-rdf-syntax-ns#"
   xmlns:svg="http://www.w3.org/2000/svg"
   xmlns="http://www.w3.org/2000/svg"
   id="svg2"
   xml:space="preserve"
   enable-background="new 0 0 1000 1000"
   viewBox="0 0 1000 1000"
   y="0px"
   x="0px"
   version="1.1"><defs
     id="defs12" /><metadata
     id="metadata4"> Svg Vector Icons : http://www.onlinewebfonts.com/icon <rdf:RDF><cc:Work
     rdf:about=""><dc:format>image/svg+xml</dc:format><dc:type
       rdf:resource="http://purl.org/dc/dcmitype/StillImage" /><dc:title></dc:title></cc:Work></rdf:RDF></metadata><g
     id="g6"><path
       id="path8"
       d="M 500 10 C 322.4 10 178.40039 163.6 178.40039 353 L 178.40039 451 L 132.5 451 C 81.8 451 40.599609 494.9 40.599609 549 L 40.599609 892 C 40.599609 946.1 81.7 990 132.5 990 L 867.5 990 C 918.2 990 959.40039 946.1 959.40039 892 L 959.40039 549 C 959.40039 494.9 918.2 451 867.5 451 L 821.59961 451 L 821.59961 353 C 821.59961 163.6 677.6 10 500 10 z M 500 157 C 601.5 157 683.80078 244.7 683.80078 353 L 683.80078 451 L 316.19922 451 L 316.19922 353 C 316.19922 244.7 398.5 157 500 157 z M 503.33984 500.90039 L 504.28516 501.93945 L 505.18164 500.90039 L 736.18359 705.48438 L 711.89258 732.94141 L 504.28516 549.05664 L 296.62891 732.94141 L 272.29102 705.48438 L 503.33984 500.90039 z M 341.37695 530.34961 L 399.94922 530.34961 L 399.43945 565.04102 L 341.37695 617.49219 L 341.37695 530.34961 z M 504.2832 579.80859 L 667.0957 723.99609 L 667.0957 930.18359 C 667.09572 935.50699 662.82532 939.77734 657.50195 939.77734 L 555.6582 939.77734 L 555.6582 849.40234 C 555.6582 844.07896 551.3878 839.77734 546.06445 839.77734 L 462.4082 839.77734 C 457.08482 839.77734 452.81445 844.07894 452.81445 849.40234 L 452.81445 939.77734 L 351.00195 939.77734 C 345.67857 939.77734 341.37695 935.50697 341.37695 930.18359 L 341.37695 724.05859 L 504.2832 579.80859 z " /></g><g
     id="g4137"
     transform="translate(229.95157,224.55875)" /></svg>