<?xml version="1.0" encoding="utf-8"?>
<!-- Svg Vector Icons : http://www.onlinewebfonts.com/icon -->
<!DOCTYPE svg PUBLIC "-//W3C//DTD SVG 1.1//EN" "http://www.w3.org/Graphics/SVG/1.1/DTD/svg11.dtd">
<svg version="1.1" xmlns="http://www.w3.org/2000/svg" xmlns:xlink="http://www.w3.org/1999/xlink" x="0px" y="0px" viewBox="0 0 1000 1000" enable-background="new 0 0 1000 1000" xml:space="preserve">
<metadata> Svg Vector Icons : http://www.onlinewebfonts.com/icon </metadata>
<g><path d="M867.5,451h-45.9v-98c0-189.4-144-343-321.6-343c-177.6,0-321.6,153.6-321.6,343v98h-45.9c-50.7,0-91.9,43.9-91.9,98v343c0,54.1,41.1,98,91.9,98h735c50.7,0,91.9-43.9,91.9-98V549C959.4,494.9,918.2,451,867.5,451z M545.9,731.4V745v98v49h-91.9v-49v-98v-13.6c-27.3-17-45.9-48.2-45.9-84.4c0-54.1,41.1-98,91.9-98c50.7,0,91.9,43.9,91.9,98C591.9,683.2,573.3,714.4,545.9,731.4z M683.8,451H316.2v-98c0-108.3,82.3-196,183.8-196c101.5,0,183.8,87.7,183.8,196V451z"/></g>
</svg>