<?xml version="1.0" encoding="UTF-8" standalone="no"?>
<svg
   xmlns:dc="http://purl.org/dc/elements/1.1/"
   xmlns:cc="http://creativecommons.org/ns#"
   xmlns:rdf="http://www.w3.org/1999/02/22-rdf-syntax-ns#"
   xmlns:svg="http://www.w3.org/2000/svg"
   xmlns="http://www.w3.org/2000/svg"
   id="svg2"
   xml:space="preserve"
   enable-background="new 0 0 1000 1000"
   viewBox="0 0 1000 1000"
   y="0px"
   x="0px"
   version="1.1"><defs
     id="defs12" /><metadata
     id="metadata4"> Svg Vector Icons : http://www.onlinewebfonts.com/icon <rdf:RDF><cc:Work
     rdf:about=""><dc:format>image/svg+xml</dc:format><dc:type
       rdf:resource="http://purl.org/dc/dcmitype/StillImage" /><dc:title></dc:title></cc:Work></rdf:RDF></metadata><path
     d="m 545.9,731.4 0,13.6 0,98 0,49 -91.9,0 0,-49 0,-98 0,-13.6 c -27.3,-17 -45.9,-48.2 -45.9,-84.4 0,-54.1 41.1,-98 91.9,-98 50.7,0 91.9,43.9 91.9,98 0,36.2 -18.6,67.4 -46,84.4 z M 821,353 C 822.48516,156.10946 677.6,10 500,10 322.4,10 178.4,163.6 178.4,353 l 0,98 -45.9,0 c -50.7,0 -91.9,43.9 -91.9,98 l 0,343 c 0,54.1 41.1,98 91.9,98 l 735,0 c 50.7,0 91.9,-43.9 91.9,-98 l 0,-343 c 0,-54.1 -41.2,-98 -91.9,-98 l -114.8,0 -436.5,0 0,-98 c 0,-108.3 82.3,-196 183.8,-196 101.5,0 183.8,87.7 183.8,196"
     id="path8" /></svg>