<?xml version="1.0" encoding="UTF-8" standalone="no"?>
<svg
   xmlns:dc="http://purl.org/dc/elements/1.1/"
   xmlns:cc="http://creativecommons.org/ns#"
   xmlns:rdf="http://www.w3.org/1999/02/22-rdf-syntax-ns#"
   xmlns:svg="http://www.w3.org/2000/svg"
   xmlns="http://www.w3.org/2000/svg"
   xmlns:sodipodi="http://sodipodi.sourceforge.net/DTD/sodipodi-0.dtd"
   xmlns:inkscape="http://www.inkscape.org/namespaces/inkscape"
   id="svg2"
   xml:space="preserve"
   enable-background="new 0 0 1000 1000"
   viewBox="0 0 1000 1000"
   y="0px"
   x="0px"
   version="1.1"
   inkscape:version="0.91 r13725"
   sodipodi:docname="disarmed2.svg"><sodipodi:namedview
     pagecolor="#ffffff"
     bordercolor="#666666"
     borderopacity="1"
     objecttolerance="10"
     gridtolerance="10"
     guidetolerance="10"
     inkscape:pageopacity="0"
     inkscape:pageshadow="2"
     inkscape:window-width="1433"
     inkscape:window-height="1075"
     id="namedview6"
     showgrid="false"
     inkscape:zoom="0.3337544"
     inkscape:cx="127.09366"
     inkscape:cy="709.61951"
     inkscape:window-x="1020"
     inkscape:window-y="210"
     inkscape:window-maximized="0"
     inkscape:current-layer="svg2" /><defs
     id="defs12" /><metadata
     id="metadata4"> Svg Vector Icons : http://www.onlinewebfonts.com/icon <rdf:RDF><cc:Work
     rdf:about=""><dc:format>image/svg+xml</dc:format><dc:type
       rdf:resource="http://purl.org/dc/dcmitype/StillImage" /><dc:title></dc:title></cc:Work></rdf:RDF></metadata><path
     d="m 393.60289,663.06325 0,10.2 0,73.5 0,36.75 -68.925,0 0,-36.75 0,-73.5 0,-10.2 c -20.475,-12.75 -34.425,-36.15 -34.425,-63.3 0,-40.575 30.825,-73.5 68.925,-73.5 38.025,0 68.925,32.925 68.925,73.5 0,27.15 -13.95,50.55 -34.5,63.3 z m -310.050001,-210.3 c -38.025002,0 -68.925002,32.925 -68.925002,73.5 l 0,257.25 c 0,40.575 30.825,73.5 68.925002,73.5 l 551.250001,0 c 38.025,0 68.925,-32.925 68.925,-73.5 l 0,-257.25 c 0,-40.575 -30.9,-73.5 -68.925,-73.5 l -86.1,0"
     id="path8"
     inkscape:connector-curvature="0"
     sodipodi:nodetypes="ccccccccsssccsssssssc" /><path
     d="m 990.02458,380.10226 c 1.1138,-147.6679 -107.55003,-257.25 -240.75003,-257.25 -133.2,0 -241.2,115.2 -241.2,257.25 l 0,73.5 c 56.28192,0.77236 103.35,0 103.35,0 l 0,-73.5 c 0,-81.225 61.725,-147 137.85,-147 76.125,0 137.85,65.775 137.85,147"
     id="path8-9"
     inkscape:connector-curvature="0"
     sodipodi:nodetypes="cscccssc" /></svg>