<?xml version="1.0" encoding="UTF-8" standalone="no"?>
<svg
   xmlns:dc="http://purl.org/dc/elements/1.1/"
   xmlns:cc="http://creativecommons.org/ns#"
   xmlns:rdf="http://www.w3.org/1999/02/22-rdf-syntax-ns#"
   xmlns:svg="http://www.w3.org/2000/svg"
   xmlns="http://www.w3.org/2000/svg"
   width="182.43651mm"
   height="131.83809mm"
   viewBox="0 0 646.42857 467.14283"
   id="svg2"
   version="1.1">
  <defs
     id="defs4" />
  <metadata
     id="metadata7">
    <rdf:RDF>
      <cc:Work
         rdf:about="">
        <dc:format>image/svg+xml</dc:format>
        <dc:type
           rdf:resource="http://purl.org/dc/dcmitype/StillImage" />
        <dc:title></dc:title>
      </cc:Work>
    </rdf:RDF>
  </metadata>
  <path
     id="path4264"
     d="m 129.54542,233.31464 c 0,54.5215 0,109.04301 0,163.56451 129.043,0 258.08602,0 387.12901,0 0,-109.04301 0,-218.08602 0,-327.12902 -129.04299,0 -258.08601,0 -387.12901,0 0,54.52152 0,109.043 0,163.56451 z M 364.88933,79.58728 c 4.7493,2.4074 2.25188,8.48448 5.78171,11.86633 1.646,1.27536 0.81532,5.39292 -1.35446,3.08364 -4.02445,-2.88436 -3.39584,-8.233 -5.76891,-11.93321 -4.10974,-1.91696 -3.25933,4.27159 -4.42724,6.46749 -0.6122,2.02582 -3.09303,8.08736 -5.64098,5.33623 0.0918,-3.69523 4.07007,-6.34303 3.69387,-10.38928 0.25053,-2.8036 3.52528,-6.04982 5.81029,-5.88625 0.63524,0.48503 1.27049,0.97003 1.90572,1.45505 z m -119.494,-0.71718 c 1.70907,1.95271 1.47744,5.77377 0.81722,8.16797 -4.05219,1.12097 -2.00874,-5.29598 -1.7851,-7.49206 0.1367,-0.40801 0.50391,-0.78053 0.96788,-0.67591 z m -3.56879,1.08575 c 3.5301,1.35845 -2.42255,4.58024 -1.57761,7.02957 -0.37047,5.65018 8.62817,7.48184 9.83798,1.64783 1.50115,-3.11433 -2.08229,-5.20684 -2.34366,-7.7482 2.61361,-2.78124 5.14624,2.8031 5.83996,4.85952 1.40988,6.4635 -6.23194,12.13058 -12.02103,8.67599 -5.79323,-2.03629 -5.85919,-13.22217 0.26436,-14.46471 z m 121.4852,12.44692 c 3.90923,0.49346 1.95705,6.51697 -1.65151,4.86521 -2.83277,-0.90327 -0.74632,-5.11045 1.65151,-4.86521 z m -40.56566,10.13312 c 44.02501,0 88.05003,0 132.07504,0 0,87.18583 0,174.37168 0,261.5575 -88.05003,0 -176.10004,0 -264.15007,0 0,-87.18582 0,-174.37167 0,-261.5575 44.02501,0 88.05003,0 132.07503,0 z"
     style="fill:#000000;fill-opacity:1;fill-rule:nonzero;stroke:#000000;stroke-width:0.72812915;stroke-linecap:round;stroke-linejoin:round;stroke-miterlimit:4;stroke-dasharray:none;stroke-opacity:1" />
  <path
     id="rect4147"
     d="m 2.493414,2.49341 641.441726,0 0,462.15603 -641.441726,0 z"
     style="fill:none;fill-opacity:1;fill-rule:nonzero;stroke:#000000;stroke-width:4.98682785;stroke-linecap:round;stroke-linejoin:round;stroke-miterlimit:4;stroke-dasharray:none;stroke-opacity:1" />
  <a
     transform="translate(-48.92857,-253.43364)"
     id="a4157">
    <path
       style="fill:none;fill-rule:evenodd;stroke:#000000;stroke-width:5;stroke-linecap:butt;stroke-linejoin:miter;stroke-miterlimit:4;stroke-dasharray:none;stroke-opacity:1"
       d="M 51.428572,255.93364 181.78572,325.93363"
       id="path4155" />
  </a>
  <path
     style="fill:none;fill-rule:evenodd;stroke:#000000;stroke-width:5;stroke-linecap:butt;stroke-linejoin:miter;stroke-miterlimit:4;stroke-dasharray:none;stroke-opacity:1"
     d="m 514.46428,394.49999 130.35715,69.99999"
     id="path4155-0" />
  <path
     style="fill:none;fill-rule:evenodd;stroke:#000000;stroke-width:5;stroke-linecap:butt;stroke-linejoin:miter;stroke-miterlimit:4;stroke-dasharray:none;stroke-opacity:1"
     d="M 131.96429,393.92857 1.60714,463.92856"
     id="path4155-7" />
  <path
     style="fill:none;fill-rule:evenodd;stroke:#000000;stroke-width:5;stroke-linecap:butt;stroke-linejoin:miter;stroke-miterlimit:4;stroke-dasharray:none;stroke-opacity:1"
     d="M 644.82143,2.5 514.46428,72.49999"
     id="path4155-8" />
  <rect
     y="135.15907"
     x="250.15907"
     height="28.253267"
     width="144.68184"
     id="rect4266"
     style="fill:none;fill-opacity:1;fill-rule:nonzero;stroke:#000000;stroke-width:4.60387468;stroke-linecap:round;stroke-linejoin:round;stroke-miterlimit:4;stroke-dasharray:none;stroke-opacity:1" />
  <rect
     y="128.19984"
     x="236.05699"
     height="42.886013"
     width="171.45744"
     id="rect4268"
     style="fill:none;fill-opacity:1;fill-rule:nonzero;stroke:#000000;stroke-width:4.9711318;stroke-linecap:round;stroke-linejoin:round;stroke-miterlimit:4;stroke-dasharray:none;stroke-opacity:1" />
  <text
     id="text4270"
     y="203.21428"
     x="351.78574"
     style="font-style:normal;font-weight:normal;font-size:40px;line-height:125%;font-family:sans-serif;letter-spacing:0px;word-spacing:0px;fill:#000000;fill-opacity:1;stroke:none;stroke-width:1px;stroke-linecap:butt;stroke-linejoin:miter;stroke-opacity:1"
     xml:space="preserve"><tspan
       style="font-size:7.5px"
       y="203.21428"
       x="351.78574"
       id="tspan4272">OK</tspan></text>
  <path
     id="path4274"
     d="m 193.21429,193.21428 256.42857,0.71428"
     style="fill:none;fill-rule:evenodd;stroke:#000000;stroke-width:2;stroke-linecap:butt;stroke-linejoin:miter;stroke-miterlimit:4;stroke-dasharray:none;stroke-opacity:1" />
  <text
     transform="scale(0.88080684,1.1353227)"
     id="text4276"
     y="305.48999"
     x="352.15515"
     style="font-style:italic;font-variant:normal;font-weight:bold;font-stretch:normal;font-size:12.77238083px;line-height:125%;font-family:sans-serif;-inkscape-font-specification:'sans-serif Bold Italic';letter-spacing:0px;word-spacing:0px;fill:#000000;fill-opacity:1;stroke:none;stroke-width:1px;stroke-linecap:butt;stroke-linejoin:miter;stroke-opacity:1"
     xml:space="preserve"><tspan
       y="305.48999"
       x="352.15515"
       id="tspan4278">Visonic</tspan></text>
  <g
     transform="matrix(0.10011292,0,0,0.10011292,258.41844,291.24101)"
     id="g4290">
    <rect
       style="fill:none;fill-opacity:1;fill-rule:nonzero;stroke:#000000;stroke-width:4.92524433;stroke-linecap:round;stroke-linejoin:round;stroke-miterlimit:4;stroke-dasharray:none;stroke-opacity:1"
       id="rect4146"
       width="150.07475"
       height="145.47569"
       x="300.73938"
       y="432.62674" />
    <path
       style="fill:#000000;fill-opacity:1;fill-rule:evenodd;stroke:none;stroke-width:1px;stroke-linecap:butt;stroke-linejoin:miter;stroke-opacity:1"
       d="m 375.77675,433.37168 0,8.13679 c 13.2286,-0.10907 26.47229,1.8685 39.09198,5.83727 11.18136,3.51643 21.87102,8.59252 31.66274,15.03537 l -7.95991,12.91274 c -8.52441,-5.86571 -17.91453,-10.47105 -27.77122,-13.62028 -11.11985,-3.55281 -22.81989,-5.24711 -34.49293,-5.12972 -10.46394,0.10523 -20.91141,1.66178 -30.95519,4.59906 -11.36156,3.32266 -22.2039,8.41437 -32.01651,15.03537 l 9.19811,13.79717 c 8.49119,-6.0818 18.05945,-10.6553 28.125,-13.44339 8.33584,-2.30897 16.99895,-3.39607 25.64859,-3.36085 10.63418,0.0433 21.27353,1.78837 31.30896,5.3066 7.63711,2.67743 14.91542,6.37624 21.58019,10.96698 l -8.49056,12.55897 c -5.21218,-3.42279 -10.79852,-6.27539 -16.62736,-8.49057 -8.74681,-3.32412 -18.06083,-5.207 -27.41746,-5.3066 -8.58002,-0.0913 -17.16715,1.31771 -25.29481,4.06839 -7.16847,2.42606 -13.98362,5.89342 -20.16509,10.25944 l 9.55188,14.32783 c 4.38756,-3.51523 9.37521,-6.27948 14.68161,-8.1368 7.28603,-2.55023 15.10769,-3.37451 22.81839,-3.00707 6.9354,0.33049 13.84506,1.61913 20.34199,4.06839 4.22877,1.59419 8.27348,3.67603 12.0283,6.19104 l -7.95991,12.55896 c -2.82528,-2.05366 -5.92839,-3.72456 -9.19811,-4.95283 -4.90496,-1.84254 -10.15172,-2.6786 -15.38915,-2.83018 -4.87963,-0.14122 -9.79493,0.308 -14.50472,1.59198 -5.17089,1.40969 -10.06517,3.82661 -14.32783,7.07547 l 9.375,14.50471 c 2.31276,-2.16957 5.11499,-3.81436 8.13679,-4.77594 3.40796,-1.08446 7.04462,-1.29669 10.61321,-1.06132 3.75766,0.24784 7.50625,0.99157 10.96698,2.47641 1.67651,0.71931 3.2795,1.60986 4.77594,2.6533 l -8.31368,12.73585 c -1.31096,-1.21074 -2.8947,-2.12443 -4.59905,-2.6533 -1.53858,-0.47743 -3.16883,-0.64172 -4.77595,-0.53066 -1.70632,0.11791 -3.38927,0.54486 -4.95283,1.23821 -1.48643,0.65915 -2.86589,1.5588 -4.06839,2.6533 l 9.375,12.55896 0,8.13679 75,-0.17688 -0.53066,-143.45519 -74.46934,-0.53066"
       id="path4150" />
  </g>
  <g
     id="text4294"
     style="font-style:normal;font-weight:normal;font-size:12.19181347px;line-height:125%;font-family:sans-serif;letter-spacing:0px;word-spacing:0px;fill:#000000;fill-opacity:1;stroke:none;stroke-width:1px;stroke-linecap:butt;stroke-linejoin:miter;stroke-opacity:1"
     transform="scale(0.82022255,1.2191813)">
    <path
       id="path4187"
       style="font-style:normal;font-variant:normal;font-weight:100;font-stretch:normal;font-size:18.28771973px;font-family:DotMatrix;-inkscape-font-specification:'DotMatrix Thin'"
       d="m 328.84193,116.10366 q 0.38404,0 0.65836,0.2926 0.2926,0.27432 0.2926,0.67665 0,0.40233 -0.27431,0.67664 -0.27432,0.27432 -0.67665,0.27432 -0.38404,0 -0.67665,-0.27432 -0.2926,-0.27431 -0.2926,-0.67664 0,-0.40233 0.27432,-0.67665 0.2926,-0.2926 0.69493,-0.2926 z m 0,2.28596 q 0.38404,0 0.65836,0.29261 0.2926,0.27431 0.2926,0.67664 0,0.40233 -0.27431,0.67665 -0.27432,0.27431 -0.67665,0.27431 -0.38404,0 -0.67665,-0.27431 -0.2926,-0.27432 -0.2926,-0.67665 0,-0.40233 0.27432,-0.67664 0.2926,-0.29261 0.69493,-0.29261 z m -4.57193,2.28597 q 0.38404,0 0.65836,0.2926 0.2926,0.27432 0.2926,0.67665 0,0.40233 -0.27431,0.67664 -0.27432,0.27432 -0.67665,0.27432 -0.38404,0 -0.67665,-0.27432 -0.2926,-0.27431 -0.2926,-0.67664 0,-0.40233 0.27432,-0.67665 0.2926,-0.2926 0.69493,-0.2926 z m -4.57193,6.85789 q 0.38404,0 0.65836,0.29261 0.2926,0.27431 0.2926,0.67664 0,0.40233 -0.2926,0.67665 -0.27432,0.2926 -0.65836,0.2926 -0.40233,0 -0.69493,-0.2926 -0.27432,-0.27432 -0.27432,-0.67665 0,-0.40233 0.27432,-0.67664 0.2926,-0.29261 0.69493,-0.29261 z m 0,-13.71579 q 0.38404,0 0.65836,0.29261 0.2926,0.27431 0.2926,0.67664 0,0.40233 -0.27431,0.67665 -0.27432,0.27431 -0.67665,0.27431 -0.38404,0 -0.67665,-0.27431 -0.2926,-0.27432 -0.2926,-0.67665 0,-0.40233 0.27432,-0.67664 0.2926,-0.29261 0.69493,-0.29261 z m 6.85789,6.8579 q 0.38405,0 0.65836,0.2926 0.29261,0.27432 0.29261,0.67665 0,0.40233 -0.27432,0.67664 -0.27432,0.27432 -0.67665,0.27432 -0.38404,0 -0.67664,-0.27432 -0.2926,-0.27431 -0.2926,-0.67664 0,-0.40233 0.27431,-0.67665 0.29261,-0.2926 0.69493,-0.2926 z m -6.85789,-4.57193 q 0.38404,0 0.65836,0.2926 0.2926,0.27432 0.2926,0.67665 0,0.40233 -0.27431,0.67664 -0.27432,0.27432 -0.67665,0.27432 -0.38404,0 -0.67665,-0.27432 -0.2926,-0.27431 -0.2926,-0.67664 0,-0.40233 0.27432,-0.67665 0.2926,-0.2926 0.69493,-0.2926 z m 0,2.28596 q 0.38404,0 0.65836,0.29261 0.2926,0.27431 0.2926,0.67664 0,0.40233 -0.27431,0.67665 -0.27432,0.27431 -0.67665,0.27431 -0.38404,0 -0.67665,-0.27431 -0.2926,-0.27432 -0.2926,-0.67665 0,-0.40233 0.27432,-0.67664 0.2926,-0.29261 0.69493,-0.29261 z m 0,2.28597 q 0.38404,0 0.65836,0.2926 0.2926,0.27432 0.2926,0.67665 0,0.40233 -0.27431,0.67664 -0.27432,0.27432 -0.67665,0.27432 -0.38404,0 -0.67665,-0.27432 -0.2926,-0.27431 -0.2926,-0.67664 0,-0.40233 0.27432,-0.67665 0.2926,-0.2926 0.69493,-0.2926 z m -0.0366,2.28596 q 0.40233,0 0.67665,0.29261 0.2926,0.27431 0.2926,0.67664 0,0.40233 -0.27431,0.67665 -0.27432,0.27431 -0.69494,0.27431 -0.38404,0 -0.67664,-0.27431 -0.27432,-0.29261 -0.27432,-0.67665 0,-0.40233 0.27432,-0.67664 0.2926,-0.29261 0.67664,-0.29261 z m 0.0366,2.28597 q 0.38404,0 0.65836,0.2926 0.2926,0.27432 0.2926,0.67665 0,0.40233 -0.27431,0.67664 -0.27432,0.27432 -0.67665,0.27432 -0.38404,0 -0.67665,-0.27432 -0.2926,-0.27431 -0.2926,-0.67664 0,-0.40233 0.27432,-0.67665 0.2926,-0.2926 0.69493,-0.2926 z m 2.28596,-4.57193 q 0.38405,0 0.65836,0.2926 0.29261,0.27432 0.29261,0.67665 0,0.40233 -0.27432,0.67664 -0.27432,0.27432 -0.67665,0.27432 -0.38404,0 -0.67664,-0.27432 -0.2926,-0.27431 -0.2926,-0.67664 0,-0.40233 0.27431,-0.67665 0.29261,-0.2926 0.69493,-0.2926 z m 0,-6.8579 q 0.38405,0 0.65836,0.29261 0.29261,0.27431 0.29261,0.67664 0,0.40233 -0.27432,0.67665 -0.27432,0.27431 -0.67665,0.27431 -0.38404,0 -0.67664,-0.27431 -0.2926,-0.27432 -0.2926,-0.67665 0,-0.40233 0.27431,-0.67664 0.29261,-0.29261 0.69493,-0.29261 z m 2.28597,0 q 0.38404,0 0.65836,0.29261 0.2926,0.27431 0.2926,0.67664 0,0.40233 -0.27431,0.67665 -0.27432,0.27431 -0.67665,0.27431 -0.38404,0 -0.67665,-0.27431 -0.2926,-0.27432 -0.2926,-0.67665 0,-0.40233 0.27432,-0.67664 0.2926,-0.29261 0.69493,-0.29261 z m 2.28596,0 q 0.38405,0 0.65836,0.29261 0.29261,0.27431 0.29261,0.67664 0,0.40233 -0.27432,0.67665 -0.27432,0.27431 -0.67665,0.27431 -0.38404,0 -0.67664,-0.27431 -0.2926,-0.27432 -0.2926,-0.67665 0,-0.40233 0.27431,-0.67664 0.29261,-0.29261 0.69493,-0.29261 z" />
    <path
       id="path4189"
       style="font-style:normal;font-variant:normal;font-weight:100;font-stretch:normal;font-size:18.28771973px;font-family:DotMatrix;-inkscape-font-specification:'DotMatrix Thin'"
       d="m 337.98579,118.38962 q 0.38404,0 0.65836,0.29261 0.2926,0.27431 0.2926,0.67664 0,0.40233 -0.27431,0.67665 -0.27432,0.27431 -0.67665,0.27431 -0.38404,0 -0.67665,-0.27431 -0.2926,-0.27432 -0.2926,-0.67665 0,-0.40233 0.27432,-0.67664 0.2926,-0.29261 0.69493,-0.29261 z m 0,9.14386 q 0.38404,0 0.65836,0.29261 0.2926,0.27431 0.2926,0.67664 0,0.40233 -0.2926,0.67665 -0.27432,0.2926 -0.65836,0.2926 -0.40233,0 -0.69493,-0.2926 -0.27432,-0.27432 -0.27432,-0.67665 0,-0.40233 0.27432,-0.67664 0.2926,-0.29261 0.69493,-0.29261 z m -2.28597,0 q 0.38405,0 0.65836,0.29261 0.29261,0.27431 0.29261,0.67664 0,0.40233 -0.29261,0.67665 -0.27431,0.2926 -0.65836,0.2926 -0.40233,0 -0.69493,-0.2926 -0.27431,-0.27432 -0.27431,-0.67665 0,-0.40233 0.27431,-0.67664 0.2926,-0.29261 0.69493,-0.29261 z m 0,-9.14386 q 0.38405,0 0.65836,0.29261 0.29261,0.27431 0.29261,0.67664 0,0.40233 -0.27432,0.67665 -0.27432,0.27431 -0.67665,0.27431 -0.38404,0 -0.67664,-0.27431 -0.2926,-0.27432 -0.2926,-0.67665 0,-0.40233 0.27431,-0.67664 0.2926,-0.29261 0.69493,-0.29261 z m 4.57193,9.14386 q 0.38405,0 0.65836,0.29261 0.29261,0.27431 0.29261,0.67664 0,0.40233 -0.29261,0.67665 -0.27431,0.2926 -0.65836,0.2926 -0.40233,0 -0.69493,-0.2926 -0.27431,-0.27432 -0.27431,-0.67665 0,-0.40233 0.27431,-0.67664 0.2926,-0.29261 0.69493,-0.29261 z m 0,-9.14386 q 0.38405,0 0.65836,0.29261 0.29261,0.27431 0.29261,0.67664 0,0.40233 -0.27432,0.67665 -0.27432,0.27431 -0.67665,0.27431 -0.38404,0 -0.67664,-0.27431 -0.2926,-0.27432 -0.2926,-0.67665 0,-0.40233 0.27431,-0.67664 0.2926,-0.29261 0.69493,-0.29261 z m 2.30426,2.28597 q 0.40233,0 0.67664,0.27431 0.27432,0.27432 0.27432,0.69494 0,0.40233 -0.27432,0.67664 -0.27431,0.27432 -0.67664,0.27432 -0.38404,0 -0.67665,-0.27432 -0.2926,-0.27431 -0.2926,-0.67664 0,-0.40233 0.27431,-0.67665 0.29261,-0.2926 0.69494,-0.2926 z m -0.0183,2.28596 q 0.38404,0 0.65836,0.29261 0.2926,0.27431 0.2926,0.67664 0,0.40233 -0.27431,0.67665 -0.27432,0.27431 -0.67665,0.27431 -0.38404,0 -0.67665,-0.27431 -0.2926,-0.27432 -0.2926,-0.67665 0,-0.40233 0.27432,-0.67664 0.2926,-0.29261 0.69493,-0.29261 z m 0.0183,2.28597 q 0.40233,0 0.67664,0.27431 0.27432,0.27432 0.27432,0.69494 0,0.40233 -0.27432,0.67664 -0.27431,0.27432 -0.67664,0.27432 -0.38404,0 -0.67665,-0.27432 -0.2926,-0.27431 -0.2926,-0.67664 0,-0.40233 0.27431,-0.67665 0.29261,-0.2926 0.69494,-0.2926 z m -9.16215,-4.57193 q 0.38404,0 0.65836,0.2926 0.2926,0.27432 0.2926,0.67665 0,0.40233 -0.27431,0.67664 -0.27432,0.27432 -0.67665,0.27432 -0.38404,0 -0.67665,-0.27432 -0.2926,-0.27431 -0.2926,-0.67664 0,-0.40233 0.27432,-0.67665 0.2926,-0.2926 0.69493,-0.2926 z m -0.0366,2.28596 q 0.40233,0 0.67665,0.29261 0.2926,0.27431 0.2926,0.67664 0,0.40233 -0.27431,0.67665 -0.27432,0.27431 -0.69494,0.27431 -0.38404,0 -0.67664,-0.27431 -0.27432,-0.29261 -0.27432,-0.67665 0,-0.40233 0.27432,-0.67664 0.2926,-0.29261 0.67664,-0.29261 z m 0.0366,2.28597 q 0.38404,0 0.65836,0.2926 0.2926,0.27432 0.2926,0.67665 0,0.40233 -0.27431,0.67664 -0.27432,0.27432 -0.67665,0.27432 -0.38404,0 -0.67665,-0.27432 -0.2926,-0.27431 -0.2926,-0.67664 0,-0.40233 0.27432,-0.67665 0.2926,-0.2926 0.69493,-0.2926 z" />
    <path
       id="path4191"
       style="font-style:normal;font-variant:normal;font-weight:100;font-stretch:normal;font-size:18.28771973px;font-family:DotMatrix;-inkscape-font-specification:'DotMatrix Thin'"
       d="m 354.00583,127.53348 q 0.40233,0 0.67665,0.27432 0.27431,0.27431 0.27431,0.69493 0,0.38404 -0.27431,0.67665 -0.27432,0.2926 -0.67665,0.2926 -0.40233,0 -0.69493,-0.2926 -0.27432,-0.27432 -0.27432,-0.67665 0,-0.40233 0.27432,-0.67664 0.2926,-0.29261 0.69493,-0.29261 z m 2.28597,-9.14386 q 0.40233,0 0.67664,0.27432 0.27432,0.27431 0.27432,0.69493 0,0.40233 -0.27432,0.67665 -0.27431,0.27431 -0.67664,0.27431 -0.38404,0 -0.67665,-0.27431 -0.2926,-0.27432 -0.2926,-0.67665 0,-0.40233 0.27431,-0.67664 0.29261,-0.29261 0.69494,-0.29261 z m -6.8579,9.14386 q 0.42062,0 0.71322,0.29261 0.31089,0.27431 0.23774,0.67664 -0.0731,0.38404 -0.32918,0.67665 -0.25602,0.2926 -0.62178,0.2926 -0.40233,0 -0.69493,-0.2926 -0.27432,-0.27432 -0.27432,-0.67665 0,-0.40233 0.27432,-0.67664 0.2926,-0.29261 0.69493,-0.29261 z m 2.28597,-9.14386 q 0.40233,0 0.67664,0.27432 0.27432,0.27431 0.27432,0.69493 0,0.40233 -0.27432,0.67665 -0.27431,0.27431 -0.67664,0.27431 -0.38404,0 -0.67665,-0.27431 -0.2926,-0.27432 -0.2926,-0.67665 0,-0.40233 0.27431,-0.67664 0.29261,-0.29261 0.69494,-0.29261 z m -0.0183,2.28597 q 0.38404,0 0.65836,0.2926 0.2926,0.27432 0.2926,0.67665 0,0.40233 -0.27431,0.67664 -0.27432,0.27432 -0.67665,0.27432 -0.38404,0 -0.67665,-0.27432 -0.2926,-0.27431 -0.2926,-0.67664 0,-0.40233 0.27432,-0.67665 0.2926,-0.2926 0.69493,-0.2926 z m 0.0183,2.28596 q 0.40233,0 0.67664,0.27432 0.27432,0.27431 0.27432,0.69493 0,0.40233 -0.27432,0.67665 -0.27431,0.27431 -0.67664,0.27431 -0.38404,0 -0.67665,-0.27431 -0.2926,-0.27432 -0.2926,-0.67665 0,-0.40233 0.27431,-0.67664 0.29261,-0.29261 0.69494,-0.29261 z m 4.57193,-2.28596 q 0.40233,0 0.67664,0.27431 0.27432,0.27432 0.27432,0.69494 0,0.40233 -0.27432,0.67664 -0.27431,0.27432 -0.67664,0.27432 -0.38404,0 -0.67665,-0.27432 -0.2926,-0.27431 -0.2926,-0.67664 0,-0.40233 0.27431,-0.67665 0.29261,-0.2926 0.69494,-0.2926 z m 0.0183,2.28596 q 0.40233,0 0.67665,0.29261 0.2926,0.27431 0.2926,0.67664 0,0.40233 -0.27431,0.67665 -0.27432,0.27431 -0.69494,0.27431 -0.40232,0 -0.67664,-0.27431 -0.27432,-0.27432 -0.27432,-0.67665 0,-0.38404 0.27432,-0.67664 0.27432,-0.29261 0.67664,-0.29261 z m -0.0183,2.28597 q 0.40233,0 0.67664,0.27431 0.27432,0.27432 0.27432,0.69494 0,0.40233 -0.27432,0.67664 -0.27431,0.27432 -0.67664,0.27432 -0.38404,0 -0.67665,-0.27432 -0.2926,-0.27431 -0.2926,-0.67664 0,-0.40233 0.27431,-0.67665 0.29261,-0.2926 0.69494,-0.2926 z m -4.59022,0 q 0.38404,0 0.65836,0.2926 0.2926,0.27432 0.2926,0.67665 0,0.40233 -0.27431,0.67664 -0.27432,0.27432 -0.67665,0.27432 -0.38404,0 -0.67665,-0.27432 -0.2926,-0.27431 -0.2926,-0.67664 0,-0.40233 0.27432,-0.67665 0.2926,-0.2926 0.69493,-0.2926 z m -4.55364,-6.8579 q 0.40233,0 0.67664,0.27432 0.27432,0.27431 0.27432,0.69493 0,0.40233 -0.27432,0.67665 -0.27431,0.27431 -0.67664,0.27431 -0.38404,0 -0.67665,-0.27431 -0.2926,-0.27432 -0.2926,-0.67665 0,-0.40233 0.27431,-0.67664 0.29261,-0.29261 0.69494,-0.29261 z m -0.0183,2.28597 q 0.38404,0 0.65836,0.2926 0.2926,0.27432 0.2926,0.67665 0,0.40233 -0.27431,0.67664 -0.27432,0.27432 -0.67665,0.27432 -0.38404,0 -0.67665,-0.27432 -0.2926,-0.27431 -0.2926,-0.67664 0,-0.40233 0.27432,-0.67665 0.2926,-0.2926 0.69493,-0.2926 z m 0.0183,2.28596 q 0.40233,0 0.67664,0.27432 0.27432,0.27431 0.27432,0.69493 0,0.40233 -0.27432,0.67665 -0.27431,0.27431 -0.67664,0.27431 -0.38404,0 -0.67665,-0.27431 -0.2926,-0.27432 -0.2926,-0.67665 0,-0.40233 0.27431,-0.67664 0.29261,-0.29261 0.69494,-0.29261 z m -0.0183,2.28597 q 0.38404,0 0.65836,0.2926 0.2926,0.27432 0.2926,0.67665 0,0.40233 -0.27431,0.67664 -0.27432,0.27432 -0.67665,0.27432 -0.38404,0 -0.67665,-0.27432 -0.2926,-0.27431 -0.2926,-0.67664 0,-0.40233 0.27432,-0.67665 0.2926,-0.2926 0.69493,-0.2926 z" />
    <path
       id="path4193"
       style="font-style:normal;font-variant:normal;font-weight:100;font-stretch:normal;font-size:18.28771973px;font-family:DotMatrix;-inkscape-font-specification:'DotMatrix Thin'"
       d="m 365.41737,122.96155 q 0.38404,0 0.65836,0.29261 0.2926,0.27431 0.2926,0.67664 0,0.40233 -0.27432,0.67665 -0.27431,0.27431 -0.67664,0.27431 -0.38404,0 -0.67665,-0.27431 -0.2926,-0.27432 -0.2926,-0.67665 0,-0.40233 0.27432,-0.67664 0.2926,-0.29261 0.69493,-0.29261 z m 0,4.57193 q 0.38404,0 0.65836,0.29261 0.2926,0.27431 0.2926,0.67664 0,0.40233 -0.2926,0.67665 -0.27432,0.2926 -0.65836,0.2926 -0.40233,0 -0.69493,-0.2926 -0.27432,-0.27432 -0.27432,-0.67665 0,-0.40233 0.27432,-0.67664 0.2926,-0.29261 0.69493,-0.29261 z m -2.28597,0 q 0.38405,0 0.65836,0.29261 0.29261,0.27431 0.29261,0.67664 0,0.40233 -0.29261,0.67665 -0.27431,0.2926 -0.65836,0.2926 -0.40233,0 -0.69493,-0.2926 -0.27431,-0.27432 -0.27431,-0.67665 0,-0.40233 0.27431,-0.67664 0.2926,-0.29261 0.69493,-0.29261 z m 0,-4.57193 q 0.38405,0 0.65836,0.29261 0.29261,0.27431 0.29261,0.67664 0,0.40233 -0.27432,0.67665 -0.27432,0.27431 -0.67665,0.27431 -0.38404,0 -0.67664,-0.27431 -0.2926,-0.27432 -0.2926,-0.67665 0,-0.40233 0.27431,-0.67664 0.2926,-0.29261 0.69493,-0.29261 z m 4.57193,4.57193 q 0.38405,0 0.65836,0.29261 0.29261,0.27431 0.29261,0.67664 0,0.40233 -0.29261,0.67665 -0.27431,0.2926 -0.65836,0.2926 -0.40233,0 -0.69493,-0.2926 -0.27431,-0.27432 -0.27431,-0.67665 0,-0.40233 0.27431,-0.67664 0.2926,-0.29261 0.69493,-0.29261 z m 0,-4.57193 q 0.38405,0 0.65836,0.29261 0.29261,0.27431 0.29261,0.67664 0,0.40233 -0.27432,0.67665 -0.27432,0.27431 -0.67665,0.27431 -0.38404,0 -0.67664,-0.27431 -0.2926,-0.27432 -0.2926,-0.67665 0,-0.40233 0.27431,-0.67664 0.2926,-0.29261 0.69493,-0.29261 z m 2.30426,-2.28596 q 0.40233,0 0.67664,0.27431 0.27432,0.27432 0.27432,0.69494 0,0.40233 -0.27432,0.67664 -0.27431,0.27432 -0.67664,0.27432 -0.38405,0 -0.67665,-0.27432 -0.2926,-0.27431 -0.2926,-0.67664 0,-0.40233 0.27431,-0.67665 0.29261,-0.2926 0.69494,-0.2926 z m -0.0183,2.28596 q 0.38404,0 0.65836,0.29261 0.2926,0.27431 0.2926,0.67664 0,0.40233 -0.27432,0.67665 -0.27431,0.27431 -0.67664,0.27431 -0.38404,0 -0.67665,-0.27431 -0.2926,-0.27432 -0.2926,-0.67665 0,-0.40233 0.27432,-0.67664 0.2926,-0.29261 0.69493,-0.29261 z m -9.14386,-2.28596 q 0.38404,0 0.65836,0.2926 0.2926,0.27432 0.2926,0.67665 0,0.40233 -0.27432,0.67664 -0.27431,0.27432 -0.67664,0.27432 -0.38404,0 -0.67665,-0.27432 -0.2926,-0.27431 -0.2926,-0.67664 0,-0.40233 0.27432,-0.67665 0.2926,-0.2926 0.69493,-0.2926 z m -0.0366,2.28596 q 0.40233,0 0.67665,0.29261 0.2926,0.27431 0.2926,0.67664 0,0.40233 -0.27431,0.67665 -0.27432,0.27431 -0.69494,0.27431 -0.38404,0 -0.67664,-0.27431 -0.27432,-0.29261 -0.27432,-0.67665 0,-0.40233 0.27432,-0.67664 0.2926,-0.29261 0.67664,-0.29261 z m 0.0366,2.28597 q 0.38404,0 0.65836,0.2926 0.2926,0.27432 0.2926,0.67665 0,0.40233 -0.27432,0.67664 -0.27431,0.27432 -0.67664,0.27432 -0.38404,0 -0.67665,-0.27432 -0.2926,-0.27431 -0.2926,-0.67664 0,-0.40233 0.27432,-0.67665 0.2926,-0.2926 0.69493,-0.2926 z m 4.57193,-6.8579 q 0.38404,0 0.65836,0.29261 0.2926,0.27431 0.2926,0.67664 0,0.40233 -0.27432,0.67665 -0.27431,0.27431 -0.67664,0.27431 -0.38404,0 -0.67665,-0.27431 -0.2926,-0.27432 -0.2926,-0.67665 0,-0.40233 0.27432,-0.67664 0.2926,-0.29261 0.69493,-0.29261 z m -2.28597,0 q 0.38405,0 0.65836,0.29261 0.29261,0.27431 0.29261,0.67664 0,0.40233 -0.27432,0.67665 -0.27432,0.27431 -0.67665,0.27431 -0.38404,0 -0.67664,-0.27431 -0.2926,-0.27432 -0.2926,-0.67665 0,-0.40233 0.27431,-0.67664 0.2926,-0.29261 0.69493,-0.29261 z m 4.57193,0 q 0.38405,0 0.65836,0.29261 0.29261,0.27431 0.29261,0.67664 0,0.40233 -0.27432,0.67665 -0.27432,0.27431 -0.67665,0.27431 -0.38404,0 -0.67664,-0.27431 -0.2926,-0.27432 -0.2926,-0.67665 0,-0.40233 0.27431,-0.67664 0.2926,-0.29261 0.69493,-0.29261 z" />
    <path
       id="path4195"
       style="font-style:normal;font-variant:normal;font-weight:100;font-stretch:normal;font-size:18.28771973px;font-family:DotMatrix;-inkscape-font-specification:'DotMatrix Thin'"
       d="m 379.13316,120.30983 q -0.38404,0 -0.67665,-0.27431 -0.2926,-0.27432 -0.2926,-0.67665 0,-0.40233 0.27432,-0.67664 0.2926,-0.29261 0.69493,-0.29261 0.38404,0 0.65836,0.29261 0.2926,0.27431 0.2926,0.67664 0,0.40233 -0.27432,0.67665 -0.27431,0.27431 -0.67664,0.27431 z m 2.28596,0 q -0.38404,0 -0.67664,-0.27431 -0.29261,-0.27432 -0.29261,-0.67665 0,-0.40233 0.27432,-0.67664 0.2926,-0.29261 0.69493,-0.29261 0.38405,0 0.65836,0.29261 0.29261,0.27431 0.29261,0.67664 0,0.40233 -0.27432,0.67665 -0.27432,0.27431 -0.67665,0.27431 z m -4.57193,2.28597 q -0.38404,0 -0.67664,-0.27432 -0.29261,-0.27431 -0.29261,-0.67664 0,-0.40233 0.27432,-0.67665 0.2926,-0.2926 0.69493,-0.2926 0.38405,0 0.65836,0.2926 0.29261,0.27432 0.29261,0.67665 0,0.40233 -0.27432,0.67664 -0.27432,0.27432 -0.67665,0.27432 z m -2.28596,6.87618 q -0.40233,0 -0.69493,-0.2926 -0.27432,-0.27432 -0.27432,-0.67665 0,-0.40233 0.27432,-0.67664 0.2926,-0.29261 0.69493,-0.29261 0.38404,0 0.65836,0.29261 0.2926,0.27431 0.2926,0.67664 0,0.40233 -0.2926,0.67665 -0.27432,0.2926 -0.65836,0.2926 z m -0.0366,-2.30425 q -0.38404,0 -0.67664,-0.27432 -0.27432,-0.2926 -0.27432,-0.67664 0,-0.40233 0.27432,-0.67665 0.2926,-0.2926 0.67664,-0.2926 0.40233,0 0.67665,0.2926 0.2926,0.27432 0.2926,0.67665 0,0.40233 -0.27431,0.67664 -0.27432,0.27432 -0.69494,0.27432 z m 0.0366,-2.28597 q -0.38404,0 -0.67665,-0.27431 -0.2926,-0.27432 -0.2926,-0.67665 0,-0.40233 0.27432,-0.67664 0.2926,-0.29261 0.69493,-0.29261 0.38404,0 0.65836,0.29261 0.2926,0.27431 0.2926,0.67664 0,0.40233 -0.27432,0.67665 -0.27431,0.27431 -0.67664,0.27431 z m -0.0366,-4.57193 q -0.38404,0 -0.67664,-0.27431 -0.27432,-0.29261 -0.27432,-0.67665 0,-0.40233 0.27432,-0.67664 0.2926,-0.29261 0.67664,-0.29261 0.40233,0 0.67665,0.29261 0.2926,0.27431 0.2926,0.67664 0,0.40233 -0.27431,0.67665 -0.27432,0.27431 -0.69494,0.27431 z m 0,2.28597 q -0.38404,0 -0.67664,-0.27432 -0.27432,-0.2926 -0.27432,-0.67664 0,-0.40233 0.27432,-0.67665 0.2926,-0.2926 0.67664,-0.2926 0.40233,0 0.67665,0.2926 0.2926,0.27432 0.2926,0.67665 0,0.40233 -0.27431,0.67664 -0.27432,0.27432 -0.69494,0.27432 z" />
    <path
       id="path4197"
       style="font-style:normal;font-variant:normal;font-weight:100;font-stretch:normal;font-size:18.28771973px;font-family:DotMatrix;-inkscape-font-specification:'DotMatrix Thin'"
       d="m 397.42088,113.81769 q 0.38404,0 0.65836,0.29261 0.2926,0.27431 0.2926,0.67664 0,0.40233 -0.27432,0.67665 -0.27431,0.27431 -0.67664,0.27431 -0.38404,0 -0.67665,-0.27431 -0.2926,-0.27432 -0.2926,-0.67665 0,-0.40233 0.27432,-0.67664 0.2926,-0.29261 0.69493,-0.29261 z m -9.14386,0 q 0.38404,0 0.65836,0.29261 0.2926,0.27431 0.2926,0.67664 0,0.40233 -0.27432,0.67665 -0.27431,0.27431 -0.67664,0.27431 -0.38404,0 -0.67665,-0.27431 -0.2926,-0.27432 -0.2926,-0.67665 0,-0.40233 0.27432,-0.67664 0.2926,-0.29261 0.69493,-0.29261 z m 4.57193,9.14386 q 0.38404,0 0.65836,0.29261 0.2926,0.27431 0.2926,0.67664 0,0.40233 -0.27432,0.67665 -0.27431,0.27431 -0.67664,0.27431 -0.38404,0 -0.67665,-0.27431 -0.2926,-0.27432 -0.2926,-0.67665 0,-0.40233 0.27432,-0.67664 0.2926,-0.29261 0.69493,-0.29261 z m -4.57193,4.57193 q 0.38404,0 0.65836,0.29261 0.2926,0.27431 0.2926,0.67664 0,0.40233 -0.2926,0.67665 -0.27432,0.2926 -0.65836,0.2926 -0.40233,0 -0.69493,-0.2926 -0.27432,-0.27432 -0.27432,-0.67665 0,-0.40233 0.27432,-0.67664 0.2926,-0.29261 0.69493,-0.29261 z m 2.28596,-11.42982 q 0.38405,0 0.65836,0.2926 0.29261,0.27432 0.29261,0.67665 0,0.40233 -0.27432,0.67664 -0.27432,0.27432 -0.67665,0.27432 -0.38404,0 -0.67664,-0.27432 -0.29261,-0.27431 -0.29261,-0.67664 0,-0.40233 0.27432,-0.67665 0.2926,-0.2926 0.69493,-0.2926 z m 4.57193,0 q 0.38405,0 0.65836,0.2926 0.29261,0.27432 0.29261,0.67665 0,0.40233 -0.27432,0.67664 -0.27432,0.27432 -0.67665,0.27432 -0.38404,0 -0.67664,-0.27432 -0.29261,-0.27431 -0.29261,-0.67664 0,-0.40233 0.27432,-0.67665 0.2926,-0.2926 0.69493,-0.2926 z m -6.85789,0 q 0.38404,0 0.65836,0.2926 0.2926,0.27432 0.2926,0.67665 0,0.40233 -0.27432,0.67664 -0.27431,0.27432 -0.67664,0.27432 -0.38404,0 -0.67665,-0.27432 -0.2926,-0.27431 -0.2926,-0.67664 0,-0.40233 0.27432,-0.67665 0.2926,-0.2926 0.69493,-0.2926 z m 0,2.28596 q 0.38404,0 0.65836,0.29261 0.2926,0.27431 0.2926,0.67664 0,0.40233 -0.27432,0.67665 -0.27431,0.27431 -0.67664,0.27431 -0.38404,0 -0.67665,-0.27431 -0.2926,-0.27432 -0.2926,-0.67665 0,-0.40233 0.27432,-0.67664 0.2926,-0.29261 0.69493,-0.29261 z m 0,2.28597 q 0.38404,0 0.65836,0.2926 0.2926,0.27432 0.2926,0.67665 0,0.40233 -0.27432,0.67664 -0.27431,0.27432 -0.67664,0.27432 -0.38404,0 -0.67665,-0.27432 -0.2926,-0.27431 -0.2926,-0.67664 0,-0.40233 0.27432,-0.67665 0.2926,-0.2926 0.69493,-0.2926 z m -0.0366,2.28596 q 0.40233,0 0.67665,0.29261 0.2926,0.27431 0.2926,0.67664 0,0.40233 -0.27431,0.67665 -0.27432,0.27431 -0.69494,0.27431 -0.38404,0 -0.67664,-0.27431 -0.27432,-0.29261 -0.27432,-0.67665 0,-0.40233 0.27432,-0.67664 0.2926,-0.29261 0.67664,-0.29261 z m 0.0366,2.28597 q 0.38404,0 0.65836,0.2926 0.2926,0.27432 0.2926,0.67665 0,0.40233 -0.27432,0.67664 -0.27431,0.27432 -0.67664,0.27432 -0.38404,0 -0.67665,-0.27432 -0.2926,-0.27431 -0.2926,-0.67664 0,-0.40233 0.27432,-0.67665 0.2926,-0.2926 0.69493,-0.2926 z m 9.14386,2.28596 q 0.38404,0 0.65836,0.29261 0.2926,0.27431 0.2926,0.67664 0,0.40233 -0.2926,0.67665 -0.27432,0.2926 -0.65836,0.2926 -0.40233,0 -0.69493,-0.2926 -0.27432,-0.27432 -0.27432,-0.67665 0,-0.40233 0.27432,-0.67664 0.2926,-0.29261 0.69493,-0.29261 z m 0,-11.42982 q 0.38404,0 0.65836,0.2926 0.2926,0.27432 0.2926,0.67665 0,0.40233 -0.27432,0.67664 -0.27431,0.27432 -0.67664,0.27432 -0.38404,0 -0.67665,-0.27432 -0.2926,-0.27431 -0.2926,-0.67664 0,-0.40233 0.27432,-0.67665 0.2926,-0.2926 0.69493,-0.2926 z m 0,2.28596 q 0.38404,0 0.65836,0.29261 0.2926,0.27431 0.2926,0.67664 0,0.40233 -0.27432,0.67665 -0.27431,0.27431 -0.67664,0.27431 -0.38404,0 -0.67665,-0.27431 -0.2926,-0.27432 -0.2926,-0.67665 0,-0.40233 0.27432,-0.67664 0.2926,-0.29261 0.69493,-0.29261 z m 0,2.28597 q 0.38404,0 0.65836,0.2926 0.2926,0.27432 0.2926,0.67665 0,0.40233 -0.27432,0.67664 -0.27431,0.27432 -0.67664,0.27432 -0.38404,0 -0.67665,-0.27432 -0.2926,-0.27431 -0.2926,-0.67664 0,-0.40233 0.27432,-0.67665 0.2926,-0.2926 0.69493,-0.2926 z m -0.0366,2.28596 q 0.40233,0 0.67665,0.29261 0.2926,0.27431 0.2926,0.67664 0,0.40233 -0.27431,0.67665 -0.27432,0.27431 -0.69494,0.27431 -0.38404,0 -0.67664,-0.27431 -0.27432,-0.29261 -0.27432,-0.67665 0,-0.40233 0.27432,-0.67664 0.2926,-0.29261 0.67664,-0.29261 z m 0.0366,2.28597 q 0.38404,0 0.65836,0.2926 0.2926,0.27432 0.2926,0.67665 0,0.40233 -0.27432,0.67664 -0.27431,0.27432 -0.67664,0.27432 -0.38404,0 -0.67665,-0.27432 -0.2926,-0.27431 -0.2926,-0.67664 0,-0.40233 0.27432,-0.67665 0.2926,-0.2926 0.69493,-0.2926 z m -3.43809,-6.8579 q 0.40233,0 0.67664,0.29261 0.29261,0.27431 0.29261,0.67664 0,0.40233 -0.27432,0.67665 -0.27431,0.27431 -0.69493,0.27431 -0.40233,0 -0.67665,-0.27431 -0.27431,-0.27432 -0.27431,-0.67665 0,-0.38404 0.27431,-0.67664 0.27432,-0.29261 0.67665,-0.29261 z m -2.28597,0 q 0.40233,0 0.67665,0.29261 0.2926,0.27431 0.2926,0.67664 0,0.40233 -0.27431,0.67665 -0.27432,0.27431 -0.69494,0.27431 -0.40233,0 -0.67664,-0.27431 -0.27432,-0.27432 -0.27432,-0.67665 0,-0.38404 0.27432,-0.67664 0.27431,-0.29261 0.67664,-0.29261 z m 1.15213,2.28597 q 0.38404,0 0.65836,0.2926 0.2926,0.27432 0.2926,0.67665 0,0.40233 -0.27432,0.67664 -0.27431,0.27432 -0.67664,0.27432 -0.38404,0 -0.67665,-0.27432 -0.2926,-0.27431 -0.2926,-0.67664 0,-0.40233 0.27432,-0.67665 0.2926,-0.2926 0.69493,-0.2926 z" />
    <path
       id="path4199"
       style="font-style:normal;font-variant:normal;font-weight:100;font-stretch:normal;font-size:18.28771973px;font-family:DotMatrix;-inkscape-font-specification:'DotMatrix Thin'"
       d="m 406.56474,118.38962 q 0.38404,0 0.65836,0.29261 0.2926,0.27431 0.2926,0.67664 0,0.40233 -0.27432,0.67665 -0.27431,0.27431 -0.67664,0.27431 -0.38404,0 -0.67665,-0.27431 -0.2926,-0.27432 -0.2926,-0.67665 0,-0.40233 0.27432,-0.67664 0.2926,-0.29261 0.69493,-0.29261 z m 0,6.8579 q 0.38404,0 0.65836,0.2926 0.2926,0.27432 0.2926,0.67665 0,0.40233 -0.27432,0.67664 -0.27431,0.27432 -0.67664,0.27432 -0.38404,0 -0.67665,-0.27432 -0.2926,-0.27431 -0.2926,-0.67664 0,-0.40233 0.27432,-0.67665 0.2926,-0.2926 0.69493,-0.2926 z m -2.28597,2.28596 q 0.38405,0 0.65836,0.29261 0.29261,0.27431 0.29261,0.67664 0,0.40233 -0.29261,0.67665 -0.27431,0.2926 -0.65836,0.2926 -0.40233,0 -0.69493,-0.2926 -0.27432,-0.27432 -0.27432,-0.67665 0,-0.40233 0.27432,-0.67664 0.2926,-0.29261 0.69493,-0.29261 z m 0,-9.14386 q 0.38405,0 0.65836,0.29261 0.29261,0.27431 0.29261,0.67664 0,0.40233 -0.27432,0.67665 -0.27432,0.27431 -0.67665,0.27431 -0.38404,0 -0.67664,-0.27431 -0.29261,-0.27432 -0.29261,-0.67665 0,-0.40233 0.27432,-0.67664 0.2926,-0.29261 0.69493,-0.29261 z m 4.57193,9.14386 q 0.38405,0 0.65836,0.29261 0.29261,0.27431 0.29261,0.67664 0,0.40233 -0.29261,0.67665 -0.27431,0.2926 -0.65836,0.2926 -0.40233,0 -0.69493,-0.2926 -0.27432,-0.27432 -0.27432,-0.67665 0,-0.40233 0.27432,-0.67664 0.2926,-0.29261 0.69493,-0.29261 z m -0.0366,-4.57193 q 0.40233,0 0.67664,0.29261 0.29261,0.27431 0.29261,0.67664 0,0.40233 -0.27432,0.67665 -0.27431,0.27431 -0.69493,0.27431 -0.38404,0 -0.67665,-0.27431 -0.27431,-0.29261 -0.27431,-0.67665 0,-0.40233 0.27431,-0.67664 0.29261,-0.29261 0.67665,-0.29261 z m 0.0366,2.28597 q 0.38405,0 0.65836,0.2926 0.29261,0.27432 0.29261,0.67665 0,0.40233 -0.27432,0.67664 -0.27432,0.27432 -0.67665,0.27432 -0.38404,0 -0.67664,-0.27432 -0.29261,-0.27431 -0.29261,-0.67664 0,-0.40233 0.27432,-0.67665 0.2926,-0.2926 0.69493,-0.2926 z m -6.85789,-4.57193 q 0.38404,0 0.65836,0.2926 0.2926,0.27432 0.2926,0.67665 0,0.40233 -0.27432,0.67664 -0.27431,0.27432 -0.67664,0.27432 -0.38404,0 -0.67665,-0.27432 -0.2926,-0.27431 -0.2926,-0.67664 0,-0.40233 0.27432,-0.67665 0.2926,-0.2926 0.69493,-0.2926 z m -0.0366,2.28596 q 0.40233,0 0.67665,0.29261 0.2926,0.27431 0.2926,0.67664 0,0.40233 -0.27431,0.67665 -0.27432,0.27431 -0.69494,0.27431 -0.38404,0 -0.67664,-0.27431 -0.27432,-0.29261 -0.27432,-0.67665 0,-0.40233 0.27432,-0.67664 0.2926,-0.29261 0.67664,-0.29261 z m 0.0366,2.28597 q 0.38404,0 0.65836,0.2926 0.2926,0.27432 0.2926,0.67665 0,0.40233 -0.27432,0.67664 -0.27431,0.27432 -0.67664,0.27432 -0.38404,0 -0.67665,-0.27432 -0.2926,-0.27431 -0.2926,-0.67664 0,-0.40233 0.27432,-0.67665 0.2926,-0.2926 0.69493,-0.2926 z m 6.85789,-6.8579 q 0.38405,0 0.65836,0.29261 0.29261,0.27431 0.29261,0.67664 0,0.40233 -0.27432,0.67665 -0.27432,0.27431 -0.67665,0.27431 -0.38404,0 -0.67664,-0.27431 -0.29261,-0.27432 -0.29261,-0.67665 0,-0.40233 0.27432,-0.67664 0.2926,-0.29261 0.69493,-0.29261 z m 0,2.28597 q 0.38405,0 0.65836,0.2926 0.29261,0.27432 0.29261,0.67665 0,0.40233 -0.27432,0.67664 -0.27432,0.27432 -0.67665,0.27432 -0.38404,0 -0.67664,-0.27432 -0.29261,-0.27431 -0.29261,-0.67664 0,-0.40233 0.27432,-0.67665 0.2926,-0.2926 0.69493,-0.2926 z" />
    <path
       id="path4201"
       style="font-style:normal;font-variant:normal;font-weight:100;font-stretch:normal;font-size:18.28771973px;font-family:DotMatrix;-inkscape-font-specification:'DotMatrix Thin'"
       d="m 417.99456,125.24752 q 0.38405,0 0.65836,0.2926 0.2926,0.27432 0.2926,0.67665 0,0.40233 -0.27431,0.67664 -0.27432,0.27432 -0.67665,0.27432 -0.38404,0 -0.67664,-0.27432 -0.29261,-0.27431 -0.29261,-0.67664 0,-0.40233 0.27432,-0.67665 0.2926,-0.2926 0.69493,-0.2926 z m -2.28596,2.28596 q 0.38404,0 0.65836,0.29261 0.2926,0.27431 0.2926,0.67664 0,0.40233 -0.2926,0.67665 -0.27432,0.2926 -0.65836,0.2926 -0.40233,0 -0.69493,-0.2926 -0.27432,-0.27432 -0.27432,-0.67665 0,-0.40233 0.27432,-0.67664 0.2926,-0.29261 0.69493,-0.29261 z m 6.85789,-2.28596 q 0.38405,0 0.65836,0.2926 0.2926,0.27432 0.2926,0.67665 0,0.40233 -0.27431,0.67664 -0.27432,0.27432 -0.67665,0.27432 -0.38404,0 -0.67664,-0.27432 -0.29261,-0.27431 -0.29261,-0.67664 0,-0.40233 0.27432,-0.67665 0.2926,-0.2926 0.69493,-0.2926 z m 2.28597,2.28596 q 0.38404,0 0.65836,0.29261 0.2926,0.27431 0.2926,0.67664 0,0.40233 -0.2926,0.67665 -0.27432,0.2926 -0.65836,0.2926 -0.40233,0 -0.69493,-0.2926 -0.27432,-0.27432 -0.27432,-0.67665 0,-0.40233 0.27432,-0.67664 0.2926,-0.29261 0.69493,-0.29261 z m -2.26768,-6.85789 q 0.40233,0 0.67665,0.27431 0.27431,0.27432 0.27431,0.69494 0,0.40233 -0.27431,0.67664 -0.27432,0.27432 -0.67665,0.27432 -0.38404,0 -0.67664,-0.27432 -0.29261,-0.27431 -0.29261,-0.67664 0,-0.40233 0.27432,-0.67665 0.2926,-0.2926 0.69493,-0.2926 z m -4.59022,0 q 0.38405,0 0.65836,0.2926 0.2926,0.27432 0.2926,0.67665 0,0.40233 -0.27431,0.67664 -0.27432,0.27432 -0.67665,0.27432 -0.38404,0 -0.67664,-0.27432 -0.29261,-0.27431 -0.29261,-0.67664 0,-0.40233 0.27432,-0.67665 0.2926,-0.2926 0.69493,-0.2926 z m 2.24939,2.28596 q 0.40233,0 0.67665,0.29261 0.2926,0.27431 0.2926,0.67664 0,0.40233 -0.27431,0.67665 -0.27432,0.27431 -0.69494,0.27431 -0.38404,0 -0.67664,-0.27431 -0.27432,-0.29261 -0.27432,-0.67665 0,-0.40233 0.27432,-0.67664 0.2926,-0.29261 0.67664,-0.29261 z m -4.53535,-4.57193 q 0.38404,0 0.65836,0.29261 0.2926,0.27431 0.2926,0.67664 0,0.40233 -0.27432,0.67665 -0.27431,0.27431 -0.67664,0.27431 -0.38404,0 -0.67665,-0.27431 -0.2926,-0.27432 -0.2926,-0.67665 0,-0.40233 0.27432,-0.67664 0.2926,-0.29261 0.69493,-0.29261 z m 9.14386,0 q 0.38404,0 0.65836,0.29261 0.2926,0.27431 0.2926,0.67664 0,0.40233 -0.27432,0.67665 -0.27431,0.27431 -0.67664,0.27431 -0.38404,0 -0.67665,-0.27431 -0.2926,-0.27432 -0.2926,-0.67665 0,-0.40233 0.27432,-0.67664 0.2926,-0.29261 0.69493,-0.29261 z" />
    <path
       id="path4203"
       style="font-style:normal;font-variant:normal;font-weight:100;font-stretch:normal;font-size:18.28771973px;font-family:DotMatrix;-inkscape-font-specification:'DotMatrix Thin'"
       d="m 438.56825,116.10366 q 0.38404,0 0.65836,0.2926 0.2926,0.27432 0.2926,0.67665 0,0.40233 -0.27432,0.67664 -0.27431,0.27432 -0.67664,0.27432 -0.38404,0 -0.67665,-0.27432 -0.2926,-0.27431 -0.2926,-0.67664 0,-0.40233 0.27431,-0.67665 0.29261,-0.2926 0.69494,-0.2926 z m 0,2.28596 q 0.38404,0 0.65836,0.29261 0.2926,0.27431 0.2926,0.67664 0,0.40233 -0.27432,0.67665 -0.27431,0.27431 -0.67664,0.27431 -0.38404,0 -0.67665,-0.27431 -0.2926,-0.27432 -0.2926,-0.67665 0,-0.40233 0.27431,-0.67664 0.29261,-0.29261 0.69494,-0.29261 z m -4.57193,2.28597 q 0.38404,0 0.65836,0.2926 0.2926,0.27432 0.2926,0.67665 0,0.40233 -0.27432,0.67664 -0.27431,0.27432 -0.67664,0.27432 -0.38404,0 -0.67665,-0.27432 -0.2926,-0.27431 -0.2926,-0.67664 0,-0.40233 0.27431,-0.67665 0.29261,-0.2926 0.69494,-0.2926 z m -4.57193,6.85789 q 0.38404,0 0.65836,0.29261 0.2926,0.27431 0.2926,0.67664 0,0.40233 -0.2926,0.67665 -0.27432,0.2926 -0.65836,0.2926 -0.40233,0 -0.69494,-0.2926 -0.27431,-0.27432 -0.27431,-0.67665 0,-0.40233 0.27431,-0.67664 0.29261,-0.29261 0.69494,-0.29261 z m 0,-13.71579 q 0.38404,0 0.65836,0.29261 0.2926,0.27431 0.2926,0.67664 0,0.40233 -0.27432,0.67665 -0.27431,0.27431 -0.67664,0.27431 -0.38404,0 -0.67665,-0.27431 -0.2926,-0.27432 -0.2926,-0.67665 0,-0.40233 0.27431,-0.67664 0.29261,-0.29261 0.69494,-0.29261 z m 6.85789,6.8579 q 0.38405,0 0.65836,0.2926 0.2926,0.27432 0.2926,0.67665 0,0.40233 -0.27431,0.67664 -0.27432,0.27432 -0.67665,0.27432 -0.38404,0 -0.67664,-0.27432 -0.29261,-0.27431 -0.29261,-0.67664 0,-0.40233 0.27432,-0.67665 0.2926,-0.2926 0.69493,-0.2926 z m -6.85789,-4.57193 q 0.38404,0 0.65836,0.2926 0.2926,0.27432 0.2926,0.67665 0,0.40233 -0.27432,0.67664 -0.27431,0.27432 -0.67664,0.27432 -0.38404,0 -0.67665,-0.27432 -0.2926,-0.27431 -0.2926,-0.67664 0,-0.40233 0.27431,-0.67665 0.29261,-0.2926 0.69494,-0.2926 z m 0,2.28596 q 0.38404,0 0.65836,0.29261 0.2926,0.27431 0.2926,0.67664 0,0.40233 -0.27432,0.67665 -0.27431,0.27431 -0.67664,0.27431 -0.38404,0 -0.67665,-0.27431 -0.2926,-0.27432 -0.2926,-0.67665 0,-0.40233 0.27431,-0.67664 0.29261,-0.29261 0.69494,-0.29261 z m 0,2.28597 q 0.38404,0 0.65836,0.2926 0.2926,0.27432 0.2926,0.67665 0,0.40233 -0.27432,0.67664 -0.27431,0.27432 -0.67664,0.27432 -0.38404,0 -0.67665,-0.27432 -0.2926,-0.27431 -0.2926,-0.67664 0,-0.40233 0.27431,-0.67665 0.29261,-0.2926 0.69494,-0.2926 z m -0.0366,2.28596 q 0.40233,0 0.67665,0.29261 0.2926,0.27431 0.2926,0.67664 0,0.40233 -0.27431,0.67665 -0.27432,0.27431 -0.69494,0.27431 -0.38404,0 -0.67664,-0.27431 -0.27432,-0.29261 -0.27432,-0.67665 0,-0.40233 0.27432,-0.67664 0.2926,-0.29261 0.67664,-0.29261 z m 0.0366,2.28597 q 0.38404,0 0.65836,0.2926 0.2926,0.27432 0.2926,0.67665 0,0.40233 -0.27432,0.67664 -0.27431,0.27432 -0.67664,0.27432 -0.38404,0 -0.67665,-0.27432 -0.2926,-0.27431 -0.2926,-0.67664 0,-0.40233 0.27431,-0.67665 0.29261,-0.2926 0.69494,-0.2926 z m 2.28596,-4.57193 q 0.38405,0 0.65836,0.2926 0.2926,0.27432 0.2926,0.67665 0,0.40233 -0.27431,0.67664 -0.27432,0.27432 -0.67665,0.27432 -0.38404,0 -0.67664,-0.27432 -0.29261,-0.27431 -0.29261,-0.67664 0,-0.40233 0.27432,-0.67665 0.2926,-0.2926 0.69493,-0.2926 z m 0,-6.8579 q 0.38405,0 0.65836,0.29261 0.2926,0.27431 0.2926,0.67664 0,0.40233 -0.27431,0.67665 -0.27432,0.27431 -0.67665,0.27431 -0.38404,0 -0.67664,-0.27431 -0.29261,-0.27432 -0.29261,-0.67665 0,-0.40233 0.27432,-0.67664 0.2926,-0.29261 0.69493,-0.29261 z m 2.28597,0 q 0.38404,0 0.65836,0.29261 0.2926,0.27431 0.2926,0.67664 0,0.40233 -0.27432,0.67665 -0.27431,0.27431 -0.67664,0.27431 -0.38404,0 -0.67665,-0.27431 -0.2926,-0.27432 -0.2926,-0.67665 0,-0.40233 0.27431,-0.67664 0.29261,-0.29261 0.69494,-0.29261 z m 2.28596,0 q 0.38405,0 0.65836,0.29261 0.2926,0.27431 0.2926,0.67664 0,0.40233 -0.27431,0.67665 -0.27432,0.27431 -0.67665,0.27431 -0.38404,0 -0.67664,-0.27431 -0.29261,-0.27432 -0.29261,-0.67665 0,-0.40233 0.27432,-0.67664 0.2926,-0.29261 0.69493,-0.29261 z" />
    <path
       id="path4205"
       style="font-style:normal;font-variant:normal;font-weight:100;font-stretch:normal;font-size:18.28771973px;font-family:DotMatrix;-inkscape-font-specification:'DotMatrix Thin'"
       d="m 447.71211,120.30983 q -0.38404,0 -0.67665,-0.27431 -0.2926,-0.27432 -0.2926,-0.67665 0,-0.40233 0.27431,-0.67664 0.29261,-0.29261 0.69494,-0.29261 0.38404,0 0.65836,0.29261 0.2926,0.27431 0.2926,0.67664 0,0.40233 -0.27432,0.67665 -0.27431,0.27431 -0.67664,0.27431 z m 2.28596,0 q -0.38404,0 -0.67664,-0.27431 -0.29261,-0.27432 -0.29261,-0.67665 0,-0.40233 0.27432,-0.67664 0.2926,-0.29261 0.69493,-0.29261 0.38405,0 0.65836,0.29261 0.2926,0.27431 0.2926,0.67664 0,0.40233 -0.27431,0.67665 -0.27432,0.27431 -0.67665,0.27431 z m -4.57193,2.28597 q -0.38404,0 -0.67664,-0.27432 -0.29261,-0.27431 -0.29261,-0.67664 0,-0.40233 0.27432,-0.67665 0.2926,-0.2926 0.69493,-0.2926 0.38405,0 0.65836,0.2926 0.2926,0.27432 0.2926,0.67665 0,0.40233 -0.27431,0.67664 -0.27432,0.27432 -0.67665,0.27432 z m -2.28596,6.87618 q -0.40233,0 -0.69494,-0.2926 -0.27431,-0.27432 -0.27431,-0.67665 0,-0.40233 0.27431,-0.67664 0.29261,-0.29261 0.69494,-0.29261 0.38404,0 0.65836,0.29261 0.2926,0.27431 0.2926,0.67664 0,0.40233 -0.2926,0.67665 -0.27432,0.2926 -0.65836,0.2926 z m -0.0366,-2.30425 q -0.38404,0 -0.67664,-0.27432 -0.27432,-0.2926 -0.27432,-0.67664 0,-0.40233 0.27432,-0.67665 0.2926,-0.2926 0.67664,-0.2926 0.40233,0 0.67665,0.2926 0.2926,0.27432 0.2926,0.67665 0,0.40233 -0.27431,0.67664 -0.27432,0.27432 -0.69494,0.27432 z m 0.0366,-2.28597 q -0.38404,0 -0.67665,-0.27431 -0.2926,-0.27432 -0.2926,-0.67665 0,-0.40233 0.27431,-0.67664 0.29261,-0.29261 0.69494,-0.29261 0.38404,0 0.65836,0.29261 0.2926,0.27431 0.2926,0.67664 0,0.40233 -0.27432,0.67665 -0.27431,0.27431 -0.67664,0.27431 z m -0.0366,-4.57193 q -0.38404,0 -0.67664,-0.27431 -0.27432,-0.29261 -0.27432,-0.67665 0,-0.40233 0.27432,-0.67664 0.2926,-0.29261 0.67664,-0.29261 0.40233,0 0.67665,0.29261 0.2926,0.27431 0.2926,0.67664 0,0.40233 -0.27431,0.67665 -0.27432,0.27431 -0.69494,0.27431 z m 0,2.28597 q -0.38404,0 -0.67664,-0.27432 -0.27432,-0.2926 -0.27432,-0.67664 0,-0.40233 0.27432,-0.67665 0.2926,-0.2926 0.67664,-0.2926 0.40233,0 0.67665,0.2926 0.2926,0.27432 0.2926,0.67665 0,0.40233 -0.27431,0.67664 -0.27432,0.27432 -0.69494,0.27432 z" />
    <path
       id="path4207"
       style="font-style:normal;font-variant:normal;font-weight:100;font-stretch:normal;font-size:18.28771973px;font-family:DotMatrix;-inkscape-font-specification:'DotMatrix Thin'"
       d="m 461.4279,118.38962 q 0.38404,0 0.65836,0.29261 0.2926,0.27431 0.2926,0.67664 0,0.40233 -0.27432,0.67665 -0.27431,0.27431 -0.67664,0.27431 -0.38404,0 -0.67665,-0.27431 -0.2926,-0.27432 -0.2926,-0.67665 0,-0.40233 0.27431,-0.67664 0.29261,-0.29261 0.69494,-0.29261 z m 0,9.14386 q 0.38404,0 0.65836,0.29261 0.2926,0.27431 0.2926,0.67664 0,0.40233 -0.2926,0.67665 -0.27432,0.2926 -0.65836,0.2926 -0.40233,0 -0.69494,-0.2926 -0.27431,-0.27432 -0.27431,-0.67665 0,-0.40233 0.27431,-0.67664 0.29261,-0.29261 0.69494,-0.29261 z m -2.28597,0 q 0.38404,0 0.65836,0.29261 0.2926,0.27431 0.2926,0.67664 0,0.40233 -0.2926,0.67665 -0.27432,0.2926 -0.65836,0.2926 -0.40233,0 -0.69493,-0.2926 -0.27432,-0.27432 -0.27432,-0.67665 0,-0.40233 0.27432,-0.67664 0.2926,-0.29261 0.69493,-0.29261 z m 0,-9.14386 q 0.38404,0 0.65836,0.29261 0.2926,0.27431 0.2926,0.67664 0,0.40233 -0.27431,0.67665 -0.27432,0.27431 -0.67665,0.27431 -0.38404,0 -0.67664,-0.27431 -0.29261,-0.27432 -0.29261,-0.67665 0,-0.40233 0.27432,-0.67664 0.2926,-0.29261 0.69493,-0.29261 z m 4.57193,9.14386 q 0.38404,0 0.65836,0.29261 0.2926,0.27431 0.2926,0.67664 0,0.40233 -0.2926,0.67665 -0.27432,0.2926 -0.65836,0.2926 -0.40233,0 -0.69493,-0.2926 -0.27432,-0.27432 -0.27432,-0.67665 0,-0.40233 0.27432,-0.67664 0.2926,-0.29261 0.69493,-0.29261 z m 0,-9.14386 q 0.38404,0 0.65836,0.29261 0.2926,0.27431 0.2926,0.67664 0,0.40233 -0.27431,0.67665 -0.27432,0.27431 -0.67665,0.27431 -0.38404,0 -0.67664,-0.27431 -0.29261,-0.27432 -0.29261,-0.67665 0,-0.40233 0.27432,-0.67664 0.2926,-0.29261 0.69493,-0.29261 z m 2.30426,2.28597 q 0.40233,0 0.67664,0.27431 0.27432,0.27432 0.27432,0.69494 0,0.40233 -0.27432,0.67664 -0.27431,0.27432 -0.67664,0.27432 -0.38405,0 -0.67665,-0.27432 -0.2926,-0.27431 -0.2926,-0.67664 0,-0.40233 0.27431,-0.67665 0.29261,-0.2926 0.69494,-0.2926 z m -0.0183,2.28596 q 0.38404,0 0.65836,0.29261 0.2926,0.27431 0.2926,0.67664 0,0.40233 -0.27432,0.67665 -0.27431,0.27431 -0.67664,0.27431 -0.38404,0 -0.67665,-0.27431 -0.2926,-0.27432 -0.2926,-0.67665 0,-0.40233 0.27431,-0.67664 0.29261,-0.29261 0.69494,-0.29261 z m 0.0183,2.28597 q 0.40233,0 0.67664,0.27431 0.27432,0.27432 0.27432,0.69494 0,0.40233 -0.27432,0.67664 -0.27431,0.27432 -0.67664,0.27432 -0.38405,0 -0.67665,-0.27432 -0.2926,-0.27431 -0.2926,-0.67664 0,-0.40233 0.27431,-0.67665 0.29261,-0.2926 0.69494,-0.2926 z m -9.16215,-4.57193 q 0.38404,0 0.65836,0.2926 0.2926,0.27432 0.2926,0.67665 0,0.40233 -0.27432,0.67664 -0.27431,0.27432 -0.67664,0.27432 -0.38404,0 -0.67665,-0.27432 -0.2926,-0.27431 -0.2926,-0.67664 0,-0.40233 0.27431,-0.67665 0.29261,-0.2926 0.69494,-0.2926 z m -0.0366,2.28596 q 0.40233,0 0.67665,0.29261 0.2926,0.27431 0.2926,0.67664 0,0.40233 -0.27431,0.67665 -0.27432,0.27431 -0.69494,0.27431 -0.38404,0 -0.67664,-0.27431 -0.27432,-0.29261 -0.27432,-0.67665 0,-0.40233 0.27432,-0.67664 0.2926,-0.29261 0.67664,-0.29261 z m 0.0366,2.28597 q 0.38404,0 0.65836,0.2926 0.2926,0.27432 0.2926,0.67665 0,0.40233 -0.27432,0.67664 -0.27431,0.27432 -0.67664,0.27432 -0.38404,0 -0.67665,-0.27432 -0.2926,-0.27431 -0.2926,-0.67664 0,-0.40233 0.27431,-0.67665 0.29261,-0.2926 0.69494,-0.2926 z" />
  </g>
  <path
     id="path4298"
     d="m 269.64286,193.21428 0,8.57143 c 0.40752,1.70825 1.62214,3.18731 3.18398,3.99034 0.78092,0.40152 1.63734,0.64474 2.50646,0.76995 0.86912,0.12522 1.75036,0.13302 2.62845,0.1351 l 44.18111,0.10461 0.35714,-13.21429 -52.85714,-0.35714 z"
     style="fill:none;fill-rule:evenodd;stroke:#000000;stroke-width:1px;stroke-linecap:butt;stroke-linejoin:miter;stroke-opacity:1" />
  <path
     id="path4298-4"
     d="m 375.5069,193.24978 0,8.57143 c -0.40752,1.70825 -1.62214,3.18731 -3.18398,3.99034 -0.78092,0.40152 -1.63734,0.64474 -2.50646,0.76995 -0.86912,0.12522 -1.75036,0.13302 -2.62845,0.1351 l -44.18111,0.10461 -0.35714,-13.21429 52.85714,-0.35714 z"
     style="fill:none;fill-rule:evenodd;stroke:#000000;stroke-width:1px;stroke-linecap:butt;stroke-linejoin:miter;stroke-opacity:1" />
  <path
     id="path3"
     d="m 289.57786,204.83614 5.9081,-4.17042 -5.9081,-4.17043 0,8.34085 z m 6.25561,-8.34085 0,8.34085 5.9081,-4.17042 -5.9081,-4.17043 z" />
  <ellipse
     ry="2.2097087"
     rx="2.2728431"
     cy="217.39638"
     cx="322.66101"
     id="path4326"
     style="fill:#000000;fill-opacity:1;fill-rule:nonzero;stroke:none;stroke-width:1;stroke-linecap:round;stroke-linejoin:round;stroke-miterlimit:4;stroke-dasharray:none;stroke-opacity:1" />
  <ellipse
     ry="2.2097087"
     rx="2.2728431"
     cy="224.0255"
     cx="322.78729"
     id="path4326-2"
     style="fill:#000000;fill-opacity:1;fill-rule:nonzero;stroke:none;stroke-width:1;stroke-linecap:round;stroke-linejoin:round;stroke-miterlimit:4;stroke-dasharray:none;stroke-opacity:1" />
  <ellipse
     ry="2.2097087"
     rx="2.2728431"
     cy="230.71776"
     cx="322.91354"
     id="path4326-5"
     style="fill:#000000;fill-opacity:1;fill-rule:nonzero;stroke:none;stroke-width:1;stroke-linecap:round;stroke-linejoin:round;stroke-miterlimit:4;stroke-dasharray:none;stroke-opacity:1" />
  <path
     id="path4"
     d="m 339.85389,197.70797 c 1.63462,0 2.95778,1.3221 2.95778,2.95775 0,1.63459 -1.32289,2.95774 -2.95778,2.95777 -1.63459,0 -2.95777,-1.32283 -2.95777,-2.95774 0,-1.63394 1.32208,-2.95781 2.95777,-2.95781 m 0,-0.71268 c -2.02717,-3e-5 -3.6705,1.64277 -3.6705,3.67046 0,2.02768 1.64282,3.67049 3.6705,3.67045 2.02715,0 3.6705,-1.64333 3.6705,-3.67045 0,-2.02769 -1.64282,-3.6705 -3.6705,-3.67046 l 0,0 z m -0.0612,5.73392 c -0.50265,0.17662 -0.91702,-0.0259 -0.83389,-0.50865 0.0831,-0.48284 0.56012,-1.51647 0.62816,-1.71194 0.068,-0.19546 -0.0624,-0.24903 -0.20216,-0.1695 -0.0806,0.0465 -0.20042,0.13971 -0.30326,0.2303 -0.0285,-0.0575 -0.0686,-0.12305 -0.0987,-0.18589 0.16782,-0.16819 0.44836,-0.39367 0.78048,-0.47541 0.3968,-0.0979 1.06016,0.0588 0.77507,0.8171 -0.20354,0.5406 -0.3475,0.91364 -0.43821,1.19202 -0.0907,0.27796 0.0179,0.33676 0.1764,0.22791 0.12399,-0.0847 0.25608,-0.19981 0.3529,-0.28911 0.0448,0.073 0.0588,0.0962 0.10335,0.17996 -0.16874,0.171 -0.60808,0.57547 -0.9395,0.69321 z m 1.04146,-3.34409 c -0.22798,0.19405 -0.5659,0.18984 -0.75495,-0.009 -0.189,-0.19923 -0.15746,-0.51808 0.0705,-0.71217 0.22797,-0.19404 0.56596,-0.18983 0.75549,0.009 0.18844,0.1991 0.15678,0.51804 -0.0713,0.71273 z" />
</svg>
