<?xml version="1.0" encoding="UTF-8" standalone="no"?>
<svg
   xmlns:dc="http://purl.org/dc/elements/1.1/"
   xmlns:cc="http://creativecommons.org/ns#"
   xmlns:rdf="http://www.w3.org/1999/02/22-rdf-syntax-ns#"
   xmlns:svg="http://www.w3.org/2000/svg"
   xmlns="http://www.w3.org/2000/svg"
   xmlns:sodipodi="http://sodipodi.sourceforge.net/DTD/sodipodi-0.dtd"
   xmlns:inkscape="http://www.inkscape.org/namespaces/inkscape"
   version="1.1"
   viewBox="0 0 1000 999.99997"
   id="us"
   inkscape:version="0.91 r13725"
   sodipodi:docname="state.svg"
   width="1000"
   height="1000">
  <sodipodi:namedview
     pagecolor="#ffffff"
     bordercolor="#666666"
     borderopacity="1"
     objecttolerance="10"
     gridtolerance="10"
     guidetolerance="10"
     inkscape:pageopacity="0"
     inkscape:pageshadow="2"
     inkscape:window-width="1388"
     inkscape:window-height="686"
     id="namedview11"
     showgrid="false"
     inkscape:zoom="0.32266884"
     inkscape:cx="470.12495"
     inkscape:cy="483.70371"
     inkscape:window-x="1658"
     inkscape:window-y="637"
     inkscape:window-maximized="0"
     inkscape:current-layer="us" />
  <metadata
     id="metadata19">
    <rdf:RDF>
      <cc:Work
         rdf:about="">
        <dc:format>image/svg+xml</dc:format>
        <dc:type
           rdf:resource="http://purl.org/dc/dcmitype/StillImage" />
        <dc:title>urban-security</dc:title>
      </cc:Work>
    </rdf:RDF>
  </metadata>
  <defs
     id="defs3">
    <style
       id="style5">.cls-1{fill:#0f436d;}</style>
  </defs>
  <title
     id="title7">urban-security</title>
  <path
     style="fill:#000800;fill-opacity:1"
     id="path9"
     d="m 501.7973,997.34038 c -129.53655,0 -477.090898,-336.06536 -477.090898,-498.21747 l 0,-362.25585 33.1056,2.23245 c 2.0691,0 225.531898,13.2858 426.180148,-125.234994 L 501.7973,1.6132658 519.60245,13.973416 C 721.06745,153.03871 943.65905,139.20841 945.7826,139.20841 l 33.1056,-2.34135 0,362.36475 c 0,135.14491 -321.7995,498.10857 -477.0909,498.10857 z M 86.561602,200.08351 l 0,299.0394 c 0,125.23501 317.116798,437.66911 415.235698,437.66911 101.44035,0 415.2357,-307.91475 415.2357,-437.66911 l 0,-299.0394 C 845.54015,199.15786 670.4834,184.56526 501.7973,75.338566 333.1112,184.56526 158.05445,199.15786 86.561602,200.08351 Z"
     class="cls-1"
     inkscape:connector-curvature="0" />
  <polygon
     style="fill:#000000;fill-opacity:1"
     id="polygon11"
     points="96.29,123.68 121.44,123.68 121.44,98.04 87.62,68.05 53.79,98.04 53.79,123.68 78.94,123.68 78.94,98.71 96.29,98.71 96.29,98.71 "
     class="cls-1"
     transform="matrix(5.5,0,0,5.5,19.942302,-3.305659)" />
  <polygon
     style="fill:#000000;fill-opacity:1"
     id="polygon13"
     points="87.62,44.32 134.23,84.89 126.69,93.2 126.69,93.2 87.62,59.19 48.55,93.2 41.01,84.89 "
     class="cls-1"
     transform="matrix(5.5,0,0,5.5,19.942302,-3.305659)" />
  <rect
     style="fill:#000000;fill-opacity:1"
     id="rect15"
     height="119.295"
     width="61.710003"
     y="288.46945"
     x="615.9223"
     class="cls-1" />
</svg>
