<?xml version="1.0" encoding="UTF-8" standalone="no"?>
<svg
   xmlns:dc="http://purl.org/dc/elements/1.1/"
   xmlns:cc="http://creativecommons.org/ns#"
   xmlns:rdf="http://www.w3.org/1999/02/22-rdf-syntax-ns#"
   xmlns:svg="http://www.w3.org/2000/svg"
   xmlns="http://www.w3.org/2000/svg"
   xmlns:sodipodi="http://sodipodi.sourceforge.net/DTD/sodipodi-0.dtd"
   xmlns:inkscape="http://www.inkscape.org/namespaces/inkscape"
   version="1.1"
   id="svg2"
   viewBox="0 0 1000 1000"
   height="1000"
   width="1000"
   inkscape:version="0.91 r13725"
   sodipodi:docname="icon.svg">
  <sodipodi:namedview
     pagecolor="#ffffff"
     bordercolor="#666666"
     borderopacity="1"
     objecttolerance="10"
     gridtolerance="10"
     guidetolerance="10"
     inkscape:pageopacity="0"
     inkscape:pageshadow="2"
     inkscape:window-width="1427"
     inkscape:window-height="730"
     id="namedview15"
     showgrid="false"
     inkscape:zoom="0.472"
     inkscape:cx="1011.7986"
     inkscape:cy="624.96659"
     inkscape:window-x="995"
     inkscape:window-y="541"
     inkscape:window-maximized="0"
     inkscape:current-layer="svg2" />
  <defs
     id="defs4" />
  <metadata
     id="metadata7">
    <rdf:RDF>
      <cc:Work
         rdf:about="">
        <dc:format>image/svg+xml</dc:format>
        <dc:type
           rdf:resource="http://purl.org/dc/dcmitype/StillImage" />
        <dc:title />
      </cc:Work>
    </rdf:RDF>
  </metadata>
  <g
     transform="translate(2.8492757,217.12904)"
     id="g6">
    <g
       transform="matrix(0.1,0,0,-0.1,0,511)"
       id="g8">
      <path
         inkscape:connector-curvature="0"
         d="m 508.5,2316.7 c -198.5,-68.2 -348.9,-234.6 -391,-431.1 -16,-74.2 -20,-619.5 -16,-1838.6 6,-1726.3 6,-1734.3 48.1,-1826.6 56.1,-120.3 186.5,-250.6 306.8,-306.8 l 92.2,-42.1 4451.1,0 4451.1,0 92.2,42.1 c 120.3,56.1 250.6,186.5 306.8,306.8 42.1,92.2 42.1,100.3 48.1,1844.6 6,1960.9 10,1878.7 -134.3,2063.1 -54.1,68.2 -118.3,118.3 -196.5,156.4 l -116.3,58.1 -4421,4 c -4152.4,4.2 -4427.1,2.2 -4521.3,-29.9 z m 8890.1,-392.9 c 30.1,-16 64.2,-52.1 78.2,-82.2 18.1,-38.1 24.1,-473.2 24.1,-1734.3 0,-1261.1 -6,-1696.2 -24.1,-1734.3 -52.1,-116.3 54.1,-110.3 -2311.7,-110.3 l -2175.5,0 0,1844.5 0,1844.6 2175.4,0 c 1844.6,0 2185.4,-4 2233.6,-28 z M 2892.4,1290.2 c 302.8,-76.2 541.3,-254.6 699.7,-523.3 240.6,-409 250.6,-1010.5 22.1,-1463.6 -52.2,-104.3 -116.3,-190.5 -216.6,-288.8 -236.6,-232.6 -503.3,-334.8 -874.2,-336.8 -368.9,0 -615.5,96.2 -854.1,334.8 -230.6,230.6 -340.8,503.3 -360.9,894.2 -32,581.5 228.6,1072.7 681.7,1293.3 100.2,48.1 228.6,96.2 282.7,106.3 180.5,34 453.2,28 619.6,-16.1 z"
         id="path10" />
      <path
         inkscape:connector-curvature="0"
         d="m 6834.2,1039.6 c -170.4,-80.2 -308.8,-154.4 -308.8,-162.4 10,-78.2 76.2,-370.9 88.2,-387 8,-16 90.2,14 242.6,86.2 l 228.6,108.3 6,-980.4 4,-980.4 280.7,0 280.7,0 0,1233 0,1233.1 -254.6,-2 -256.6,0 -310.8,-148.4 z"
         id="path12" />
      <path
         inkscape:connector-curvature="0"
         d="M 2367.1,841.1 C 2110.4,756.8 1948,476.2 1928,77.2 c -22,-441.1 126.3,-773.9 397,-892.2 154.4,-64.2 354.9,-52.1 491.2,30.1 186.5,116.3 294.7,320.8 334.8,633.6 52.1,419 -104.3,824.1 -376.9,964.4 -100.3,52 -292.7,66.1 -407,28 z"
         id="path14" />
    </g>
  </g>
  <text
     sodipodi:linespacing="125%"
     xml:space="preserve"
     style="font-style:normal;font-weight:normal;font-size:60px;line-height:125%;font-family:sans-serif;letter-spacing:0px;word-spacing:0px;fill:#000000;fill-opacity:1;stroke:none;stroke-width:1px;stroke-linecap:butt;stroke-linejoin:miter;stroke-opacity:1"
     x="350.62933"
     y="338.10193"
     id="text4150"><tspan
       id="tspan4152"
       x="350.62933"
       y="338.10193"
       style="font-style:normal;font-variant:normal;font-weight:bold;font-stretch:normal;font-size:270px;font-family:sans-serif;-inkscape-font-specification:'sans-serif Bold'">PGM</tspan></text>
  <rect
     y="88.524315"
     x="13.925228"
     height="290.95139"
     width="300.14951"
     id="rect4146"
     style="fill:none;fill-opacity:1;fill-rule:nonzero;stroke:#000000;stroke-width:9.85048866;stroke-linecap:round;stroke-linejoin:round;stroke-miterlimit:4;stroke-dasharray:none;stroke-opacity:1" />
  <path
     inkscape:connector-curvature="0"
     id="path4150"
     d="m 164,90.014139 0,16.273581 c 26.45718,-0.21814 52.94458,3.73698 78.18396,11.67452 22.36272,7.03286 43.74204,17.18506 63.32548,30.07076 l -15.91982,25.82548 c -17.04882,-11.73142 -35.82906,-20.94212 -55.54244,-27.24058 -22.2397,-7.10562 -45.6398,-10.4942 -68.98586,-10.25942 -20.92788,0.21046 -41.82282,3.32354 -61.91038,9.1981 -22.723117,6.64532 -44.407797,16.82874 -64.033017,30.07076 l 18.39622,27.59434 c 16.98238,-12.1636 36.118897,-21.31062 56.249997,-26.8868 16.67168,-4.61794 33.9979,-6.79214 51.29718,-6.7217 21.26836,0.0866 42.54706,3.57674 62.61792,10.61322 15.27422,5.35486 29.83084,12.7525 43.16038,21.93396 l -16.98112,25.11792 c -10.42436,-6.84556 -21.59706,-12.55076 -33.25472,-16.98112 -17.49362,-6.64824 -36.12166,-10.414 -54.83492,-10.61322 -17.16004,-0.1826 -34.3343,2.63544 -50.58962,8.1368 -14.33694,4.85212 -27.96724,11.78684 -40.330197,20.51886 l 19.103777,28.65568 c 8.77512,-7.03046 18.75042,-12.55894 29.3632,-16.2736 14.57206,-5.10046 30.2154,-6.74902 45.6368,-6.01414 13.8708,0.66098 27.69012,3.23826 40.68398,8.13678 8.45754,3.1884 16.54696,7.35206 24.0566,12.38208 l -15.91982,25.11792 c -5.65056,-4.1073 -11.8568,-7.44912 -18.39624,-9.90566 -9.80992,-3.68508 -20.30344,-5.35722 -30.7783,-5.66038 -9.75926,-0.28244 -19.58984,0.616 -29.00942,3.18396 -10.3418,2.81938 -20.13034,7.65324 -28.65566,14.15096 l 18.75,29.00942 c 4.62552,-4.33914 10.22998,-7.62872 16.27358,-9.55188 6.81592,-2.16892 14.08924,-2.59338 21.22642,-2.12264 7.5153,0.49568 15.0125,1.98314 21.93396,4.95282 3.35302,1.43862 6.559,3.21972 9.55188,5.3066 l -16.62736,25.4717 c -2.62194,-2.42148 -5.7894,-4.24886 -9.1981,-5.3066 -3.07716,-0.95486 -6.33766,-1.28344 -9.5519,-1.06132 -3.41264,0.23582 -6.77854,1.08972 -9.90566,2.47642 -2.97286,1.3183 -5.73178,3.1176 -8.13678,5.3066 l 18.75,25.11792 0,16.27358 150,-0.35376 L 312.93868,90.721679 164,89.660359"
     style="fill:#000000;fill-opacity:1;fill-rule:evenodd;stroke:none;stroke-width:1px;stroke-linecap:butt;stroke-linejoin:miter;stroke-opacity:1" />
</svg>
