<?xml version="1.0" encoding="UTF-8" standalone="no"?>
<svg
   xmlns:dc="http://purl.org/dc/elements/1.1/"
   xmlns:cc="http://creativecommons.org/ns#"
   xmlns:rdf="http://www.w3.org/1999/02/22-rdf-syntax-ns#"
   xmlns:svg="http://www.w3.org/2000/svg"
   xmlns="http://www.w3.org/2000/svg"
   version="1.1"
   id="svg2"
   viewBox="0 0 1000 1000"
   height="1000"
   width="1000">
  <defs
     id="defs4" />
  <metadata
     id="metadata7">
    <rdf:RDF>
      <cc:Work
         rdf:about="">
        <dc:format>image/svg+xml</dc:format>
        <dc:type
           rdf:resource="http://purl.org/dc/dcmitype/StillImage" />
        <dc:title></dc:title>
      </cc:Work>
    </rdf:RDF>
  </metadata>
  <g
     transform="translate(0,-52.3622)"
     id="layer1">
    <path
       id="path4158"
       d="M 147.0286,930.40667 C 138.87678,887.79026 128.27724,832.08167 123.47406,806.60979 118.67088,781.13792 93.07368,645.93958 66.591398,506.16906 40.109112,366.39854 18.441791,249.23179 18.441791,245.7985 c 0,-6.58016 -6.691542,-5.36869 375.843749,-68.0444 58.78125,-9.63089 179.81719,-29.58437 268.96875,-44.34105 89.15156,-14.75669 165.4964,-26.83128 169.6552,-26.83242 9.35362,-0.003 -0.76805,-48.600228 86.81106,416.81041 25.62517,136.17657 50.5439,267.4881 55.37497,291.80341 4.83108,24.31528 8.78376,47.60053 8.78376,51.74492 0,7.17431 -8.06407,8.8644 -168.32812,35.27848 -92.58046,15.25876 -274.61177,45.27745 -404.51403,66.7082 -129.90226,21.4308 -239.11118,38.96495 -242.68649,38.96495 -5.63886,0 -8.46525,-10.27112 -21.32204,-77.48433 z M 499.37929,781.35915 c 147.93281,-24.66159 269.18927,-45.10026 269.45878,-45.41928 0.26932,-0.3192 1.64854,-10.7658 3.06453,-23.21499 l 2.57451,-22.63495 -10.18953,2.14819 c -21.91843,4.62088 -529.32394,87.65292 -535.64349,87.65292 -8.91759,0 -9.74923,1.82824 -12.70141,27.92195 -2.51351,22.2165 -2.48302,22.32042 5.97073,20.35791 4.67343,-1.08493 129.53307,-22.1502 277.46588,-46.81175 z m -233.22623,-33.90108 17.93002,-3.37617 20.34731,-40.8767 c 24.26677,-48.75064 22.29597,-48.22467 43.03695,-11.48603 9.12595,16.16484 17.97029,31.5454 19.65411,34.17901 2.68997,4.20732 54.46527,-0.13146 60.47144,-5.06751 1.24403,-1.02237 -37.90365,-64.85538 -57.02776,-92.98777 -13.23215,-19.46507 -15.15747,-13.03049 25.48983,-85.19021 40.93762,-72.67518 40.56854,-67.79772 4.65555,-61.52419 l -27.79997,4.85629 -20.1002,39.05943 c -24.70751,48.01256 -22.78596,47.56547 -42.41948,9.87009 l -16.20718,-31.11702 -26.43815,0.96408 c -36.99482,1.34905 -36.99458,0.78657 -0.0253,59.44527 19.36831,30.73144 31.98025,54.26183 30.77164,57.41139 -1.1264,2.93536 -10.09222,18.95614 -19.92406,35.60181 -9.83179,16.64565 -17.87602,30.7613 -17.87602,31.36814 0,0.60683 -8.01563,14.44009 -17.8125,30.74056 -23.93339,39.82145 -25.93988,37.39635 23.27377,28.12953 z m 247.92842,-40.73412 16.48344,-2.32293 2.15566,-45.08311 c 6.85404,-143.34271 7.04463,-197.71156 0.68451,-195.27092 -3.35969,1.28923 -10.75419,2.34405 -16.43225,2.34405 -8.33311,0 -11.64862,2.57598 -17.19486,13.35938 -9.97804,19.40002 -24.66544,31.64526 -44.92994,37.45922 l -17.8125,5.11048 -1.09925,16.89558 c -1.0929,16.79815 -1.04156,16.88422 8.90625,14.92039 5.50304,-1.08635 17.36385,-2.98103 26.35735,-4.21038 l 16.35187,-2.23521 -1.70327,82.65278 c -1.64367,79.7596 -1.46782,82.58362 5.02312,80.67815 3.69956,-1.08599 14.14398,-3.01986 23.20987,-4.29748 z M 667.91564,686.86719 C 798.6449,666.65388 828.56259,448.62183 703.24129,429.42358 589.21628,411.95585 506.65352,577.40089 586.04783,664.26401 c 22.601,24.72714 38.94564,29.23979 81.86781,22.60318 z m -37.177,-51.91187 c -32.74215,-20.3205 -32.76018,-98.87206 -0.032,-134.15616 44.41829,-47.88541 101.0256,-22.06114 101.0256,46.08792 0,66.77921 -56.25548,115.8344 -100.99482,88.06824 z M 435.25429,450.61487 C 536.1621,434.0439 655.9957,414.41063 701.55116,406.98534 l 82.82813,-13.50051 0,-12.58601 0,-12.58601 -32.95313,-8.40264 c -18.12421,-4.62145 -81.84843,-20.98178 -141.60937,-36.3563 l -108.65625,-27.95365 -37.40625,22.49667 c -20.57344,12.37317 -81.91363,48.63281 -136.31156,80.57696 l -98.90531,58.08027 1.57324,12.83408 c 0.86528,7.05874 1.68752,13.36223 1.82718,14.00779 0.13969,0.64553 4.66255,0.2679 10.05082,-0.83922 5.38829,-1.10708 92.35782,-15.57094 193.26563,-32.1419 z M 908.09868,199.11229 c -49.93324,-8.82519 -46.91713,-76.43292 3.6039,-80.7828 41.3897,-3.56365 65.77444,40.4843 37.39799,67.55466 -12.91239,12.31803 -24.67666,16.11345 -41.00189,13.22814 z m 37.48373,-17.55749 c 18.05661,-20.2071 9.69183,-48.38044 -16.97759,-57.18214 -35.22468,-11.6252 -66.06667,26.97929 -43.98348,55.05351 15.65342,19.90011 44.19051,20.89656 60.96107,2.12863 z m -21.70232,-10.85126 c -9.95002,-13.45812 -21.9383,-14.43149 -21.9383,-1.78125 0,4.89844 -1.60313,8.90625 -3.5625,8.90625 -1.97918,0 -3.5625,-9.5 -3.5625,-21.375 l 0,-21.375 13.95862,0 c 24.09144,0 35.01852,11.97989 19.06864,20.90589 -5.63107,3.15132 -5.67763,4.00805 -0.54185,9.9739 8.22157,9.55046 11.11161,15.43271 7.58231,15.43271 -1.70654,0 -6.65852,-4.80937 -11.00442,-10.6875 z m 1.21795,-23.15625 c 0,-5.43447 -2.74712,-7.38987 -11.57813,-8.24134 -10.40727,-1.00345 -11.57812,-0.17003 -11.57812,8.24134 0,8.41138 1.17085,9.24479 11.57812,8.24134 8.83101,-0.85147 11.57813,-2.80687 11.57813,-8.24134 z"
       style="fill:#000000" />
  </g>
</svg>
