<?xml version="1.0" encoding="UTF-8" standalone="no"?>
<svg
   xmlns:dc="http://purl.org/dc/elements/1.1/"
   xmlns:cc="http://creativecommons.org/ns#"
   xmlns:rdf="http://www.w3.org/1999/02/22-rdf-syntax-ns#"
   xmlns:svg="http://www.w3.org/2000/svg"
   xmlns="http://www.w3.org/2000/svg"
   version="1.1"
   id="svg2"
   viewBox="0 0 731.29964 736.73667"
   height="207.92346mm"
   width="206.38901mm">
  <defs
     id="defs4" />
  <metadata
     id="metadata7">
    <rdf:RDF>
      <cc:Work
         rdf:about="">
        <dc:format>image/svg+xml</dc:format>
        <dc:type
           rdf:resource="http://purl.org/dc/dcmitype/StillImage" />
        <dc:title></dc:title>
      </cc:Work>
    </rdf:RDF>
  </metadata>
  <g
     transform="translate(-10.126914,-176.63877)"
     id="layer1">
    <ellipse
       ry="352.3988"
       rx="360.98511"
       cy="544.32086"
       cx="375.77673"
       id="path4158-2-2"
       style="fill:none;fill-opacity:1;fill-rule:nonzero;stroke:#000000;stroke-width:9.32942486;stroke-linecap:round;stroke-linejoin:round;stroke-miterlimit:4;stroke-dasharray:none;stroke-opacity:1" />
    <path
       id="path4485"
       d="m 737.89674,594.48977 c -2.61357,10.04225 -3.68585,20.72924 -6.42289,30.85515 -15.89277,66.21222 -51.23813,127.72286 -100.9655,174.32063 -54.42865,52.58161 -126.09214,86.63745 -200.85659,97.39956 -78.54381,11.45596 -160.6957,-2.51332 -230.46042,-40.55269 -32.02905,-17.18595 -61.35101,-39.29915 -86.73848,-65.2939 -3.5335,-3.25777 -14.379242,-16.03793 -18.206491,-18.90466 0.276766,2.47945 10.978331,13.76893 12.351531,16.00543 37.93953,46.78064 88.5049,83.3015 145.23717,103.70955 34.75927,12.76413 71.61823,19.68872 108.57405,21.3466 25.6924,-0.0668 51.56031,-0.078 76.89424,-4.92688 101.32468,-17.24474 195.66367,-76.48232 252.1473,-162.78796 29.23375,-44.73741 48.31863,-97.34211 48.64558,-151.10805 -0.0492,-0.0507 -0.13008,-0.0764 -0.1995,-0.0628 z"
       style="fill:#000000;fill-opacity:1;fill-rule:nonzero;stroke:none;stroke-width:5;stroke-linecap:round;stroke-linejoin:round;stroke-miterlimit:4;stroke-dasharray:none;stroke-opacity:1" />
    <path
       id="path4157"
       d="m 233.34524,208.88483 c 0,0 26.63861,246.38902 38.38579,351.53309 6.26831,31.66128 48.71107,79.17395 112.12693,76.77159 63.41587,-2.40237 104.68893,-70.8487 102.02541,-109.09648 -14.93164,-102.27748 -41.41625,-340.4214 -41.41625,-340.4214 0,0 -48.56309,-12.64728 -115.15739,-4.04061 -66.5943,8.60667 -95.96449,25.25381 -95.96449,25.25381 z"
       style="fill:none;fill-rule:evenodd;stroke:#000000;stroke-width:8;stroke-linecap:butt;stroke-linejoin:miter;stroke-miterlimit:4;stroke-dasharray:none;stroke-opacity:1" />
    <path
       id="path4163"
       d="m 252.53814,399.80366 c 0,0 -36.28349,37.80076 -45.45687,61.61931 -10.94585,28.42075 -13.74235,60.81523 -9.09137,90.91372 4.81413,31.15427 16.74719,63.03552 37.37564,86.87312 22.74937,26.28846 55.89146,43.61723 88.89343,54.54824 21.50159,7.12182 45.17257,8.59948 67.68022,6.06092 27.08782,-3.05515 54.41136,-11.22139 77.78174,-25.25382 22.86572,-13.72942 43.16591,-33.11715 57.5787,-55.55839 13.69664,-21.32617 26.33218,-45.10708 25.25381,-71.72083"
       style="fill:none;fill-rule:evenodd;stroke:#000000;stroke-width:5;stroke-linecap:butt;stroke-linejoin:miter;stroke-miterlimit:4;stroke-dasharray:none;stroke-opacity:1" />
    <ellipse
       ry="31.819805"
       rx="32.829956"
       cy="502.33411"
       cx="581.34277"
       id="path4165"
       style="fill:#000000;fill-opacity:1;stroke:#000000;stroke-width:5;stroke-linecap:round;stroke-linejoin:round;stroke-miterlimit:4;stroke-dasharray:none;stroke-opacity:1" />
    <ellipse
       ry="54.883835"
       rx="52.863529"
       cy="501.32401"
       cx="580.33264"
       id="path4167"
       style="fill:none;fill-opacity:1;stroke:#000000;stroke-width:5.33896255;stroke-linecap:round;stroke-linejoin:round;stroke-miterlimit:4;stroke-dasharray:none;stroke-opacity:1" />
    <path
       id="path4169"
       d="m 467.7458,374.63866 c 0,0 22.05842,11.00813 46.64155,39.13163 22.05587,25.23228 27.98494,48.65016 27.98494,48.65016"
       style="fill:none;fill-rule:evenodd;stroke:#000000;stroke-width:5.1823473;stroke-linecap:butt;stroke-linejoin:miter;stroke-miterlimit:4;stroke-dasharray:none;stroke-opacity:1" />
    <ellipse
       ry="68.216019"
       rx="72.25663"
       cy="523.04224"
       cx="375.77673"
       id="path4167-4"
       style="fill:none;fill-opacity:1;stroke:#000000;stroke-width:5;stroke-linecap:round;stroke-linejoin:round;stroke-miterlimit:4;stroke-dasharray:none;stroke-opacity:1" />
    <ellipse
       ry="48.261768"
       rx="51.710648"
       cy="515.69019"
       cx="374.85321"
       id="path4167-4-9"
       style="fill:none;fill-opacity:1;stroke:#000000;stroke-width:4.76414967;stroke-linecap:round;stroke-linejoin:round;stroke-miterlimit:4;stroke-dasharray:none;stroke-opacity:1" />
    <path
       id="path4205"
       d="m 369.67544,204.93881 c -39.36742,-0.0112 -83.05558,8.12386 -119.3478,24.59113 9.23019,109.51529 24.08649,225.6885 34.8281,320.49695 6.97059,30.26477 30.97136,52.519 56.37045,64.04834 31.88206,14.47369 78.2728,4.31746 101.80796,-23.69545 15.64869,-18.55367 25.71231,-40.64413 26.42925,-66.63433 -5.78,-60.9527 -17.65028,-121.5966 -23.73721,-182.51431 -5.12044,-42.51847 -7.90319,-85.43318 -14.44828,-127.71123 -1.77007,-6.43215 -10.11026,-4.03489 -14.69929,-5.77965 -15.66319,-1.93244 -31.4412,-2.89725 -47.20318,-2.80145 z m -22.30791,39.99327 c 6.68808,-0.0957 12.88534,5.79902 12.00163,13.64326 1.18144,18.22895 4.83318,36.66004 3.31394,54.84203 -3.79957,9.404 -20.28413,10.50337 -22.17843,-1.06836 -2.42309,-19.42467 -5.21863,-39.00603 -5.03324,-58.58521 0.43547,-6.09258 7.11142,-8.69423 11.8961,-8.83172 z m 9.06897,103.28191 c 8.29,-0.86035 13.93173,11.211 7.07149,17.26772 -7.20332,8.20296 -21.30676,-0.67867 -16.96294,-11.57512 1.35054,-4.4868 6.00005,-6.01807 9.89145,-5.6926 z m 18.48292,101.61415 c 32.81212,6.25483 62.97554,30.48471 63.81512,65.03783 2.14784,34.12998 -27.16916,60.98196 -57.4819,64.22009 -24.64478,3.51155 -51.15398,-9.13316 -63.44432,-33.33258 -10.94692,-19.37687 -9.53202,-45.17837 0.46998,-64.47039 15.78117,-19.96177 32.36086,-27.90851 56.64112,-31.45495 z"
       style="fill:#000000;fill-opacity:1;stroke:#000000;stroke-width:6.43854046;stroke-linecap:round;stroke-linejoin:round;stroke-miterlimit:4;stroke-dasharray:none;stroke-opacity:1" />
    <path
       id="path4207"
       d="m 368.34953,182.7464 c -44.84878,-0.0392 -89.91917,8.62345 -131.25,26.02679 -4.12678,1.49642 -1.91687,7.29171 2.09264,5.02232 42.97342,-14.66946 87.67329,-26.17324 133.40958,-24.47878 23.38758,0.0352 46.93065,1.29875 69.72658,4.79407 5.06942,-3.93503 -3.68733,-6.6951 -6.84165,-6.78693 -21.98619,-5.20381 -44.70959,-4.62015 -67.13715,-4.57747 z"
       style="fill:#000000;fill-opacity:1;stroke:#000000;stroke-width:7.14285707;stroke-linecap:round;stroke-linejoin:round;stroke-miterlimit:4;stroke-dasharray:none;stroke-opacity:1" />
    <path
       id="path4211"
       d="m 471.7675,380.57006 c -5.76305,2.59014 -0.7351,11.02821 -1.48791,15.84363 4.6128,44.92917 11.86593,89.56261 16.6609,134.44934 -0.64951,33.29554 -20.53097,63.72264 -45.32101,84.71513 -29.04166,25.50378 -72.29576,28.7892 -107.05064,13.84514 -26.18487,-11.08657 -50.51071,-31.49447 -60.68638,-58.76674 -8.35378,-36.51969 -9.68768,-74.1937 -14.57531,-111.29816 -2.20356,-17.80713 -3.58415,-35.79271 -6.62726,-53.45631 -5.19361,-2.99718 -12.4411,7.93891 -16.14981,10.41469 -19.38569,22.12121 -32.74709,46.12059 -36.44785,76.06411 -7.48091,49.66947 2.07856,104.38341 34.98884,143.57701 28.74519,34.2549 71.59623,53.9364 114.86886,62.08426 32.96027,5.04521 66.86272,-2.0669 97.65067,-13.9174 47.21203,-20.0104 84.17126,-61.84432 100.10045,-110.34599 2.12461,-9.21651 7.95571,-22.43218 -2.13727,-29.11273 -19.41492,-16.9915 -25.07295,-47.47319 -12.71485,-70.2539 2.90322,-6.32502 10.54127,-13.0522 5.09207,-20.29297 -12.94341,-29.21179 -35.11621,-53.81414 -61.1663,-71.97545 -1.52968,-0.81114 -3.20097,-1.73864 -4.9972,-1.57366 z"
       style="fill:#000000;fill-opacity:1;stroke:#000000;stroke-width:7.14285707;stroke-linecap:round;stroke-linejoin:round;stroke-miterlimit:4;stroke-dasharray:none;stroke-opacity:1" />
  </g>
</svg>
